<svg width="48" height="48" viewBox="0 0 48 48" fill="none" xmlns="http://www.w3.org/2000/svg">
<g clip-path="url(#clip0_6_1531)">
<path d="M29.2746 9.89362H39.3831C43.6304 9.89362 46.9999 13.4107 46.9999 17.658V31.2836C47.0071 32.286 46.815 33.2797 46.4347 34.2072C46.0545 35.1346 45.4937 35.9772 44.7851 36.6861C44.0764 37.395 43.2339 37.9559 42.3065 38.3364C41.3792 38.7169 40.3855 38.9093 39.3831 38.9024H29.2746L31.7644 35.3853L39.0899 33.0431C40.4085 32.6023 41.2864 31.2836 41.2864 29.9669V18.831C41.2864 17.5143 40.4085 16.1956 39.0899 15.7548L31.7624 13.4107L29.2708 9.89362H29.2746ZM6.71161 29.963C6.71161 31.2817 7.59328 32.6004 8.91003 33.0412L16.2355 35.2377L18.7272 38.7548H8.61678C7.61444 38.7617 6.62073 38.5693 5.69338 38.1888C4.76603 37.8084 3.92353 37.2474 3.21484 36.5385C2.50616 35.8297 1.94541 34.987 1.56517 34.0596C1.18494 33.1321 0.992813 32.1384 0.999948 31.136V17.6561C0.999948 13.4088 4.36945 9.89362 8.6187 9.89362H18.7253L16.2374 13.4088L8.91003 15.7529C7.59136 16.1937 6.71353 17.5124 6.71353 18.831L6.71161 29.963Z" fill="#FF6A00" style="fill:#FF6A00;fill:color(display-p3 1.0000 0.4157 0.0000);fill-opacity:1;"/>
<path d="M31.7645 22.4914H16.3813V26.0085H31.7645V22.4914Z" fill="#FF6A00" style="fill:#FF6A00;fill:color(display-p3 1.0000 0.4157 0.0000);fill-opacity:1;"/>
</g>
<defs>
<clipPath id="clip0_6_1531">
<rect width="46" height="46" fill="white" style="fill:white;fill-opacity:1;" transform="translate(1 1)"/>
</clipPath>
</defs>
</svg>
