<svg width="48" height="48" viewBox="0 0 48 48" fill="none" xmlns="http://www.w3.org/2000/svg">
<g clip-path="url(#clip0_6_1556)">
<g clip-path="url(#clip1_6_1556)">
<path fill-rule="evenodd" clip-rule="evenodd" d="M48 28.0278C42.4001 31.0518 36.76 33.8198 30.482 35.0758C29.082 35.3538 27.53 35.3538 26.108 35.1618C24.752 34.9918 24.074 33.7978 24.556 32.5418C25.016 31.3718 25.628 30.1798 26.416 29.1998C28.12 27.0698 30.044 25.1318 31.772 23.0238C32.8273 21.7319 33.7783 20.3582 34.6161 18.9158C35.2281 17.8938 34.944 16.6578 33.8721 16.1478C32.0781 15.2738 30.154 14.6578 28.252 13.9978C28.032 13.9118 27.704 14.1458 27.268 14.2958C27.814 14.7838 28.208 15.1458 28.754 15.6358C23.112 16.5958 17.774 17.9558 12.594 19.8318C12.57 19.9378 12.528 20.0218 12.548 20.0658C13.314 21.2358 12.964 22.1298 11.848 22.8538C11.4148 23.1373 11.031 23.4899 10.712 23.8978C14.124 24.8978 17.164 24.3238 20.072 22.4278C19.898 22.1738 19.722 21.9398 19.548 21.6838C20.64 21.8758 21.296 22.4718 21.384 23.4078C21.406 23.6218 21.276 23.8338 21.21 24.0478C21.056 23.8758 20.86 23.7078 20.73 23.5138C20.64 23.3858 20.618 23.2378 20.554 23.0238C17.098 25.3238 13.38 25.8998 9.29005 24.7078C9.29005 25.5158 9.24605 26.1978 9.31205 26.8578C9.35605 27.4318 9.11605 27.6878 8.59205 27.9858C7.41005 28.7098 6.18405 29.4558 5.20005 30.4138C4.02005 31.5838 4.45805 33.0118 6.05405 33.6078C7.86805 34.2878 9.77205 34.3078 11.674 34.0758C13.926 33.7978 16.134 33.4358 18.586 33.0958C15.72 34.4358 12.898 35.3758 9.92605 35.7558C7.84605 36.0358 5.77005 36.1838 3.71405 35.5878C0.762048 34.7578 -0.551952 32.5858 0.214048 29.6678C0.936048 26.9418 2.68605 24.7698 4.56605 22.7678C10.844 16.1038 18.782 12.7198 27.966 12.0378C30.11 11.8898 32.2761 12.1658 34.286 13.0598C37.108 14.3378 38.29 17.0398 36.912 19.7678C36.016 21.5778 34.768 23.2378 33.522 24.8778C32.298 26.4958 30.92 27.9858 29.63 29.5398C29.258 30.0078 28.908 30.4998 28.624 31.0298C28.076 32.0298 28.448 32.6898 29.608 32.5858C32.034 32.3498 34.508 32.1598 36.848 31.5638C40.28 30.6898 43.626 29.4558 47.016 28.3698C47.366 28.2838 47.694 28.1558 48 28.0298V28.0278Z" fill="white" style="fill:white;fill-opacity:1;"/>
</g>
</g>
<defs>
<clipPath id="clip0_6_1556">
<rect width="48" height="48" fill="white" style="fill:white;fill-opacity:1;"/>
</clipPath>
<clipPath id="clip1_6_1556">
<rect width="48" height="48" fill="white" style="fill:white;fill-opacity:1;"/>
</clipPath>
</defs>
</svg>
