<svg width="48" height="48" viewBox="0 0 48 48" fill="none" xmlns="http://www.w3.org/2000/svg">
<g clip-path="url(#clip0_12_1671)">
<path d="M41.3231 38.7529C21.8928 48 9.83409 40.2632 2.11496 35.564C1.6373 35.2678 0.825448 35.6332 1.52984 36.4423C4.10147 39.5605 12.5292 47.0761 23.5299 47.0761C34.5382 47.0761 41.0871 41.0695 41.9063 40.0217C42.72 38.9827 42.1453 38.4096 41.3229 38.7529H41.3231ZM46.78 35.7392C46.2582 35.0597 43.6072 34.9331 41.9388 35.138C40.2679 35.3371 37.7598 36.3583 37.9778 36.9715C38.0897 37.2012 38.3181 37.0981 39.466 36.9949C40.617 36.8801 43.8415 36.4731 44.5134 37.3515C45.1885 38.2359 43.485 42.4489 43.1739 43.1284C42.8733 43.8079 43.2887 43.9831 43.8533 43.5305C44.4102 43.0782 45.4183 41.9066 46.0948 40.2488C46.7667 38.5819 47.1766 36.2566 46.78 35.7392Z" fill="#FF9900" style="fill:#FF9900;fill:color(display-p3 1.0000 0.6000 0.0000);fill-opacity:1;"/>
<path fill-rule="evenodd" clip-rule="evenodd" d="M28.2583 19.884C28.2583 22.3103 28.3196 24.3337 27.0933 26.4885C26.1034 28.2405 24.5355 29.3178 22.7837 29.3178C20.3922 29.3178 18.9995 27.4958 18.9995 24.8068C18.9995 19.4984 23.7558 18.535 28.2583 18.535V19.884ZM34.5388 35.0641C34.127 35.4319 33.5314 35.4583 33.0672 35.2129C31 33.4962 30.632 32.6991 29.4934 31.061C26.0772 34.5473 23.6596 35.5896 19.2274 35.5896C13.9892 35.5896 9.90723 32.3573 9.90723 25.8841C9.90723 20.8301 12.6491 17.3875 16.5468 15.7058C19.9281 14.2165 24.6494 13.9538 28.2583 13.5422V12.7363C28.2583 11.2559 28.3721 9.50403 27.505 8.22523C26.7428 7.07771 25.2888 6.60466 24.0098 6.60466C21.6361 6.60466 19.5163 7.82216 18.9995 10.3449C18.8943 10.9056 18.4827 11.4575 17.9222 11.4837L11.878 10.8356C11.3701 10.7215 10.8095 10.31 10.9497 9.53024C12.3424 2.20753 18.9556 0 24.8769 0C27.9077 0 31.8669 0.805942 34.2583 3.10099C37.2891 5.93018 37 9.70546 37 13.8136V23.5191C37 26.436 38.2088 27.7148 39.3475 29.2916C39.7504 29.8522 39.8381 30.5268 39.3299 30.9471C38.0598 32.0069 35.7999 33.9779 34.5561 35.0817L34.5386 35.0641" fill="black" style="fill:black;fill-opacity:1;"/>
<path d="M41.3231 38.7529C21.8928 48 9.83409 40.2632 2.11496 35.564C1.6373 35.2678 0.825448 35.6332 1.52984 36.4423C4.10147 39.5605 12.5292 47.0761 23.5299 47.0761C34.5382 47.0761 41.0871 41.0695 41.9063 40.0217C42.72 38.9827 42.1453 38.4096 41.3229 38.7529H41.3231ZM46.78 35.7392C46.2582 35.0597 43.6072 34.9331 41.9388 35.138C40.2679 35.3371 37.7598 36.3583 37.9778 36.9715C38.0897 37.2012 38.3181 37.0981 39.466 36.9949C40.617 36.8801 43.8415 36.4731 44.5134 37.3515C45.1885 38.2359 43.485 42.4489 43.1739 43.1284C42.8733 43.8079 43.2887 43.9831 43.8533 43.5305C44.4102 43.0782 45.4183 41.9066 46.0948 40.2488C46.7667 38.5819 47.1766 36.2566 46.78 35.7392Z" fill="#FF9900" style="fill:#FF9900;fill:color(display-p3 1.0000 0.6000 0.0000);fill-opacity:1;"/>
<path fill-rule="evenodd" clip-rule="evenodd" d="M28.2583 19.884C28.2583 22.3103 28.3196 24.3337 27.0933 26.4885C26.1034 28.2405 24.5355 29.3178 22.7837 29.3178C20.3922 29.3178 18.9995 27.4958 18.9995 24.8068C18.9995 19.4984 23.7558 18.535 28.2583 18.535V19.884ZM34.5388 35.0641C34.127 35.4319 33.5314 35.4583 33.0672 35.2129C31 33.4962 30.632 32.6991 29.4934 31.061C26.0772 34.5473 23.6596 35.5896 19.2274 35.5896C13.9892 35.5896 9.90723 32.3573 9.90723 25.8841C9.90723 20.8301 12.6491 17.3875 16.5468 15.7058C19.9281 14.2165 24.6494 13.9538 28.2583 13.5422V12.7363C28.2583 11.2559 28.3721 9.50403 27.505 8.22523C26.7428 7.07771 25.2888 6.60466 24.0098 6.60466C21.6361 6.60466 19.5163 7.82216 18.9995 10.3449C18.8943 10.9056 18.4827 11.4575 17.9222 11.4837L11.878 10.8356C11.3701 10.7215 10.8095 10.31 10.9497 9.53024C12.3424 2.20753 18.9556 0 24.8769 0C27.9077 0 31.8669 0.805942 34.2583 3.10099C37.2891 5.93018 37 9.70546 37 13.8136V23.5191C37 26.436 38.2088 27.7148 39.3475 29.2916C39.7504 29.8522 39.8381 30.5268 39.3299 30.9471C38.0598 32.0069 35.7999 33.9779 34.5561 35.0817L34.5386 35.0641" fill="black" style="fill:black;fill-opacity:1;"/>
</g>
<defs>
<clipPath id="clip0_12_1671">
<rect width="48" height="48" fill="white" style="fill:white;fill-opacity:1;"/>
</clipPath>
</defs>
</svg>
