<svg width="48" height="48" viewBox="0 0 48 48" fill="none" xmlns="http://www.w3.org/2000/svg">
<g clip-path="url(#clip0_6_1519)">
<path d="M25.594 14.5642C25.4357 14.5293 25.2897 14.4523 25.1715 14.3414C25.0532 14.2306 24.967 14.0899 24.922 13.9342C24.8372 13.6029 24.8372 13.2555 24.922 12.9242C25.234 11.2042 25.522 9.4742 25.924 7.7702C26.204 6.3702 26.764 5.0362 27.57 3.8502C28.18 2.9882 29.07 2.3582 30.094 2.0702C31.848 1.6362 32.574 3.3282 31.968 4.7662C31.45 5.9522 30.214 6.5942 29.3 7.4622C27.63 9.0522 27.108 11.7422 26.628 13.8862C26.6063 13.9988 26.5622 14.1059 26.4983 14.201C26.4344 14.2962 26.352 14.3776 26.256 14.4402C26.1593 14.5036 26.051 14.5472 25.9374 14.5685C25.8237 14.5898 25.707 14.5883 25.594 14.5642Z" fill="white" style="fill:white;fill-opacity:1;"/>
<path d="M18.668 11.3444C19.328 11.1024 20.032 11.6364 20.56 11.9384C21.116 12.2284 21.734 12.3764 22.362 12.3664C22.824 12.3864 23.294 12.3664 23.738 12.4024C31.934 12.7544 38.706 18.8424 39.838 26.8764C40.968 34.9084 36.134 42.5944 28.348 45.1444C20.56 47.6964 12.042 44.3844 8.09601 37.2744C6.18618 33.8296 5.55718 29.82 6.32042 25.9558C7.08365 22.0917 9.18988 18.6224 12.266 16.1624C12.962 15.6064 13.698 15.1024 14.47 14.6524C15.3951 14.2073 16.2774 13.6784 17.106 13.0724C17.666 12.5864 18.006 11.5884 18.668 11.3444ZM27.48 15.6444C21.798 15.6504 17.684 20.7104 18.224 26.9284C18.764 33.1464 23.786 38.2104 29.45 38.2584C35.114 38.3064 39.314 33.2344 38.766 26.9704C38.22 20.7044 33.162 15.6384 27.48 15.6444ZM28.194 16.7844C29.4315 16.8083 30.6521 17.0761 31.786 17.5724C32.9199 18.0686 33.9448 18.7836 34.802 19.6764C36.6748 21.5507 37.8367 24.0186 38.088 26.6564C38.2387 27.9821 38.1138 29.3246 37.7211 30.5998C37.3284 31.8749 36.6764 33.0551 35.806 34.0664V34.0964C35.0956 34.889 34.2314 35.5287 33.2659 35.9767C32.3005 36.4247 31.2539 36.6716 30.19 36.7024C28.9389 36.7152 27.698 36.4763 26.5411 35.9997C25.3842 35.5232 24.335 34.8187 23.456 33.9284C21.5186 32.0621 20.3067 29.5687 20.036 26.8924C19.8702 25.5514 19.9874 24.1905 20.3802 22.8976C20.7729 21.6047 21.4324 20.4086 22.316 19.3864C23.0281 18.5937 23.8942 17.9543 24.8614 17.5073C25.8287 17.0603 26.8768 16.815 27.942 16.7864L28.194 16.7844Z" fill="white" style="fill:white;fill-opacity:1;"/>
<path d="M10.692 6.10812C10.8294 5.64691 11.0959 5.23467 11.46 4.92012C11.8012 4.64757 12.2348 4.51817 12.6695 4.55922C13.1042 4.60026 13.506 4.80854 13.79 5.14012C15.178 6.78012 14.128 9.29612 14.074 11.1801C14.1 12.7901 14.49 14.3741 15.214 15.8161C15.382 16.0841 15.508 16.3741 15.586 16.6761C15.6253 16.9076 15.588 17.1455 15.4797 17.3538C15.3714 17.5621 15.1981 17.7293 14.986 17.8301C14.296 18.1701 13.85 17.4501 13.568 16.9381C12.92 15.7381 12.334 14.5061 11.814 13.2461C11.2445 11.9757 10.8295 10.6415 10.578 9.27212C10.5379 9.02634 10.5039 8.77959 10.476 8.53212C10.4497 8.30631 10.4336 8.0794 10.428 7.85212C10.4123 7.25975 10.5016 6.66928 10.692 6.10812Z" fill="white" style="fill:white;fill-opacity:1;"/>
</g>
<defs>
<clipPath id="clip0_6_1519">
<rect width="48" height="48" fill="white" style="fill:white;fill-opacity:1;"/>
</clipPath>
</defs>
</svg>
