<svg width="48" height="48" viewBox="0 0 48 48" fill="none" xmlns="http://www.w3.org/2000/svg">
<path fill-rule="evenodd" clip-rule="evenodd" d="M36.2608 30.3171H15.1833C14.9876 30.3179 14.7966 30.3773 14.6351 30.4878C14.4735 30.5982 14.3489 30.7547 14.2772 30.9368C14.2056 31.1189 14.1902 31.3183 14.2332 31.5092C14.2762 31.7001 14.3754 31.8738 14.5182 32.0076L28.0613 44.6481C28.4562 45.0161 28.9756 45.2192 29.5142 45.2192H41.4473L36.2608 30.3171Z" fill="white" fill-opacity="0.75" style="fill:white;fill-opacity:0.75;"/>
<path fill-rule="evenodd" clip-rule="evenodd" d="M16.8988 2.64246C15.9846 2.64246 15.1738 3.22512 14.8806 4.09146L1.94881 42.4095C1.84039 42.7297 1.80983 43.0711 1.85968 43.4055C1.90952 43.7398 2.03832 44.0575 2.23542 44.3322C2.43252 44.6068 2.69223 44.8306 2.99304 44.9848C3.29384 45.1391 3.62709 45.2195 3.96515 45.2193H14.3726C15.2869 45.2193 16.0976 44.6366 16.3909 43.7722L18.9611 36.1535L14.5183 32.0077C14.3756 31.8738 14.2763 31.7002 14.2333 31.5093C14.1904 31.3184 14.2057 31.1189 14.2774 30.9368C14.349 30.7547 14.4737 30.5983 14.6352 30.4878C14.7967 30.3774 14.9877 30.3179 15.1834 30.3172H20.9334L30.2695 2.64246H16.8988Z" fill="white" fill-opacity="0.5" style="fill:white;fill-opacity:0.5;"/>
<path fill-rule="evenodd" clip-rule="evenodd" d="M33.9533 4.09146C33.8113 3.66924 33.5402 3.30227 33.1785 3.0423C32.8167 2.78233 32.3825 2.64247 31.937 2.64246H16.9678H17.0349C17.9492 2.64246 18.7599 3.22512 19.0513 4.09146L31.9849 42.4095C32.0933 42.7297 32.1239 43.0711 32.0741 43.4055C32.0242 43.7398 31.8954 44.0575 31.6983 44.3322C31.5012 44.6068 31.2415 44.8306 30.9407 44.9848C30.6399 45.1391 30.3066 45.2195 29.9686 45.2193H29.7386H44.8707C45.2087 45.2195 45.542 45.1391 45.8428 44.9848C46.1436 44.8306 46.4033 44.6068 46.6004 44.3322C46.7975 44.0575 46.9263 43.7398 46.9761 43.4055C47.026 43.0711 46.9954 42.7297 46.887 42.4095L33.9533 4.09146Z" fill="white" style="fill:white;fill-opacity:1;"/>
</svg>
