<svg width="48" height="48" viewBox="0 0 48 48" fill="none" xmlns="http://www.w3.org/2000/svg">
<g clip-path="url(#clip0_6_1570)">
<path d="M17.718 23.47C19.752 20.05 25.836 17.304 30.122 24.042C33.28 28.61 38.69 32.836 38.69 32.836C38.69 32.836 42.744 36.038 40.15 42.204C37.67 48.116 28.87 45.418 28.14 45.184L28.092 45.166C28.092 45.166 24.6 44.03 20.54 44.942C16.488 45.858 12.994 45.514 12.994 45.514L12.904 45.512C12.248 45.492 8.144 45.138 6.902 39.576C5.552 33.52 11.632 30.202 12.086 29.64C12.538 29.064 15.69 26.9 17.718 23.47ZM19.69 26.946V31.01H16.41C16.41 31.01 13.13 31.286 11.984 35.038C11.584 37.542 12.338 39.018 12.468 39.334C12.602 39.648 13.66 41.48 16.322 42.018H22.478V26.99L19.69 26.946ZM26.866 31.328L23.986 31.376V39.288C23.986 39.288 24.114 41.258 26.866 41.976H33.948V31.376H30.892V39.334H27.972C27.972 39.334 27.04 39.198 26.866 38.44V31.328ZM19.64 33.43V39.55H17.16C17.16 39.55 15.434 39.46 14.908 37.452C14.636 36.562 14.948 35.534 15.084 35.132C15.21 34.726 15.79 33.79 16.986 33.432L19.64 33.43ZM38.69 15.358C42.862 15.358 43.982 19.478 43.982 20.842C43.982 22.218 44.55 28.036 39.364 28.152C34.174 28.266 33.956 24.612 33.956 21.992C33.956 19.244 34.51 15.358 38.69 15.358ZM8.48 12.16C11.526 11.89 13.77 15.26 14.004 17.186C14.144 18.436 14.79 24.158 10.054 25.186C5.326 26.216 3.566 20.688 4.086 18.098C4.086 18.098 4.646 12.504 8.48 12.16ZM26.174 9.194C26.454 6.574 29.554 2.562 32.036 3.138C34.508 3.708 36.77 7.026 36.31 9.878C35.862 12.734 33.62 16.504 30.12 16.042C26.624 15.59 25.834 12.396 26.174 9.194ZM18.85 2C21.464 2 23.578 5.038 23.578 8.796C23.578 12.554 21.464 15.596 18.85 15.596C16.236 15.596 14.116 12.554 14.116 8.796C14.116 5.036 16.236 2 18.85 2Z" fill="white" style="fill:white;fill-opacity:1;"/>
</g>
<defs>
<clipPath id="clip0_6_1570">
<rect width="48" height="48" fill="white" style="fill:white;fill-opacity:1;"/>
</clipPath>
</defs>
</svg>
