<svg width="48" height="48" viewBox="0 0 48 48" fill="none" xmlns="http://www.w3.org/2000/svg">
<g clip-path="url(#clip0_3_2080)">
<path d="M29.888 37.174L26.48 36.284V20.02L30.128 19.096C32.128 18.588 33.808 18.174 33.888 18.19C33.952 18.19 34 22.66 34 28.134V38.08L33.648 38.064C33.44 38.064 31.744 37.652 29.888 37.174Z" fill="white" style="fill:white;fill-opacity:1;"/>
<path d="M14 33.084C14 27.612 14.048 23.124 14.128 23.124C14.192 23.108 15.872 23.524 17.888 24.032L21.52 24.954L21.488 33.054L21.44 41.152L18.176 41.996C16.384 42.456 14.704 42.886 14.464 42.934L14 43.046V33.084Z" fill="white" style="fill:white;fill-opacity:1;"/>
<path d="M38.48 24.954C38.48 6.894 38.496 5.924 38.768 6.004C38.912 6.052 40.336 6.418 41.92 6.816C43.504 7.23 45.072 7.626 45.408 7.706L46 7.866L45.968 24.986L45.92 42.122L42.672 42.95C40.896 43.41 39.216 43.824 38.96 43.89L38.48 44V24.954Z" fill="white" style="fill:white;fill-opacity:1;"/>
<path d="M2 25.018C2 15.662 2.048 8.008 2.128 8.008C2.192 8.008 3.872 8.422 5.872 8.916L9.52 9.838V25.002C9.52 33.322 9.488 40.15 9.456 40.15C9.408 40.15 7.712 40.58 5.696 41.09L2 42.026V25.018Z" fill="white" style="fill:white;fill-opacity:1;"/>
</g>
<defs>
<clipPath id="clip0_3_2080">
<rect width="48" height="48" fill="white" style="fill:white;fill-opacity:1;"/>
</clipPath>
</defs>
</svg>
