<svg width="48" height="48" viewBox="0 0 48 48" fill="none" xmlns="http://www.w3.org/2000/svg">
<g clip-path="url(#clip0_2_1972)">
<path d="M25.854 4.64954C26.293 2.91791 27.3409 2.47525 29.0171 2.95911C29.9942 3.23542 30.9202 4.09595 30.729 5.19641C30.3532 7.35675 29.7118 9.4978 29.2241 11.6417C28.9709 12.755 28.6664 13.9705 28.3296 15.0577C28.8014 14.6986 29.5331 13.8072 30.0503 13.3429L30.0513 13.3409L30.0503 13.3419L33.3618 9.98254C34.1891 9.13654 34.9542 8.29272 35.8921 7.53918C37.0775 6.54867 38.1583 7.31481 39.064 8.16809C39.1646 8.2629 39.257 8.35535 39.3403 8.44543C39.4236 8.53535 39.4981 8.62336 39.5649 8.70911C39.6655 8.83817 39.7475 8.96297 39.813 9.08411C40.3579 10.0918 39.7339 10.8562 38.6792 11.9005C36.8216 13.7397 35.0689 15.9299 33.1919 17.7365C33.1354 17.7906 33.0772 17.8435 33.0181 17.8947C32.7323 18.3426 31.6724 19.11 31.5601 19.5499L31.606 19.5948C31.8989 19.565 33.2809 18.9736 33.813 18.9425V18.9415C35.3644 18.4854 36.9578 18.1099 38.5122 17.6603C39.7558 17.3319 40.9336 16.9287 42.2075 16.7218C43.2914 16.5459 43.8834 16.892 44.2759 17.5001C44.3194 17.5675 44.3599 17.6386 44.3989 17.712C44.6336 18.154 44.7947 18.6994 44.9683 19.2706C45.016 19.4277 45.0412 19.5757 45.0503 19.715C45.1635 21.4434 42.4686 21.85 41.1479 22.2179C39.8668 22.5724 38.5874 22.9357 37.311 23.3068C37.6158 23.4814 38.4856 23.5654 38.8823 23.6544C40.8787 24.1025 43.0829 24.3297 44.9839 25.0812C46.8432 25.8161 45.7557 29.5028 44.186 29.7306C42.5532 29.9673 40.0472 29.0483 38.3638 28.8214C36.4464 28.4478 34.5156 28.08 32.6694 27.5851C33.1101 27.9832 34.9064 29.2067 35.0825 29.4562L35.0835 29.4552C36.7698 30.6293 38.4258 32.0285 40.0728 33.2277C40.8672 33.8061 41.8975 34.4943 42.2954 35.3234C42.5685 35.8911 42.5447 36.5251 41.9458 37.2355C41.1204 38.2141 39.9825 39.1422 38.729 38.2091C38.7132 38.1973 38.6976 38.1852 38.6821 38.173C38.7245 39.175 38.9858 39.6762 38.0913 40.5099C37.3103 41.2378 35.9205 41.8521 35.0229 40.9874C34.2438 40.2368 33.6012 39.3026 32.9292 38.4484L29.1665 33.7052C28.6145 33.0112 27.858 31.9699 27.2886 31.3575C27.2573 31.4428 27.2675 31.6046 27.3013 31.8077C27.3701 32.2215 27.5365 32.8081 27.6528 33.2726C27.6834 33.3948 27.7102 33.5086 27.731 33.6085C27.7481 33.6908 27.7619 33.7638 27.769 33.8243C27.9061 34.3493 28.0383 34.8755 28.1675 35.4025C28.2291 35.6536 28.2913 35.9048 28.3511 36.1564C28.5437 36.8278 28.8568 37.9167 28.9771 38.5841C29.2045 39.1821 29.3231 40.2274 29.5825 40.8702C30.5974 43.3854 29.3577 45.3084 26.6147 44.756C25.6593 44.5633 25.0601 41.4665 24.7778 40.3536C24.6087 39.7161 24.4322 39.08 24.2485 38.4464V38.4474L24.2476 38.4454V38.4464C24.1148 37.9586 24.0478 37.2063 23.7837 36.8253C23.4387 38.369 23.3053 40.0468 22.9644 41.6007C22.7544 42.5578 22.6592 43.8722 21.8315 44.5167C21.3743 44.866 20.7955 45.0164 20.2261 44.9337C17.4946 44.5384 18.0454 42.2398 18.3667 40.3048L19.0122 36.5021C17.5386 37.8047 15.3184 42.2677 13.6958 42.8634C13.2299 43.0344 12.7579 42.9701 12.3179 42.754C11.7199 42.4602 10.8903 41.7566 10.5991 41.1056C10.5798 41.0623 10.5627 41.0193 10.5483 40.9767C10.4109 40.5684 10.5171 40.1895 10.6899 39.8097C11.0308 39.0609 11.6162 38.375 12.0981 37.7101C13.0274 36.4366 13.9434 35.1535 14.8452 33.8605C15.2473 33.2869 15.975 32.3024 16.2749 31.7042C14.6289 32.6737 13.0665 33.857 11.4526 34.8829C10.3459 35.5866 8.7137 37.0023 7.34131 36.6075C6.82101 36.4602 6.38325 36.1065 6.12939 35.629C4.79071 33.1621 6.33213 32.4228 8.17041 31.2023L10.6118 29.5675L13.6343 27.5343C14.541 26.9197 15.3449 26.3451 16.314 25.8292C15.1133 25.6496 13.9848 25.5933 12.7847 25.4952L7.07178 25.0236C4.5932 24.8086 1.08497 25.0991 2.11084 21.2179C2.60945 19.3322 4.68744 19.7131 6.19971 19.8136L12.3521 20.2335C12.9349 20.2725 14.608 20.4268 15.105 20.3634L15.1304 20.3595C16.2119 20.5923 17.3816 20.6588 18.5454 20.7208C19.298 20.7609 21.1195 21.0718 21.7915 20.5704C21.9012 20.4884 22.1475 20.0664 22.1772 19.9396C22.2892 19.4621 22.4976 18.7754 22.6772 18.0919V18.0909C22.4976 18.7744 22.2892 19.4611 22.1772 19.9386C22.1475 20.0655 21.9001 20.4877 21.7905 20.5695C21.1183 21.0704 19.298 20.759 18.5454 20.7189C17.3816 20.6569 16.2119 20.5913 15.1304 20.3585C14.6886 19.9331 13.8553 19.3858 13.3345 18.9767C10.8001 16.9852 8.08454 15.179 5.61865 13.1066C5.3601 12.8476 4.94589 12.2383 4.94092 11.8859C4.9196 10.3812 7.07142 8.11394 8.60986 9.06946C9.86345 9.84829 10.853 10.6499 11.9692 11.4767C13.8168 12.845 15.6365 14.1718 17.4487 15.5509C17.1837 14.5977 16.7889 13.6383 16.437 12.7081L14.813 8.4259C14.4656 7.51238 13.6005 5.50954 13.7563 4.65247C14.0647 3.00358 17.0008 2.02101 17.9556 3.57434C18.7908 4.93338 19.373 6.80074 19.9497 8.3009L22.3755 14.549C22.5211 14.9262 22.8022 16.0084 23.0044 16.2628C23.0068 16.6116 22.9223 17.0815 22.8042 17.5831L22.9097 17.0958C22.9694 16.7824 23.006 16.4961 23.0044 16.2638C23.9944 12.405 24.8741 8.51415 25.854 4.64954Z" fill="white" style="fill:white;fill-opacity:1;"/>
</g>
<defs>
<clipPath id="clip0_2_1972">
<rect width="48" height="48" fill="white" style="fill:white;fill-opacity:1;"/>
</clipPath>
</defs>
</svg>
