<svg width="48" height="48" viewBox="0 0 48 48" fill="none" xmlns="http://www.w3.org/2000/svg">
<g clip-path="url(#clip0_2_1799)">
<path d="M23.0045 16.2641C23.9945 12.4052 24.8739 8.51405 25.8538 4.64929C26.2928 2.91763 27.3407 2.47505 29.0169 2.95892C29.9941 3.23519 30.9202 4.09598 30.7288 5.19665C30.353 7.35703 29.7119 9.49789 29.2242 11.6419C28.9709 12.7552 28.666 13.9701 28.3292 15.0573C28.801 14.6981 29.5331 13.8069 30.0504 13.3426L33.362 9.98372C34.1894 9.13756 34.9545 8.29352 35.8926 7.53987C37.0782 6.54921 38.1587 7.31569 39.0645 8.1691C40.674 9.68569 40.0291 10.564 38.679 11.9008C36.8214 13.7399 35.0688 15.9299 33.1917 17.7364C33.1353 17.7905 33.0775 17.8432 33.0183 17.8943C32.7329 18.3422 31.672 19.1096 31.5597 19.5496L31.6059 19.5949C31.899 19.565 33.2811 18.9735 33.8131 18.9425C35.3645 18.4864 36.9575 18.1108 38.512 17.6611C39.7558 17.3327 40.9336 16.9291 42.2078 16.7222C44.1345 16.4094 44.5052 17.7483 44.9681 19.2713C45.6082 21.3778 42.5743 21.8206 41.1475 22.2181C39.8664 22.5727 38.5876 22.9355 37.3112 23.3066C37.616 23.4813 38.4862 23.565 38.8827 23.654C40.8792 24.1021 43.0831 24.3294 44.9841 25.0809C46.8435 25.8159 45.7556 29.5033 44.1859 29.7309C42.553 29.9676 40.0474 29.0485 38.364 28.8217C36.4465 28.448 34.5155 28.0799 32.6692 27.5849C33.1102 27.9835 34.9123 29.2097 35.0839 29.4568C36.7702 30.6309 38.426 32.0304 40.0731 33.2296C41.4112 34.204 43.4189 35.489 41.9456 37.2359C41.1202 38.2146 39.9827 39.1425 38.7293 38.2094C38.7132 38.1974 38.6973 38.1852 38.6816 38.1728C38.724 39.1749 38.9857 39.6759 38.0911 40.5096C37.3101 41.2375 35.92 41.8526 35.0224 40.9879C34.2433 40.2372 33.6009 39.3028 32.9289 38.4486L29.1661 33.7053C28.6141 33.0112 27.8581 31.9695 27.2887 31.3572C27.1613 31.6972 27.7041 33.2726 27.769 33.8242C27.9716 34.5999 28.1656 35.3778 28.3509 36.1579C28.3023 36.3509 28.2656 36.5816 28.0627 36.6471C26.8003 37.0545 25.6561 37.8489 24.4958 38.4767C24.3266 38.4047 24.3797 38.3963 24.2479 38.4469C24.115 37.959 24.0475 37.2064 23.7832 36.8254C23.4382 38.3691 23.305 40.0467 22.9641 41.6006C22.7541 42.5577 22.6596 43.8723 21.8319 44.5168C21.3747 44.8662 20.7959 45.0166 20.2264 44.9339C17.4944 44.5388 18.045 42.2399 18.3663 40.3048L19.0121 36.5016C17.5384 37.804 15.3183 42.2674 13.6956 42.8631C13.2296 43.0341 12.7577 42.97 12.3176 42.7538C11.6798 42.4404 10.7792 41.6617 10.5487 40.9771C10.4111 40.5687 10.5171 40.19 10.69 39.8101C11.0309 39.0614 11.6164 38.3763 12.0983 37.7114C13.0277 36.4378 13.9435 35.1543 14.8453 33.8612C15.2476 33.2873 15.9764 32.3024 16.2759 31.7043C14.6296 32.6738 13.067 33.8566 11.4529 34.8827C10.3461 35.5864 8.71397 37.0018 7.34144 36.6071C6.82108 36.4598 6.38329 36.1064 6.12944 35.6289C4.79073 33.1619 6.33169 32.4224 8.16998 31.2018L10.612 29.5673L13.6345 27.534C14.5413 26.9193 15.345 26.3448 16.3143 25.8288C15.1135 25.6492 13.9849 25.5934 12.7847 25.4953L7.07215 25.0237C4.59355 24.8087 1.08491 25.0996 2.11086 21.2182C2.6094 19.3319 4.68775 19.7134 6.20013 19.8139L12.3519 20.2339C12.9346 20.2729 14.608 20.4267 15.1049 20.3633L15.1308 20.3598C16.2124 20.5926 17.3817 20.6586 18.5455 20.7206C19.2981 20.7607 21.1192 21.0718 21.7912 20.5704C21.9008 20.4886 22.1479 20.0669 22.1776 19.9401C22.4015 18.9853 23.0108 17.1939 23.0045 16.2641Z" fill="#F8883F" style="fill:#F8883F;fill:color(display-p3 0.9725 0.5333 0.2471);fill-opacity:1;"/>
<path d="M16.2758 31.7035C16.9376 31.1107 19.5952 29.468 20.4886 28.9452C20.3895 29.9783 20.17 31.0504 19.98 32.0715C19.7318 33.4059 19.5069 34.7478 19.1356 36.0532C19.0948 36.1966 19.0425 36.3564 19.0119 36.5008C17.5383 37.8032 15.3182 42.2666 13.6954 42.8623C13.2294 43.0333 12.7575 42.9692 12.3174 42.753C11.6796 42.4396 10.779 41.6609 10.5485 40.9763C10.411 40.5679 10.5169 40.1892 10.6899 39.8093C11.0307 39.0606 11.6162 38.3755 12.0982 37.7106C13.0275 36.437 13.9433 35.1535 14.8451 33.8604C15.2475 33.2865 15.9762 32.3016 16.2758 31.7035Z" fill="#3EA8A4" style="fill:#3EA8A4;fill:color(display-p3 0.2431 0.6588 0.6431);fill-opacity:1;"/>
<path d="M33.813 18.9417C35.3644 18.4856 36.9574 18.11 38.5119 17.6603C39.7557 17.3319 40.9335 16.9283 42.2077 16.7214C44.1344 16.4086 44.5051 17.7475 44.968 19.2705C45.6081 21.377 42.5741 21.8198 41.1474 22.2173C39.8663 22.5718 38.5875 22.9347 37.311 23.3058C36.5687 23.1698 35.7393 22.9894 34.999 22.903L35.0102 22.8689C35.3386 22.8322 36.8322 23.1763 37.2347 23.1821C37.3379 23.1835 37.9071 22.9977 38.0888 22.9606L38.1202 22.9544L38.0907 22.7845C38.3904 22.8113 38.5678 22.9152 38.8565 22.7251L38.8092 22.7851L38.8546 22.7448C38.7203 22.5963 38.3619 22.8122 38.0051 22.6014C37.8964 22.4258 37.9048 22.4942 37.9321 22.3314C37.9982 22.2865 38.0837 22.2401 38.1246 22.1694C38.2175 22.0084 36.82 19.3031 36.7059 18.8533C36.6859 18.7742 36.7857 18.6533 36.8279 18.5809C36.365 18.0085 34.3886 19.1655 33.813 18.9417Z" fill="#FEB200" style="fill:#FEB200;fill:color(display-p3 0.9961 0.6980 0.0000);fill-opacity:1;"/>
<path d="M30.0503 13.3418L33.3619 9.98294C34.1893 9.13677 34.9544 8.29274 35.8925 7.53908C37.0781 6.54843 38.1586 7.3149 39.0644 8.16832C40.6739 9.6849 40.0289 10.5632 38.6788 11.9C36.8212 13.7392 35.0687 15.9291 33.1916 17.7356C33.1352 17.7898 33.0773 17.8424 33.0182 17.8936C32.9502 17.212 35.1962 15.966 35.1334 15.1393L34.8167 15.061C34.6699 14.8706 34.8576 14.4862 34.6248 14.2146C34.1661 13.6796 33.9415 13.2571 33.4304 12.7508C33.1091 12.4326 32.7061 12.2258 32.5661 11.936C32.4473 11.9336 32.4319 11.9314 32.3167 11.901C32.2665 11.7155 32.3891 11.8476 32.4407 11.5876C31.8331 11.3855 30.5365 13.2305 30.0503 13.3418Z" fill="#FEB200" style="fill:#FEB200;fill:color(display-p3 0.9961 0.6980 0.0000);fill-opacity:1;"/>
<path d="M35.0836 29.4551C36.7699 30.6292 38.4257 32.0287 40.0727 33.2279C41.4109 34.2023 43.4186 35.4873 41.9452 37.2342C41.1198 38.2129 39.9824 39.1408 38.729 38.2077C38.7129 38.1957 38.697 38.1835 38.6813 38.1711C38.625 38.0696 38.4541 37.8764 38.3767 37.7693C37.0076 35.8762 35.4755 34.1093 34.0888 32.2301C33.8788 31.9456 33.636 31.6412 33.4529 31.3409C33.7206 31.3894 34.574 32.959 34.89 32.988C35.3151 32.7189 35.5491 32.0759 35.8532 31.6871C35.9465 31.5678 36.2802 31.5688 36.4552 31.3599C36.6071 30.6514 36.9071 31.2825 37.2698 31.2815V31.2368C37.2308 31.2306 35.2205 29.6948 35.0437 29.5633L35.0836 29.4551Z" fill="#FEB200" style="fill:#FEB200;fill:color(display-p3 0.9961 0.6980 0.0000);fill-opacity:1;"/>
<path d="M25.2988 28.914C26.1067 29.7471 26.6247 30.4154 27.2886 31.3564C27.1612 31.6963 27.7039 33.2718 27.7689 33.8233C27.9715 34.5991 28.1654 35.377 28.3507 36.1571C28.3022 36.3501 28.2655 36.5807 28.0625 36.6462C26.8002 37.0537 25.656 37.8481 24.4957 38.4758C24.3264 38.4038 24.3796 38.3955 24.2478 38.4461C24.1149 37.9582 24.0474 37.2056 23.7831 36.8245C23.8323 36.4916 23.8854 36.1592 23.9425 35.8275C23.9793 35.2156 24.2038 34.2085 24.3263 33.5856C24.6222 32.0814 24.8949 30.3843 25.2988 28.914Z" fill="#3EA8A4" style="fill:#3EA8A4;fill:color(display-p3 0.2431 0.6588 0.6431);fill-opacity:1;"/>
<path d="M23.9426 35.8284C24.0049 36.13 23.8651 36.3712 23.9784 36.517C24.0763 36.3977 24.081 36.3204 24.1165 36.1706L24.215 36.1497L24.2834 36.2909C24.6809 36.4068 27.2147 35.0604 27.6972 34.7856C27.8928 34.6743 27.7115 34.0938 27.7013 33.8873L27.769 33.8242C27.9716 34.6 28.1655 35.3779 28.3508 36.1579C28.3023 36.351 28.2656 36.5816 28.0626 36.6471C26.8003 37.0546 25.6561 37.849 24.4958 38.4767C24.3265 38.4047 24.3797 38.3964 24.2479 38.4469C24.115 37.9591 24.0475 37.2065 23.7832 36.8254C23.8324 36.4925 23.8855 36.1601 23.9426 35.8284Z" fill="#A0A86A" style="fill:#A0A86A;fill:color(display-p3 0.6275 0.6588 0.4157);fill-opacity:1;"/>
<path d="M17.4491 15.551C17.1841 14.5978 16.7893 13.6385 16.4374 12.7082L14.8126 8.42587C14.4653 7.51234 13.6001 5.50987 13.756 4.6528C14.0639 3.00367 17.0008 2.02065 17.9556 3.57411C18.7909 4.93316 19.3729 6.8002 19.9496 8.30042L22.376 14.5489C22.5216 14.9262 22.802 16.0083 23.0042 16.2627C23.0105 17.1925 22.4012 18.984 22.1773 19.9387C22.1476 20.0656 21.9004 20.4873 21.7908 20.5691C21.1189 21.0704 19.2978 20.7594 18.5452 20.7193C17.3813 20.6573 16.212 20.5913 15.1305 20.3585C14.6886 19.933 13.8549 19.3858 13.3341 18.9766C10.7997 16.9851 8.08467 15.179 5.61877 13.1066C5.36023 12.8477 4.94628 12.2383 4.94132 11.8859C4.91999 10.3812 7.07154 8.11381 8.60999 9.06967C9.86361 9.84852 10.8532 10.6497 11.9695 11.4765C13.8171 12.8449 15.6367 14.1718 17.4491 15.551Z" fill="#3EA8A4" style="fill:#3EA8A4;fill:color(display-p3 0.2431 0.6588 0.6431);fill-opacity:1;"/>
<path d="M28.3508 36.1562C28.5434 36.8277 28.856 37.9162 28.9762 38.5836C29.2039 39.1816 29.323 40.2267 29.5825 40.8697C30.5979 43.3853 29.3576 45.3089 26.6139 44.7559C25.6583 44.5633 25.0597 41.4658 24.7774 40.3533C24.6082 39.7153 24.4316 39.0792 24.2478 38.4452C24.3796 38.3947 24.3265 38.403 24.4957 38.475C25.656 37.8473 26.8002 37.0529 28.0625 36.6454C28.2655 36.5799 28.3022 36.3493 28.3508 36.1562Z" fill="#FEB200" style="fill:#FEB200;fill:color(display-p3 0.9961 0.6980 0.0000);fill-opacity:1;"/>
<path d="M28.3508 36.1562C28.5434 36.8276 28.856 37.9162 28.9762 38.5836C28.8885 38.4716 28.8259 38.3955 28.7527 38.2713C28.5643 38.3196 28.3719 38.6199 28.2443 38.6376C26.9494 38.8175 26.1211 39.4075 25.1695 40.2675C25.1247 40.308 24.9187 40.238 24.7774 40.3533C24.6082 39.7153 24.4316 39.0792 24.2478 38.4452C24.3796 38.3947 24.3265 38.403 24.4957 38.475C25.656 37.8473 26.8002 37.0529 28.0625 36.6454C28.2655 36.5799 28.3022 36.3493 28.3508 36.1562Z" fill="#D1AD47" style="fill:#D1AD47;fill:color(display-p3 0.8196 0.6784 0.2784);fill-opacity:1;"/>
</g>
<defs>
<clipPath id="clip0_2_1799">
<rect width="48" height="48" fill="white" style="fill:white;fill-opacity:1;"/>
</clipPath>
</defs>
</svg>
