<svg width="48" height="48" viewBox="0 0 48 48" fill="none" xmlns="http://www.w3.org/2000/svg">
<g clip-path="url(#clip0_2_1994)">
<path d="M43.3421 19.9519C43.7235 18.8208 43.9181 17.6365 43.9183 16.4444C43.9182 14.4718 43.3856 12.5348 42.3755 10.8326C40.3456 7.34634 36.5802 5.19397 32.5051 5.19397C31.7022 5.19398 30.9016 5.27765 30.1166 5.44357C29.0607 4.26976 27.7646 3.33013 26.3138 2.68664C24.863 2.04315 23.2904 1.71042 21.6998 1.71039H21.6283L21.6015 1.71054C16.6658 1.71054 12.2886 4.85304 10.7713 9.48579C9.20073 9.80319 7.71697 10.448 6.41937 11.377C5.12177 12.306 4.04028 13.4978 3.24729 14.8726C2.24019 16.5851 1.70948 18.5297 1.70886 20.5096C1.70925 23.2922 2.75607 25.9756 4.64663 28.0403C4.265 29.1714 4.07037 30.3557 4.07021 31.5478C4.07038 33.5204 4.60291 35.4574 5.61305 37.1596C6.81429 39.2233 8.64875 40.8572 10.8519 41.8257C13.055 42.7942 15.513 43.0473 17.8713 42.5485C18.9273 43.7223 20.2235 44.6619 21.6744 45.3054C23.1253 45.949 24.698 46.2817 26.2887 46.2818H26.3602L26.3892 46.2817C31.3276 46.2817 35.7034 43.139 37.2207 38.5021C38.7913 38.1846 40.275 37.5397 41.5726 36.6107C42.8702 35.6817 43.9518 34.4899 44.7449 33.1151C45.7509 31.4041 46.2806 29.4611 46.2803 27.483C46.2799 24.7005 45.2331 22.0172 43.3425 19.9526L43.3421 19.9519ZM26.363 43.3679H26.3513C24.3753 43.3673 22.4619 42.6832 20.9441 41.4348C21.0342 41.3869 21.1233 41.3371 21.2112 41.2854L30.2055 36.1592C30.43 36.0332 30.6166 35.8507 30.7465 35.6304C30.8763 35.4102 30.9448 35.1599 30.9449 34.905V22.385L34.7466 24.5509C34.7665 24.5607 34.7837 24.5753 34.7966 24.5932C34.8095 24.6111 34.8177 24.632 34.8205 24.6538V35.0151C34.8153 39.6217 31.0321 43.3586 26.363 43.3679ZM8.17484 35.7032C7.4319 34.4356 7.04048 32.9974 7.03998 31.5332C7.03998 31.0556 7.08225 30.5768 7.16457 30.1063C7.23144 30.1458 7.34814 30.2161 7.43189 30.2636L16.4262 35.3898C16.6505 35.5189 16.9055 35.587 17.1651 35.5869C17.4248 35.5869 17.6798 35.5187 17.9039 35.3895L28.8851 29.1333V33.4652L28.8852 33.4727C28.8852 33.4935 28.8803 33.5141 28.8709 33.5328C28.8614 33.5514 28.8477 33.5677 28.8308 33.5802L19.7384 38.7601C18.4518 39.4907 16.9936 39.8754 15.5092 39.8758C14.0232 39.8756 12.5634 39.4899 11.2761 38.7575C9.98885 38.025 8.91935 36.9716 8.17484 35.7027V35.7032ZM5.80861 16.3291C6.79647 14.6361 8.3563 13.3398 10.2151 12.667C10.2151 12.7434 10.2107 12.8788 10.2107 12.9728V23.2253L10.2105 23.2337C10.2106 23.4883 10.2789 23.7383 10.4085 23.9584C10.5382 24.1785 10.7246 24.3608 10.9487 24.4868L21.9299 30.7421L18.1284 32.908C18.1096 32.9202 18.0881 32.9276 18.0657 32.9296C18.0433 32.9316 18.0208 32.9282 18.0001 32.9195L8.90676 27.7353C7.62128 27.0005 6.55409 25.9453 5.81216 24.6753C5.07022 23.4054 4.6796 21.9654 4.67943 20.4995C4.68 19.036 5.0695 17.5982 5.80908 16.3296L5.80861 16.3291ZM37.0432 23.5009L26.0621 17.2448L29.8638 15.0797C29.8825 15.0675 29.9041 15.0601 29.9264 15.0581C29.9488 15.056 29.9713 15.0595 29.992 15.0682L39.0852 20.2481C40.3718 20.9817 41.4401 22.0364 42.1829 23.3062C42.9258 24.576 43.317 26.0163 43.3173 27.4824C43.3173 30.9819 41.1042 34.1132 37.7766 35.3218V24.7627C37.7771 24.7588 37.7771 24.7548 37.7771 24.7509C37.777 24.4973 37.7091 24.2481 37.5803 24.0287C37.4514 23.8092 37.2662 23.6271 37.0432 23.5009ZM40.8271 17.8817C40.7387 17.8283 40.6496 17.7759 40.5599 17.7246L31.5656 12.5982C31.3414 12.4693 31.0865 12.4013 30.8269 12.4012C30.5674 12.4013 30.3125 12.4693 30.0882 12.5982L19.1069 18.8544V14.5225L19.1068 14.515C19.1068 14.4727 19.1271 14.4329 19.1613 14.4075L28.2538 9.23199C29.5399 8.5004 30.9983 8.11527 32.4828 8.11519C37.1579 8.11519 40.9492 11.856 40.9492 16.4688C40.9489 16.9422 40.9081 17.4147 40.8271 17.8813V17.8817ZM17.04 25.6027L13.2375 23.4368C13.2176 23.427 13.2004 23.4124 13.1875 23.3945C13.1746 23.3766 13.1664 23.3557 13.1636 23.3339V12.9725C13.1656 8.36214 16.9569 4.62445 21.6299 4.62445C23.6091 4.62485 25.5256 5.30896 27.047 6.55803C26.9785 6.59491 26.8592 6.65995 26.7798 6.70741L17.7855 11.8336C17.5611 11.9596 17.3745 12.1419 17.2446 12.3621C17.1148 12.5824 17.0464 12.8326 17.0463 13.0873V13.0956L17.04 25.6027ZM19.1052 21.2094L23.996 18.4222L28.8868 21.2075V26.7802L23.996 29.5657L19.1052 26.7802V21.2094Z" fill="black" style="fill:black;fill-opacity:1;"/>
</g>
<defs>
<clipPath id="clip0_2_1994">
<rect width="48" height="48" fill="white" style="fill:white;fill-opacity:1;"/>
</clipPath>
</defs>
</svg>
