<svg width="48" height="48" viewBox="0 0 48 48" fill="none" xmlns="http://www.w3.org/2000/svg">
<g clip-path="url(#clip0_2_1867)">
<path fill-rule="evenodd" clip-rule="evenodd" d="M34.5245 11.662C37.5777 11.662 40.4535 12.8831 42.629 15.1005C44.7972 17.3032 46.0084 20.2733 45.9991 23.3641C45.999 26.4746 44.7702 29.4593 42.6368 31.6405C42.2617 32.025 41.8133 32.3303 41.3184 32.5389C40.8234 32.7476 40.2912 32.8553 39.754 32.8553C39.2169 32.8553 38.6854 32.7475 38.1905 32.5389C37.6956 32.3303 37.2472 32.0249 36.8721 31.6405C36.1067 30.8545 35.6778 29.8001 35.6778 28.703C35.6779 27.606 36.1068 26.5524 36.8721 25.7665C37.4884 25.1348 37.8448 24.2621 37.8448 23.371C37.8445 21.5315 36.3218 19.9803 34.5167 19.9803C32.7116 19.9804 31.1888 21.5316 31.1885 23.371C31.1885 24.2678 31.5511 25.1555 32.1827 25.7948C34.3105 27.9627 35.4786 30.885 35.4786 34.0223C35.4927 37.114 34.2809 40.0852 32.1085 42.285C29.933 44.5025 27.0572 45.7234 24.004 45.7235H23.9961C20.9429 45.7235 18.0671 44.5024 15.8917 42.285C13.9611 40.3238 12.7907 37.7545 12.5635 35.0331C9.85283 34.8149 7.32772 33.6299 5.37017 31.6346C3.20189 29.4319 1.99076 26.4618 2.00005 23.371C2.00013 20.2606 3.19482 17.3257 5.37017 15.1083C7.54558 12.8909 10.4215 11.6699 13.4747 11.6698C16.5278 11.6698 19.4515 12.9193 21.585 15.0946C23.1785 16.7148 23.1785 19.3504 21.585 20.9686C21.21 21.3528 20.7624 21.6586 20.2676 21.8671C19.7728 22.0755 19.2411 22.1825 18.7042 22.1825C18.1672 22.1825 17.6355 22.0755 17.1407 21.8671C16.6458 21.6586 16.1974 21.3529 15.8223 20.9686C15.5151 20.6553 15.1484 20.4059 14.7442 20.2352C14.3402 20.0647 13.9063 19.9762 13.4678 19.9745C11.6646 19.9745 10.14 21.5256 10.1397 23.3632C10.1397 25.2028 11.6644 26.7548 13.4678 26.7548C14.3455 26.7547 15.1984 26.3921 15.8223 25.7587C16.1974 25.3744 16.6458 25.0687 17.1407 24.8602C17.3915 24.7546 17.6515 24.6739 17.917 24.621C18.1954 24.5609 18.4804 24.5302 18.7667 24.5302C19.3037 24.5302 19.8352 24.638 20.3301 24.8466C20.825 25.0552 21.2735 25.3606 21.6485 25.745C23.24 27.3652 23.24 30.0007 21.6485 31.619C21.0302 32.2507 20.6758 33.1233 20.6758 34.0145C20.676 35.854 22.1988 37.4052 24.004 37.4052C25.8071 37.405 27.3319 35.854 27.3321 34.0145C27.3321 33.3638 27.1738 32.4301 26.4258 31.661C24.2654 29.4387 23.054 26.4635 23.0479 23.3641C23.0479 20.2822 24.2445 17.318 26.42 15.1005C28.5954 12.8831 31.4693 11.662 34.5245 11.662Z" fill="white" style="fill:white;fill-opacity:1;"/>
<path d="M23.9957 13.0271L17.3241 6.76779C17.0719 6.54095 16.8674 6.26604 16.7228 5.95918C16.5781 5.65232 16.4961 5.31967 16.4817 4.98074C16.4672 4.6418 16.5206 4.30338 16.6385 3.98531C16.7565 3.66724 16.9368 3.37592 17.1688 3.12841C17.4008 2.88091 17.6799 2.68219 17.9897 2.54392C18.2995 2.40564 18.6338 2.33058 18.9729 2.32313C19.3121 2.31568 19.6493 2.376 19.9649 2.50054C20.2805 2.62509 20.568 2.81136 20.8107 3.04844L23.4823 5.55409L27.2742 0.867209C27.7088 0.37257 28.3178 0.0652297 28.9739 0.0095389C29.63 -0.0461519 30.2821 0.154125 30.7938 0.568437C31.3056 0.982749 31.6372 1.57897 31.7192 2.23225C31.8013 2.88554 31.6274 3.54524 31.234 4.07322L23.9861 13.0271H23.9938H23.9957Z" fill="white" style="fill:white;fill-opacity:1;"/>
</g>
<defs>
<clipPath id="clip0_2_1867">
<rect width="48" height="48" fill="white" style="fill:white;fill-opacity:1;"/>
</clipPath>
</defs>
</svg>
