<svg width="48" height="48" viewBox="0 0 48 48" fill="none" xmlns="http://www.w3.org/2000/svg">
<g clip-path="url(#clip0_2_1862)">
<path fill-rule="evenodd" clip-rule="evenodd" d="M24.1053 2C25.4564 2.0001 26.7525 2.53681 27.7078 3.49219C28.6632 4.44762 29.2 5.7436 29.2 7.09473C29.2 7.87228 29.0203 8.6308 28.6873 9.31738H33.2371C38.2788 9.31738 42.3669 13.4238 42.367 18.4893V21.5459L45.0252 26.8545C45.1549 27.1132 45.2221 27.3991 45.2215 27.6885C45.2209 27.9779 45.1531 28.2633 45.0223 28.5215L42.367 33.7725V36.8301C42.367 41.8937 38.2788 46 33.2371 46H14.9754C9.93192 46 5.84554 41.8937 5.84553 36.8301V33.7725L3.13166 28.5381C2.99512 28.2758 2.92363 27.9841 2.92268 27.6885C2.92177 27.393 2.99208 27.1018 3.12678 26.8389L5.84358 21.5459V18.4893C5.84364 13.4238 9.93186 9.31741 14.9735 9.31738H19.5223C19.1893 8.63082 19.0106 7.87225 19.0106 7.09473C19.0106 5.74353 19.5473 4.44763 20.5028 3.49219C21.4582 2.53687 22.7542 2 24.1053 2ZM30.5897 19.6006C29.4842 19.6006 28.4242 20.0397 27.6424 20.8213C26.8606 21.6031 26.4207 22.6638 26.4207 23.7695V31.1797C26.4207 32.2854 26.8606 33.3461 27.6424 34.1279C28.4242 34.9095 29.4842 35.3486 30.5897 35.3486C31.6953 35.3486 32.7561 34.9097 33.5379 34.1279C34.3198 33.3461 34.7586 32.2854 34.7586 31.1797V23.7695C34.7586 23.222 34.6508 22.6797 34.4412 22.1738C34.2316 21.668 33.9242 21.2084 33.5369 20.8213C33.1497 20.4342 32.6903 20.1264 32.1844 19.917C31.6784 19.7076 31.1373 19.6003 30.5897 19.6006ZM17.159 19.6006C16.0533 19.6006 14.9926 20.0395 14.2108 20.8213C13.4289 21.6031 12.9901 22.6638 12.9901 23.7695V31.1797C13.0129 32.27 13.4619 33.3083 14.241 34.0713C15.0202 34.8342 16.0675 35.2617 17.158 35.2617C18.2485 35.2617 19.2959 34.8342 20.075 34.0713C20.8542 33.3083 21.3031 32.27 21.326 31.1797V23.7695C21.326 22.6642 20.8867 21.6041 20.1053 20.8223C19.3239 20.0406 18.2643 19.6011 17.159 19.6006Z" fill="white" style="fill:white;fill-opacity:1;"/>
</g>
<defs>
<clipPath id="clip0_2_1862">
<rect width="48" height="48" fill="white" style="fill:white;fill-opacity:1;"/>
</clipPath>
</defs>
</svg>
