<svg width="48" height="48" viewBox="0 0 48 48" fill="none" xmlns="http://www.w3.org/2000/svg">
<g clip-path="url(#clip0_12_340)">
<g clip-path="url(#clip1_12_340)">
<path d="M32.986 34.8C33.256 33.76 33.146 32.834 32.664 32.124C32.234 31.468 31.48 31.086 30.564 31.086L13.238 30.868C13.1821 30.869 13.1271 30.8541 13.0793 30.825C13.0315 30.796 12.9929 30.754 12.968 30.704C12.914 30.596 12.914 30.486 12.914 30.378C12.968 30.214 13.13 30.05 13.292 30.05L30.78 29.83C32.88 29.722 35.086 28.03 35.892 25.956L36.914 23.336C36.968 23.226 36.968 23.116 36.968 23.008C35.84 17.82 31.32 14 25.884 14C20.878 14 16.628 17.276 15.122 21.806C14.6154 21.4126 14.0359 21.1234 13.4171 20.9548C12.7982 20.7863 12.1521 20.7418 11.516 20.824C9.096 21.042 7.21 23.008 6.942 25.464C6.888 26.12 6.942 26.72 7.05 27.264C3.12 27.376 0 30.652 0 34.638C0 35.018 0.054 35.348 0.054 35.728C0.054 35.892 0.214 36.002 0.376 36.002H32.342C32.502 36.002 32.718 35.892 32.772 35.674L32.986 34.8Z" fill="#F38020" style="fill:#F38020;fill:color(display-p3 0.9529 0.5020 0.1255);fill-opacity:1;"/>
<path d="M38.476 23.5H37.992C37.884 23.5 37.776 23.608 37.722 23.718L37.022 26.118C36.754 27.158 36.862 28.084 37.346 28.794C37.776 29.45 38.53 29.83 39.446 29.83L43.156 30.05C43.264 30.05 43.372 30.104 43.426 30.214C43.48 30.322 43.48 30.432 43.48 30.54C43.426 30.704 43.264 30.868 43.104 30.868L39.284 31.088C37.184 31.196 34.978 32.8881 34.17 34.962L33.902 35.672C33.848 35.782 33.954 35.946 34.116 35.946H47.3C47.462 35.946 47.624 35.836 47.624 35.672C47.838 34.852 48 33.98 48 33.052C47.946 27.812 43.694 23.498 38.476 23.498" fill="#FCAD32" style="fill:#FCAD32;fill:color(display-p3 0.9882 0.6784 0.1961);fill-opacity:1;"/>
</g>
</g>
<defs>
<clipPath id="clip0_12_340">
<rect width="48" height="48" fill="white" style="fill:white;fill-opacity:1;"/>
</clipPath>
<clipPath id="clip1_12_340">
<rect width="48" height="48" fill="white" style="fill:white;fill-opacity:1;"/>
</clipPath>
</defs>
</svg>
