<svg width="48" height="48" viewBox="0 0 48 48" fill="none" xmlns="http://www.w3.org/2000/svg">
<g clip-path="url(#clip0_2_1850)">
<path fill-rule="evenodd" clip-rule="evenodd" d="M43.3718 11.8852L24.9589 1.2565C24.6681 1.0886 24.3382 1.00021 24.0024 1.00021C23.6666 1.00021 23.3368 1.0886 23.0459 1.2565L4.62736 11.8852C4.38336 12.0265 4.18075 12.2294 4.0398 12.4737C3.89886 12.7179 3.82452 12.9948 3.82422 13.2768V34.7182C3.82422 35.2932 4.13091 35.8242 4.62928 36.1117L23.044 46.7442C23.3349 46.9119 23.6648 47.0002 24.0005 47.0002C24.3363 47.0002 24.6661 46.9119 24.957 46.7442L43.3737 36.1117C43.6183 35.9705 43.8215 35.7673 43.9628 35.5227C44.1041 35.2781 44.1786 35.0007 44.1787 34.7182V13.2787C44.1782 12.9965 44.1036 12.7195 43.9623 12.4752C43.821 12.231 43.618 12.0282 43.3737 11.8871L43.3718 11.8852ZM42.2159 14.1394L24.4375 44.9309C24.3168 45.1379 24.0005 45.0536 24.0005 44.814V24.6511C24.0002 24.4529 23.9478 24.2583 23.8485 24.0867C23.7493 23.9151 23.6067 23.7726 23.4351 23.6735L5.97296 13.5911C5.76786 13.4723 5.8522 13.1541 6.0918 13.1541H41.6485C42.1546 13.1541 42.4689 13.7023 42.2159 14.1394Z" fill="white" style="fill:white;fill-opacity:1;"/>
</g>
<defs>
<clipPath id="clip0_2_1850">
<rect width="48" height="48" fill="white" style="fill:white;fill-opacity:1;"/>
</clipPath>
</defs>
</svg>
