<svg width="48" height="48" viewBox="0 0 48 48" fill="none" xmlns="http://www.w3.org/2000/svg">
<g clip-path="url(#clip0_6_1431)">
<g clip-path="url(#clip1_6_1431)">
<path d="M47.496 8.96351C46.988 8.71551 46.768 9.18951 46.472 9.43151C46.37 9.50951 46.284 9.61151 46.198 9.70351C45.454 10.4975 44.586 11.0175 43.452 10.9555C41.794 10.8635 40.378 11.3835 39.126 12.6515C38.86 11.0875 37.976 10.1555 36.632 9.55551C35.928 9.24351 35.216 8.93351 34.722 8.25551C34.378 7.77351 34.284 7.23551 34.112 6.70751C34.002 6.38751 33.892 6.06151 33.526 6.00751C33.126 5.94551 32.97 6.27951 32.814 6.55951C32.188 7.70351 31.946 8.96351 31.97 10.2395C32.024 13.1115 33.236 15.3995 35.646 17.0255C35.92 17.2115 35.99 17.3995 35.904 17.6715C35.74 18.2315 35.544 18.7755 35.372 19.3375C35.262 19.6955 35.098 19.7715 34.714 19.6175C33.4165 19.0599 32.2379 18.2588 31.242 17.2575C29.528 15.6015 27.98 13.7735 26.048 12.3415C25.6004 12.0107 25.1407 11.6965 24.67 11.3995C22.7 9.48551 24.93 7.91351 25.446 7.72751C25.986 7.53151 25.632 6.86351 23.888 6.87151C22.144 6.87951 20.548 7.46151 18.514 8.23951C18.2118 8.35533 17.9008 8.44696 17.584 8.51351C15.6833 8.15538 13.7393 8.0866 11.818 8.30951C8.04802 8.72951 5.03802 10.5135 2.82402 13.5555C0.164021 17.2115 -0.461979 21.3675 0.304021 25.6995C1.11002 30.2675 3.44202 34.0495 7.02402 37.0055C10.74 40.0715 15.018 41.5735 19.9 41.2855C22.864 41.1155 26.166 40.7175 29.888 37.5655C30.828 38.0335 31.812 38.2195 33.448 38.3595C34.708 38.4775 35.92 38.2995 36.858 38.1035C38.328 37.7915 38.226 36.4295 37.696 36.1815C33.386 34.1735 34.332 34.9915 33.47 34.3295C35.662 31.7375 38.962 29.0455 40.254 20.3235C40.354 19.6295 40.268 19.1935 40.254 18.6335C40.246 18.2935 40.324 18.1595 40.714 18.1215C41.7961 18.0093 42.8458 17.6865 43.804 17.1715C46.596 15.6455 47.724 13.1415 47.99 10.1375C48.03 9.67751 47.982 9.20551 47.496 8.96351ZM23.162 35.9995C18.984 32.7155 16.958 31.6335 16.122 31.6795C15.338 31.7275 15.48 32.6215 15.652 33.2055C15.832 33.7815 16.066 34.1775 16.394 34.6835C16.622 35.0175 16.778 35.5155 16.168 35.8895C14.822 36.7215 12.484 35.6095 12.374 35.5555C9.65202 33.9515 7.37402 31.8355 5.77202 28.9415C4.22402 26.1555 3.32402 23.1675 3.17602 19.9775C3.13602 19.2055 3.36202 18.9335 4.13002 18.7935C5.13824 18.6006 6.17128 18.5742 7.18802 18.7155C11.452 19.3395 15.08 21.2455 18.124 24.2635C19.86 25.9835 21.174 28.0375 22.528 30.0455C23.968 32.1775 25.516 34.2095 27.488 35.8735C28.184 36.4575 28.738 36.9015 29.27 37.2275C27.666 37.4075 24.99 37.4475 23.162 35.9995ZM25.162 23.1195C25.1617 23.0202 25.1855 22.9222 25.2315 22.8341C25.2775 22.7461 25.3442 22.6705 25.4259 22.614C25.5076 22.5575 25.6019 22.5217 25.7005 22.5098C25.7991 22.4979 25.8992 22.5101 25.992 22.5455C26.1103 22.588 26.2125 22.6663 26.2842 22.7695C26.3559 22.8728 26.3936 22.9958 26.392 23.1215C26.3923 23.2027 26.3764 23.2832 26.3453 23.3582C26.3141 23.4332 26.2684 23.5013 26.2107 23.5584C26.153 23.6156 26.0845 23.6607 26.0091 23.6911C25.9338 23.7215 25.8532 23.7366 25.772 23.7355C25.6914 23.7358 25.6116 23.72 25.5372 23.689C25.4627 23.6581 25.3953 23.6126 25.3386 23.5552C25.282 23.4978 25.2374 23.4298 25.2074 23.355C25.1774 23.2801 25.1607 23.2001 25.162 23.1195ZM31.382 26.3115C30.982 26.4735 30.584 26.6135 30.202 26.6315C29.6273 26.6516 29.0634 26.4721 28.606 26.1235C28.058 25.6635 27.666 25.4075 27.502 24.6075C27.4455 24.2166 27.4563 23.8188 27.534 23.4315C27.674 22.7775 27.518 22.3575 27.056 21.9775C26.682 21.6655 26.204 21.5795 25.68 21.5795C25.5006 21.5691 25.3264 21.5156 25.172 21.4235C24.952 21.3155 24.772 21.0435 24.944 20.7075C25 20.5995 25.264 20.3355 25.328 20.2875C26.04 19.8835 26.862 20.0155 27.62 20.3195C28.324 20.6075 28.856 21.1355 29.622 21.8835C30.404 22.7855 30.546 23.0355 30.992 23.7115C31.344 24.2415 31.664 24.7855 31.882 25.4075C32.016 25.7975 31.844 26.1155 31.382 26.3115Z" fill="#4D6BFE" style="fill:#4D6BFE;fill:color(display-p3 0.3020 0.4196 0.9961);fill-opacity:1;"/>
</g>
</g>
<defs>
<clipPath id="clip0_6_1431">
<rect width="48" height="48" fill="white" style="fill:white;fill-opacity:1;"/>
</clipPath>
<clipPath id="clip1_6_1431">
<rect width="48" height="48" fill="white" style="fill:white;fill-opacity:1;"/>
</clipPath>
</defs>
</svg>
