<svg width="48" height="48" viewBox="0 0 48 48" fill="none" xmlns="http://www.w3.org/2000/svg">
<path d="M14.4987 13.4334C17.6325 13.4334 18.794 11.511 18.794 9.13434C18.794 6.75768 17.6382 4.83334 14.5006 4.83334C11.3592 4.83334 10.2015 6.75576 10.2015 9.13434C10.2015 11.511 11.3592 13.4334 14.4968 13.4334H14.4987Z" fill="#0033FF" style="fill:#0033FF;fill:color(display-p3 0.0000 0.2000 1.0000);fill-opacity:1;"/>
<path d="M29.5257 14.3593V17.125H22.4743V23.2641H29.5277V38.6204H17.8686V17.1193H2.53525V23.2583H11.1219V38.6147H1V44.7538H47V38.6147H36.2667V23.2583H47V17.1193H36.2667V10.9783H47V4.83917H39.0247C36.5023 4.84374 34.0847 5.84858 32.3021 7.63328C30.5196 9.41798 29.5177 11.8368 29.5162 14.3593H29.5257Z" fill="#0033FF" style="fill:#0033FF;fill:color(display-p3 0.0000 0.2000 1.0000);fill-opacity:1;"/>
</svg>
