<svg width="48" height="48" viewBox="0 0 48 48" fill="none" xmlns="http://www.w3.org/2000/svg">
<g clip-path="url(#clip0_37_2029)">
<g clip-path="url(#clip1_37_2029)">
<path d="M10.62 31.5122C10.964 24.0122 14.386 19.5142 15.718 18.0342C9.19795 22.1502 4.86795 29.3502 3.00195 34.6502V36.8902C3.00195 43.0262 8.45195 48.0002 15.18 48.0002C16.6786 48.0021 18.1666 47.7485 19.58 47.2502C20.286 47.0102 20.98 46.7542 21.658 46.4942C23.484 44.6962 24.958 42.6742 26.144 40.5102C16.39 45.3722 10.196 40.6542 10.618 31.5102L10.62 31.5122Z" fill="#1E37FC" style="fill:#1E37FC;fill:color(display-p3 0.1176 0.2157 0.9882);fill-opacity:1;"/>
<path d="M45.14 20.5658C42.716 18.7638 36.922 15.7578 30.346 14.9658C30.936 22.5498 30.532 32.4978 26.146 40.5118C24.9514 42.7157 23.4393 44.732 21.658 46.4958C29.186 43.5998 35.15 39.5818 38.85 36.0578C44.49 30.6918 45.556 25.7018 45.572 22.7378C45.5769 21.9933 45.4299 21.2556 45.14 20.5698V20.5658Z" fill="#37E1BE" style="fill:#37E1BE;fill:color(display-p3 0.2157 0.8824 0.7451);fill-opacity:1;"/>
<path d="M28.606 3.734C25.91 1.4 22.496 0 18.78 0C15.064 0 11.766 1.354 9.09 3.614C5.582 6.58 3.254 11.114 3 16.25V34.652C4.864 29.352 9.194 22.152 15.714 18.038C16.714 17.402 17.764 16.848 18.852 16.38C22.618 14.778 26.608 14.516 30.344 14.968C29.9 9.308 28.908 4.964 28.604 3.734H28.606Z" fill="#A569FF" style="fill:#A569FF;fill:color(display-p3 0.6471 0.4118 1.0000);fill-opacity:1;"/>
<path d="M34.6101 9.92237C33.8873 9.19582 33.1672 8.46648 32.4501 7.73438C32.0461 7.30837 31.6541 6.89637 31.2781 6.49037L28.6121 3.73438C28.9141 4.96438 29.9081 9.30638 30.3501 14.9684C36.9261 15.7584 42.7201 18.7644 45.1421 20.5684C42.5301 18.0184 38.1921 13.5944 34.6101 9.92237Z" fill="#1E37FC" style="fill:#1E37FC;fill:color(display-p3 0.1176 0.2157 0.9882);fill-opacity:1;"/>
</g>
</g>
<defs>
<clipPath id="clip0_37_2029">
<rect width="48" height="48" fill="white" style="fill:white;fill-opacity:1;"/>
</clipPath>
<clipPath id="clip1_37_2029">
<rect width="48" height="48" fill="white" style="fill:white;fill-opacity:1;"/>
</clipPath>
</defs>
</svg>
