<svg width="48" height="48" viewBox="0 0 48 48" fill="none" xmlns="http://www.w3.org/2000/svg">
<g clip-path="url(#clip0_37_2034)">
<g clip-path="url(#clip1_37_2034)">
<path fill-rule="evenodd" clip-rule="evenodd" d="M10.62 31.5122C10.964 24.0122 14.386 19.5142 15.718 18.0342C9.19795 22.1502 4.86795 29.3502 3.00195 34.6502V36.8902C3.00195 43.0262 8.45195 48.0002 15.18 48.0002C16.6786 48.0021 18.1666 47.7485 19.58 47.2502C20.286 47.0102 20.98 46.7542 21.658 46.4942C23.484 44.6962 24.958 42.6742 26.144 40.5102C16.39 45.3722 10.196 40.6542 10.618 31.5102L10.62 31.5122Z" fill="white" fill-opacity="0.5" style="fill:white;fill-opacity:0.5;"/>
<path fill-rule="evenodd" clip-rule="evenodd" d="M45.14 20.566C42.716 18.764 36.922 15.758 30.346 14.966C30.936 22.55 30.532 32.498 26.146 40.512C24.9515 42.7159 23.4393 44.7322 21.658 46.496C29.186 43.6 35.15 39.582 38.85 36.058C44.49 30.692 45.556 25.702 45.572 22.738C45.5769 21.9935 45.4299 21.2558 45.14 20.57V20.566ZM28.606 3.734C25.91 1.4 22.496 0 18.78 0C15.064 0 11.766 1.354 9.09 3.614C5.582 6.58 3.254 11.114 3 16.25V34.652C4.864 29.352 9.194 22.152 15.714 18.038C16.714 17.402 17.764 16.848 18.852 16.38C22.618 14.778 26.608 14.516 30.344 14.968C29.9 9.308 28.908 4.964 28.604 3.734H28.606Z" fill="white" style="fill:white;fill-opacity:1;"/>
<path fill-rule="evenodd" clip-rule="evenodd" d="M34.6101 9.92189C33.8873 9.19533 33.1672 8.46599 32.4501 7.73389C32.0461 7.30789 31.6541 6.89589 31.2781 6.48989L28.6121 3.73389C28.9141 4.96389 29.9081 9.30589 30.3501 14.9679C36.9261 15.7579 42.7201 18.7639 45.1421 20.5679C42.5301 18.0179 38.1921 13.5939 34.6101 9.92189Z" fill="white" fill-opacity="0.5" style="fill:white;fill-opacity:0.5;"/>
</g>
</g>
<defs>
<clipPath id="clip0_37_2034">
<rect width="48" height="48" fill="white" style="fill:white;fill-opacity:1;"/>
</clipPath>
<clipPath id="clip1_37_2034">
<rect width="48" height="48" fill="white" style="fill:white;fill-opacity:1;"/>
</clipPath>
</defs>
</svg>
