<svg width="48" height="48" viewBox="0 0 48 48" fill="none" xmlns="http://www.w3.org/2000/svg">
<g clip-path="url(#clip0_3_2129)">
<path d="M46.0002 24.49C46.0002 22.68 45.8502 21.36 45.5282 19.99H24.4482V28.156H36.8202C36.5722 30.184 35.2262 33.24 32.2322 35.294L32.1902 35.566L38.8542 40.626L39.3142 40.67C43.5582 36.834 46.0002 31.186 46.0002 24.49Z" fill="white" style="fill:white;fill-opacity:1;"/>
<path d="M24.45 46C30.51 46 35.598 44.044 39.316 40.67L32.232 35.294C30.336 36.59 27.792 37.494 24.45 37.494C21.6329 37.4942 18.8865 36.6126 16.5959 34.9726C14.3053 33.3327 12.5856 31.0169 11.678 28.35L11.414 28.372L4.48404 33.628L4.39404 33.876C8.08604 41.062 15.67 46 24.45 46Z" fill="white" style="fill:white;fill-opacity:1;"/>
<path d="M11.68 28.35C11.1881 26.9521 10.9332 25.4819 10.926 24C10.926 22.484 11.202 21.018 11.648 19.65L11.636 19.356L4.62 14.016L4.39 14.124C2.82159 17.1799 2.00238 20.5651 2 24C2 27.544 2.872 30.894 4.394 33.876L11.68 28.35Z" fill="white" style="fill:white;fill-opacity:1;"/>
<path d="M24.45 10.506C28.666 10.506 31.508 12.29 33.13 13.782L39.464 7.72C35.574 4.176 30.51 2 24.45 2C15.668 2 8.08604 6.938 4.39404 14.124L11.654 19.65C12.5694 16.9833 14.2944 14.6689 16.5883 13.0297C18.8822 11.3904 21.6306 10.5082 24.45 10.506Z" fill="white" style="fill:white;fill-opacity:1;"/>
</g>
<defs>
<clipPath id="clip0_3_2129">
<rect width="48" height="48" fill="white" style="fill:white;fill-opacity:1;"/>
</clipPath>
</defs>
</svg>
