<svg width="48" height="48" viewBox="0 0 48 48" fill="none" xmlns="http://www.w3.org/2000/svg">
<g clip-path="url(#clip0_6_1459)">
<path fill-rule="evenodd" clip-rule="evenodd" d="M18.54 30.58L34.496 18.786C35.278 18.206 36.396 18.432 36.77 19.33C38.73 24.068 37.854 29.76 33.95 33.668C30.048 37.576 24.616 38.432 19.652 36.48L14.23 38.994C22.008 44.316 31.452 43 37.354 37.088C42.036 32.4 43.486 26.01 42.13 20.248L42.142 20.262C40.176 11.798 42.626 8.414 47.642 1.496C47.762 1.332 47.882 1.168 48 1L41.398 7.61V7.59L18.534 30.584M15.246 33.446C9.662 28.106 10.626 19.844 15.388 15.078C18.91 11.552 24.682 10.112 29.72 12.228L35.13 9.728C34.0055 8.90083 32.7752 8.22817 31.472 7.728C28.1956 6.38699 24.5958 6.04479 21.1254 6.74442C17.655 7.44405 14.4689 9.15428 11.968 11.66C6.902 16.732 5.308 24.532 8.044 31.188C10.088 36.162 6.738 39.68 3.364 43.232C2.166 44.492 0.966 45.75 0 47.082L15.24 33.452" fill="black" style="fill:black;fill-opacity:1;"/>
</g>
<defs>
<clipPath id="clip0_6_1459">
<rect width="48" height="48" fill="white" style="fill:white;fill-opacity:1;"/>
</clipPath>
</defs>
</svg>
