<svg width="48" height="48" viewBox="0 0 48 48" fill="none" xmlns="http://www.w3.org/2000/svg">
<g clip-path="url(#clip0_7_1515)">
<path d="M7.0832 37.4387C7.40948 37.4388 7.7115 37.5386 7.96286 37.7081L7.96483 37.7044C9.20052 38.5939 10.5109 39.3843 11.8866 40.0646C12.1805 40.2107 12.48 40.353 12.7798 40.4883C13.1643 40.6627 13.5532 40.8273 13.9465 40.9831C14.9092 41.3657 15.8984 41.6956 16.9094 41.9706C19.252 42.6079 21.7161 42.9486 24.2599 42.9486C26.4119 42.9486 28.5079 42.7065 30.5207 42.246C32.3199 41.8338 34.0533 41.2463 35.7016 40.5056C36.2629 40.2531 36.8157 39.9832 37.3573 39.695C38.4687 39.1043 39.5353 38.4391 40.5512 37.7081C40.7396 37.5812 40.9563 37.4937 41.1903 37.458L41.431 37.4406C42.299 37.4406 43.0038 38.1446 43.004 39.0134C43.004 39.2886 42.9319 39.5471 42.8077 39.772C42.8678 39.7425 42.9275 39.7111 42.9867 39.6796C42.878 39.7852 42.7688 39.8919 42.6594 39.9954C42.5618 40.1166 42.4487 40.2233 42.3205 40.311C37.5503 44.6474 31.2072 47.2901 24.2599 47.2901C17.313 47.2901 10.9821 44.6527 6.21479 40.3246C6.08961 40.2113 5.9656 40.0953 5.84337 39.98C5.63539 39.7129 5.5104 39.3781 5.5102 39.0134C5.5102 38.1444 6.21499 37.4387 7.0832 37.4387ZM12.1831 1.71423C13.0215 1.79709 13.821 2.01809 14.5569 2.3515C14.6287 2.38395 14.7016 2.41719 14.7724 2.45161C15.4915 2.26915 16.244 2.17245 17.0192 2.17245C19.2278 2.17245 21.2532 2.95728 22.8314 4.26323C24.3575 5.52674 25.4648 7.27895 25.9157 9.27837C25.9795 9.55812 26.0294 9.84279 26.0659 10.1314L27.7408 19.6343L27.9372 20.747L32.0456 21.5286C32.8021 21.6718 33.5045 21.9645 34.121 22.3758C34.2868 22.0818 34.4813 21.8052 34.7043 21.5537C35.5733 20.5693 36.8457 19.9479 38.2621 19.9479C39.9063 19.9481 41.3557 20.7858 42.207 22.0562C42.6809 22.7641 42.9713 23.6059 43.0058 24.5108H43.0174C43.114 26.2881 44.0199 27.8504 45.3739 28.8349C45.1974 28.9816 45.007 29.1123 44.8059 29.2257C44.5291 29.3822 44.2316 29.5066 43.9184 29.5914C43.5958 29.6793 43.254 29.7262 42.9039 29.7262C41.9927 29.726 41.157 29.4096 40.4954 28.883C40.2734 28.7054 40.0703 28.5051 39.8927 28.2843C39.4925 27.7863 39.2102 27.1878 39.0957 26.5323L39.0765 26.5361C38.7658 24.8178 37.2632 23.5135 35.4552 23.5135C35.4276 23.5135 35.3998 23.5154 35.3724 23.5154C36.1574 24.483 36.6294 25.7165 36.6296 27.0599C36.6296 27.7443 36.505 28.4016 36.2811 29.0082C36.0265 29.7006 35.6392 30.3285 35.151 30.8622C35.1648 30.8631 35.1794 30.8649 35.1932 30.8659C34.507 31.8473 34.1016 33.0424 34.1016 34.3313C34.1018 34.9976 34.2097 35.6379 34.4098 36.2373L35.4994 39.8452C33.8128 40.6095 32.0498 41.2005 30.2319 41.6049L27.0938 34.5856C28.0695 34.4651 28.9515 34.0405 29.6391 33.4092C29.2592 33.4901 28.8643 33.5342 28.4608 33.5342C27.7558 33.5342 27.0816 33.4023 26.4606 33.1666C26.3979 33.1421 26.3364 33.1189 26.2757 33.0934L25.5383 32.8433L22.2289 31.663L19.7703 30.7851L14.6878 34.0638L15.8525 38.2164H15.8486C15.8939 38.3938 15.918 38.5807 15.918 38.7729C15.9178 39.5469 15.5231 40.2264 14.9246 40.6249C14.1062 40.3282 13.3039 39.9907 12.518 39.6161L11.8635 37.5041L10.5677 33.3148C10.4829 33.0881 10.435 32.8434 10.435 32.5872C10.435 31.9135 10.7572 31.316 11.2551 30.9373C11.3113 30.8949 11.3711 30.8543 11.4322 30.8178L14.3335 28.8444L9.195 27.0118L8.34038 30.404H8.33644C7.94078 31.9435 6.54362 33.08 4.88072 33.08C4.67846 33.08 4.4791 33.0635 4.28577 33.0299L4.28963 33.0049L5.82602 26.8962L6.02041 26.1299L6.4555 24.403H6.46122C6.70095 23.4699 7.54964 22.7801 8.55783 22.7801C8.72895 22.7801 8.89317 22.8004 9.05266 22.8379L9.06035 22.8396C9.071 22.8426 9.08046 22.8455 9.0911 22.8493C9.16405 22.866 9.23679 22.8873 9.30678 22.913C9.57391 22.9928 10.0175 23.1288 10.4869 23.273C11.3549 23.5403 12.3049 23.8415 12.3564 23.8928L12.493 23.4904L13.032 21.9022L13.7445 19.8056L15.0535 15.957L15.941 13.3464C16.0861 13.2262 16.2247 13.0994 16.357 12.9671C16.7337 12.5914 17.059 12.1649 17.3254 11.7005C17.6863 11.071 17.9387 10.3698 18.053 9.62298C17.8103 10.2365 17.445 10.7893 16.9865 11.248C16.8741 11.3604 16.7546 11.4678 16.6302 11.5694C16.578 11.6119 16.5248 11.6541 16.4706 11.6946L14.4625 12.5707L10.6852 14.2146L10.6641 14.2243C10.467 14.3069 10.2523 14.355 10.0287 14.3668C9.99343 14.3688 9.95794 14.3725 9.92285 14.3725C9.16247 14.3725 8.50756 13.9298 8.19391 13.2906C8.06793 13.0353 7.99558 12.7481 7.99558 12.4435C7.99578 11.9564 8.17715 11.5112 8.477 11.1709L9.30678 9.95043L12.8433 4.75031L12.5391 3.34875L12.5104 3.21977L12.3968 2.69417L12.1831 1.71423Z" fill="white" style="fill:white;fill-opacity:1;"/>
</g>
<defs>
<clipPath id="clip0_7_1515">
<rect width="48" height="48" fill="white" style="fill:white;fill-opacity:1;"/>
</clipPath>
</defs>
</svg>
