<svg width="48" height="48" viewBox="0 0 48 48" fill="none" xmlns="http://www.w3.org/2000/svg">
<g clip-path="url(#clip0_2_1967)">
<path fill-rule="evenodd" clip-rule="evenodd" d="M11.876 25.6689C12.13 25.5909 12.446 25.7089 12.622 25.9549C12.678 26.0309 12.694 26.1389 12.714 26.2349C12.72 26.2629 12.674 26.3009 12.634 26.3349C12.386 26.1389 12.154 25.9469 11.926 25.7529C11.904 25.7329 11.894 25.6989 11.876 25.6689ZM16.792 18.8229C17.182 18.7589 17.572 18.7029 17.968 18.7229C18.0686 18.7263 18.1682 18.7438 18.264 18.7749C18.668 18.9169 19.068 19.0689 19.466 19.2229C19.522 19.2429 19.566 19.2949 19.616 19.3329L19.59 19.3869C19.4158 19.3301 19.2424 19.2708 19.07 19.2089C18.84 19.1329 18.644 19.0549 18.44 19.0129C17.94 18.9129 17.94 18.9209 17.856 18.9849L19.004 19.2729C19.554 19.5509 20.104 19.8249 20.65 20.1069C20.734 20.1509 20.83 20.2209 20.864 20.3029C20.916 20.4229 20.99 20.4549 21.098 20.4469C21.23 20.4349 21.362 20.4129 21.524 20.3929L21.444 20.5649C21.546 20.7249 21.728 20.6049 21.876 20.6929C21.728 20.9529 21.382 20.8729 21.208 21.0909L21.33 21.2389L21.09 21.4129C21.09 21.6249 21.014 21.7489 20.478 21.8989L20.53 22.0689L20.138 22.1529L20.278 22.4009H19.778L19.764 22.6749C19.602 22.6549 19.442 22.6389 19.276 22.6209L19.17 22.8669C19.116 22.8509 19.066 22.8449 19.024 22.8209C18.89 22.7449 18.768 22.7089 18.634 22.8329C18.596 22.8669 18.508 22.8609 18.448 22.8489C18.396 22.8369 18.348 22.7909 18.308 22.7649C18.088 22.9549 18.088 22.9549 17.892 22.7709C17.778 22.8629 17.652 22.9189 17.52 22.7929C17.394 22.8469 17.274 22.7529 17.164 22.7649C17.024 22.7789 16.97 22.6949 16.898 22.6249L16.638 22.6909C16.612 22.2189 16.25 22.3109 15.958 22.2849C15.968 22.1409 16.058 22.1009 16.148 22.0969C16.2557 22.0933 16.3632 22.1082 16.466 22.1409C16.794 22.2409 17.106 22.3809 17.458 22.4169C17.864 22.4589 18.268 22.4749 18.66 22.3869C19.19 22.2689 19.7 22.0889 20.074 21.6569C20.172 21.5449 20.24 21.4029 20.308 21.2669C20.346 21.1909 20.348 21.0989 20.268 21.0349C20.0378 20.8508 19.7799 20.7043 19.504 20.6009C19.552 20.8409 19.442 20.9649 19.274 21.0429C19.274 21.0709 19.266 21.0929 19.274 21.1029C19.434 21.3329 19.442 21.4229 19.26 21.6369C19.1305 21.793 18.9843 21.9345 18.824 22.0589C18.6363 22.205 18.4008 22.2758 18.1636 22.2573C17.9264 22.2388 17.7047 22.1324 17.542 21.9589C17.4459 21.8643 17.357 21.7627 17.276 21.6549C17.12 21.4409 17.124 21.4389 17.21 21.1829C16.88 21.0229 16.954 20.7309 17.002 20.4549C17.018 20.3549 17.058 20.2629 17.1 20.1289C17.02 20.1569 16.966 20.1629 16.926 20.1929C16.6548 20.3695 16.4364 20.6162 16.294 20.9069C16.28 20.9389 16.274 20.9749 16.254 21.0009C16.23 21.0309 16.186 21.0769 16.164 21.0709C16.124 21.0589 16.09 21.0169 16.064 20.9809C16.048 20.9569 16.05 20.9169 16.04 20.8669H15.788L15.894 20.5229C15.868 20.4901 15.842 20.4575 15.816 20.4249L16.036 19.8569C15.916 19.9089 15.854 19.9449 15.788 19.9589C15.728 19.9729 15.66 19.9589 15.598 19.9589C15.598 19.8969 15.578 19.8189 15.606 19.7749C15.904 19.3349 16.216 18.9189 16.792 18.8229Z" fill="white" style="fill:white;fill-opacity:1;"/>
<path fill-rule="evenodd" clip-rule="evenodd" d="M16.1197 21.5766C16.1137 21.5006 16.1117 21.4266 16.1937 21.4526C16.2257 21.4646 16.2617 21.5486 16.2497 21.5866C16.2297 21.6666 16.1717 21.6506 16.1197 21.5766Z" fill="white" style="fill:white;fill-opacity:1;"/>
<path fill-rule="evenodd" clip-rule="evenodd" d="M23.9617 0.0172581C24.4137 -0.00674186 24.8677 -0.00474185 25.3197 0.0172581C25.8137 0.0372581 26.3097 0.0652582 26.7997 0.141258C27.6017 0.269258 28.3957 0.455258 29.1797 0.687258C30.1057 0.963258 31.0197 1.28526 31.8917 1.70926C34.3056 2.89479 36.3457 4.72317 37.7877 6.99326C38.3717 7.93126 38.8597 8.91926 39.2657 9.95126C39.7037 11.0633 40.1577 12.1713 40.5117 13.3173C40.9197 14.6253 41.1697 15.9693 41.4277 17.3113C41.6217 18.3193 41.7917 19.3313 42.0077 20.3333C42.3197 21.7773 42.6657 23.2133 42.9957 24.6533C43.3677 26.2773 43.7957 27.8833 44.2557 29.4833C44.4597 30.1933 44.6417 30.9093 44.8197 31.6273C45.0397 32.4993 45.2237 33.3793 45.3277 34.2733C45.3897 34.8293 45.4597 35.3873 45.4737 35.9473C45.4965 36.5341 45.4852 37.1217 45.4397 37.7073C45.3657 38.5333 45.2397 39.3433 44.9877 40.1313C44.5916 41.3364 43.9707 42.4555 43.1577 43.4293L42.8977 43.7413L42.9337 43.7873C43.0197 43.7413 43.1097 43.7053 43.1877 43.6513C43.5877 43.3753 43.9337 43.0373 44.2497 42.6713C45.0497 41.7513 45.6917 40.7253 46.1997 39.6133C46.6969 38.5378 46.9202 37.356 46.8497 36.1733C46.8017 35.3253 46.6557 34.5053 46.2497 33.7473C46.2237 33.6933 46.2197 33.6273 46.1897 33.5053C46.2897 33.5753 46.3537 33.6013 46.3917 33.6493C46.6057 33.9093 46.8317 34.1653 47.0217 34.4453C47.6817 35.4333 47.9417 36.5493 47.9937 37.7253C48.0476 39.1 47.7224 40.463 47.0537 41.6653C46.3337 42.9753 45.2797 43.9453 44.0017 44.6773C43.6157 44.8993 43.2137 45.0973 42.8117 45.2933C42.4977 45.4493 42.3157 45.7153 42.1757 46.0233C42.1108 46.1473 42.0715 46.2831 42.0602 46.4226C42.0489 46.562 42.0657 46.7024 42.1097 46.8353C42.1364 46.9253 42.1453 47.0198 42.1357 47.1133C42.1257 47.2673 41.9817 47.4233 41.8557 47.4373C41.7477 47.4493 41.6057 47.3513 41.5557 47.2053C41.5002 47.0543 41.46 46.8982 41.4357 46.7393C41.3557 46.1113 41.1257 45.5393 40.8197 44.9993C40.4269 44.3229 39.9347 43.7094 39.3597 43.1793C38.8574 42.6872 38.241 42.3271 37.5657 42.1313C37.1127 42.0043 36.6497 41.9167 36.1817 41.8693C36.0317 41.8533 35.8817 41.7893 35.7417 41.8893C36.1017 42.0093 36.4677 42.1093 36.8177 42.2493C37.6857 42.5953 38.4577 43.1093 39.1777 43.7053C39.7937 44.2153 40.3377 44.7913 40.7657 45.4733C40.9617 45.7833 41.1377 46.1033 41.2197 46.4653C41.2737 46.7113 41.3037 46.9653 41.3537 47.2153C41.3797 47.3393 41.3497 47.4333 41.2477 47.5033C41.1537 47.5693 41.0037 47.5713 40.9217 47.4833C40.8521 47.4002 40.7979 47.3054 40.7617 47.2033C40.7017 47.0573 40.6857 46.8853 40.6057 46.7533C39.8294 45.5074 38.8699 44.3855 37.7597 43.4253C37.4397 43.1513 37.1017 42.9053 36.6857 42.7793C35.9337 42.5513 35.1797 42.3733 34.3857 42.4713C33.9597 42.5213 33.5317 42.5353 33.1057 42.5773C32.5764 42.6372 32.0704 42.8283 31.6337 43.1333C31.0277 43.5521 30.4685 44.0349 29.9657 44.5733C29.3077 45.2573 28.6817 45.9713 28.0557 46.6833C27.7837 46.9933 27.5277 47.3213 27.4277 47.7453C27.4195 47.7792 27.4115 47.8132 27.4037 47.8473C27.3948 47.889 27.3723 47.9266 27.3397 47.9541C27.3071 47.9816 27.2663 47.9975 27.2237 47.9993H26.6037C26.5117 47.9993 26.4397 47.9033 26.4597 47.8113C26.5057 47.5953 26.5497 47.3793 26.5997 47.1633C26.7497 46.5133 26.9797 45.8933 27.3357 45.3293C27.3837 45.2513 27.4157 45.1533 27.5437 45.1693L27.5637 45.2673L27.6177 45.4213C28.1777 44.5513 28.7597 43.7533 29.6097 43.1513C30.1757 42.7433 30.7777 42.3953 31.3897 42.0513C31.3257 42.0333 31.2583 42.032 31.1937 42.0473C30.8697 42.1333 30.5437 42.2153 30.2237 42.3153C29.4197 42.5633 28.6957 42.9753 28.0037 43.4473C27.7097 43.6473 27.4077 43.8333 27.1757 44.1133C26.2987 45.1841 25.5782 46.374 25.0357 47.6473C25.003 47.7251 24.9763 47.8054 24.9557 47.8873C24.9473 47.9192 24.9287 47.9474 24.9027 47.9677C24.8766 47.9879 24.8446 47.999 24.8117 47.9993H23.8237C23.7437 47.9993 23.6997 47.8973 23.7517 47.8353C23.9977 47.5553 24.2437 47.2713 24.5057 47.0053C25.0557 46.4433 25.6657 45.9413 26.0597 45.2373C26.1137 45.1413 26.1857 45.0573 26.2497 44.9673C26.7257 44.3013 27.3297 43.7533 27.8857 43.1633C28.0497 42.9913 28.2357 42.8433 28.4057 42.6833C28.4637 42.6293 28.5117 42.5693 28.5637 42.5133L28.5277 42.4633L28.2577 42.5453C28.1897 42.5793 28.1177 42.6073 28.0537 42.6453C27.5577 42.9333 27.0657 43.2293 26.5677 43.5113C25.7517 43.9713 24.9177 44.3893 24.1497 44.9333C23.5877 45.3333 22.9677 45.6493 22.3717 45.9993C22.3317 46.0233 22.2837 46.0293 22.2117 46.0553C22.1817 45.7853 22.4977 45.6533 22.4277 45.3833C22.3617 45.4113 22.2997 45.4233 22.2577 45.4593C22.0357 45.6513 21.8037 45.8393 21.6017 46.0513C21.3057 46.3653 21.0337 46.7013 20.7517 47.0273C20.5017 47.3133 20.2517 47.5993 20.0057 47.8893C19.9779 47.9226 19.9434 47.9496 19.9045 47.9685C19.8655 47.9875 19.823 47.998 19.7797 47.9993H17.5237C17.5363 47.9721 17.547 47.944 17.5557 47.9153C17.6117 47.7353 17.7257 47.5713 17.7217 47.3553C17.5397 47.3193 17.3977 47.3573 17.2977 47.5093C17.2029 47.65 17.1122 47.7934 17.0257 47.9393C17.0057 47.9713 16.9777 47.9993 16.9417 47.9993H16.7557C16.7177 47.9993 16.6977 47.9553 16.7217 47.9253C16.8637 47.7493 17.0017 47.5693 17.1397 47.3893C17.1417 47.3853 17.1277 47.3653 17.1157 47.3413C17.0877 47.3493 17.0557 47.3533 17.0257 47.3673C16.6737 47.5473 16.3217 47.7293 15.9717 47.9153C15.8681 47.97 15.7528 47.9988 15.6357 47.9993H10.4037C10.3517 47.9993 10.3257 47.9273 10.3657 47.8933C10.7857 47.5373 11.1697 47.1453 11.4817 46.6833C12.1517 45.6913 12.5577 44.5893 12.8157 43.4253C12.8237 43.3853 12.8097 43.3393 12.8037 43.2433C12.7297 43.3393 12.6857 43.3873 12.6517 43.4433C12.4682 43.7493 12.2434 44.0286 11.9837 44.2733C11.4237 44.7893 10.8037 45.1693 10.0177 45.2013C9.42367 45.2253 8.84167 45.2013 8.28767 44.9473C7.36767 44.5273 6.84367 43.8073 6.69967 42.8033C6.64967 42.4633 6.66567 42.4613 6.33567 42.3653C5.46994 42.133 4.65665 41.7372 3.93967 41.1993C3.17961 40.6318 2.61486 39.842 2.32367 38.9393C2.07074 38.1347 1.9624 37.2916 2.00367 36.4493C2.00767 36.3813 2.03567 36.3153 2.05167 36.2493C2.11567 36.2953 2.14367 36.3353 2.15167 36.3813C2.21767 36.6873 2.26967 36.9973 2.34367 37.3013C2.51567 38.0113 2.85767 38.6293 3.37567 39.1413C3.89167 39.6533 4.51767 39.9793 5.19567 40.2053C5.91167 40.4413 6.62967 40.4813 7.33567 40.1733C7.80718 39.9601 8.22991 39.6524 8.57767 39.2693C9.23367 38.5733 9.64367 37.7493 9.87367 36.8233C9.89167 36.7553 9.88367 36.6813 9.88767 36.6033C9.85767 36.6153 9.83567 36.6153 9.82767 36.6253C9.76567 36.7253 9.69967 36.8253 9.64167 36.9293C9.07367 37.9333 8.28367 38.7033 7.24967 39.1993C6.54767 39.5393 5.81367 39.7093 5.02967 39.5173C4.24524 39.348 3.55251 38.8914 3.08767 38.2373C2.6911 37.6928 2.43798 37.0573 2.35167 36.3893C2.27423 35.8 2.28773 35.2024 2.39167 34.6173C2.49167 33.7393 3.32367 32.2773 3.87567 32.0753C3.83567 32.2013 3.80567 32.2993 3.76967 32.3953C3.68367 32.6273 3.57567 32.8493 3.50967 33.0853C3.3572 33.6181 3.32307 34.1778 3.40967 34.7253C3.47567 35.1493 3.58967 35.5573 3.81767 35.9253C4.11167 36.3973 4.50967 36.7393 5.05767 36.8553C5.27767 36.9013 5.50767 36.8833 5.73367 36.8913C6.01434 36.9009 6.28887 36.8078 6.50567 36.6293C6.83367 36.3733 7.06967 36.0453 7.23767 35.6673C7.57367 34.9173 7.71767 34.1133 7.85567 33.3093C7.95567 32.7173 8.04167 32.1213 8.12167 31.5233C8.19967 30.9613 8.26367 30.3973 8.32967 29.8333C8.38167 29.3693 8.42567 28.9053 8.47767 28.4413C8.52567 27.9853 8.58167 27.5313 8.62967 27.0753C8.67767 26.6213 8.72367 26.1653 8.76767 25.7093C8.79367 25.4293 8.81167 25.1493 8.83567 24.8693L8.90967 24.0353C8.95367 23.5353 8.99167 23.0353 9.03967 22.5393C9.05567 22.3753 8.99967 22.2753 8.85967 22.1853C8.49637 21.951 8.16552 21.6699 7.87567 21.3493C7.67567 21.1313 7.49967 20.8933 7.31167 20.6653C7.24167 20.5813 7.19967 20.4713 7.07967 20.4293C7.19869 20.8538 7.38433 21.2569 7.62967 21.6233C7.74967 21.8073 7.89167 21.9753 8.02167 22.1533C8.14767 22.3253 8.38567 22.3833 8.48967 22.6053C8.43367 22.6113 8.39767 22.6253 8.36967 22.6173C8.22211 22.5828 8.0754 22.5448 7.92967 22.5033C6.93253 22.215 6.03912 21.6465 5.35567 20.8653C4.48567 19.8913 4.04367 18.7133 3.93567 17.4193C3.87284 16.7135 3.88223 16.0031 3.96367 15.2993C4.10767 14.0953 4.40367 12.9273 4.86367 11.8093C5.17367 11.0573 5.53967 10.3273 5.91567 9.60526C6.32567 8.81926 6.84767 8.10526 7.44567 7.45326C8.46967 6.33526 9.65367 5.40526 10.8977 4.55726C12.3317 3.57726 13.8537 2.76126 15.4517 2.09126C16.4877 1.65526 17.5337 1.26326 18.6197 0.987258C19.9297 0.655258 21.2397 0.327258 22.5837 0.157258C23.0417 0.0972582 23.4997 0.0412581 23.9597 0.0172581H23.9617ZM20.2677 45.6573C20.1277 45.7773 19.9737 45.8793 19.8537 46.0173C19.3777 46.5573 18.9257 47.1153 18.5177 47.7553L18.4297 47.9713C18.5021 47.9538 18.5672 47.9139 18.6157 47.8573C18.9637 47.4773 19.3177 47.1013 19.6537 46.7093C19.8617 46.4653 20.0437 46.1993 20.2297 45.9373C20.2777 45.8693 20.2897 45.7773 20.3217 45.6973L20.2677 45.6573ZM23.5677 38.2673C23.1013 38.6271 22.6646 39.0237 22.2617 39.4533L21.5217 40.2253C21.3136 40.4494 21.0551 40.6208 20.7677 40.7253C20.4692 40.8392 20.1531 40.9001 19.8337 40.9053C19.7457 40.9053 19.6597 40.9173 19.5317 40.9293C19.5877 41.0453 19.6177 41.1233 19.6597 41.1913C19.9597 41.6753 20.2617 42.1553 20.5597 42.6393C20.8317 43.0793 21.1117 43.5153 21.3577 43.9713C21.4937 44.2213 21.5677 44.5053 21.6697 44.7793C21.8237 44.8333 21.9497 44.7433 22.0737 44.6833C22.6537 44.4133 23.2317 44.1353 23.8077 43.8593C24.2337 43.6573 24.6817 43.4873 25.0797 43.2393C25.7737 42.8093 26.4397 42.3293 27.1157 41.8693C27.1457 41.8493 27.1677 41.8133 27.1997 41.7773C27.1537 41.7393 27.1237 41.7033 27.0877 41.6893C26.5137 41.4673 26.0337 41.0893 25.5477 40.7253C25.1933 40.4664 24.8554 40.1859 24.5357 39.8853C24.169 39.516 23.8889 39.0699 23.7157 38.5793C23.6777 38.4813 23.6257 38.3893 23.5657 38.2673H23.5677ZM11.8737 38.7953C11.7537 38.9873 11.6797 39.1833 11.6097 39.3813C11.358 40.1132 10.9826 40.7964 10.4997 41.4013C10.0997 41.9013 9.58967 42.2253 8.97567 42.3873C8.51567 42.5073 8.04767 42.5393 7.57567 42.5273C7.47967 42.5233 7.38167 42.5313 7.25967 42.5373C7.29167 42.6173 7.30167 42.6693 7.32967 42.7073C7.52967 42.9973 7.78967 43.1993 8.12967 43.2973C8.44367 43.3893 8.76167 43.3653 9.12567 43.3433C9.48767 43.2693 9.81167 43.1133 10.0957 42.8753C10.5717 42.4773 10.8997 41.9673 11.1677 41.4113C11.5177 40.6853 11.6957 39.9093 11.8517 39.1233C11.8717 39.0173 11.8677 38.9033 11.8737 38.7953ZM41.7637 29.6233C41.7797 29.6813 41.7957 29.7373 41.8177 29.8373C41.8657 30.1473 41.9197 30.4573 41.9617 30.7653C42.0217 31.2033 42.0957 31.6393 42.1177 32.0793C42.1517 32.7673 42.1717 33.4573 42.0897 34.1453C42.0157 34.7753 41.9637 35.4113 41.8577 36.0373C41.6833 37.0847 41.374 38.1052 40.9377 39.0733C40.9217 39.1093 40.9177 39.1513 40.8977 39.2373C40.9917 39.1773 41.0517 39.1533 41.0937 39.1093C41.2637 38.9433 41.4337 38.7753 41.5897 38.5993C42.1317 37.9893 42.5057 37.2793 42.7817 36.5133C43.1417 35.5173 43.2377 34.4913 43.0717 33.4513C42.8657 32.1513 42.4117 30.9253 41.8777 29.6893C41.8618 29.6525 41.8458 29.6159 41.8297 29.5793L41.7637 29.6233ZM11.5937 16.5793C11.5745 16.6826 11.587 16.7892 11.6297 16.8853C11.8777 17.3873 12.1297 17.8873 12.3877 18.3853C12.4377 18.4833 12.5197 18.5653 12.4477 18.7113C11.8797 18.8313 11.2917 18.9493 10.6877 19.2213C10.8057 19.2973 10.8817 19.3413 10.9517 19.3953C11.0357 19.4593 11.1757 19.5113 11.1317 19.6353C11.1117 19.7013 10.9817 19.7313 10.8977 19.7793C10.9317 19.7993 10.9837 19.8213 11.0317 19.8513C11.3637 20.0553 11.6917 20.2653 11.9257 20.5873C12.2017 20.9713 12.3837 21.3953 12.3017 21.8753C12.1437 22.8133 11.6897 23.5753 10.9217 24.1393C10.8137 24.2193 10.7097 24.3053 10.5997 24.3833C10.5215 24.4361 10.4603 24.5106 10.4237 24.5976C10.3872 24.6846 10.3767 24.7804 10.3937 24.8733C10.413 25.0075 10.45 25.1387 10.5037 25.2633C10.6697 25.6553 10.9437 25.9633 11.2537 26.2473C11.4197 26.3993 11.5717 26.5753 11.6977 26.7613C11.773 26.8708 11.8174 26.9987 11.8262 27.1314C11.835 27.2641 11.8078 27.3967 11.7477 27.5153C11.7017 27.6153 11.6477 27.7133 11.5957 27.8113C11.5357 27.9313 11.5397 28.0333 11.6397 28.1353C11.7217 28.2193 11.7997 28.3133 11.8637 28.4113C11.9397 28.5273 12.0197 28.5693 12.1577 28.5113C12.3713 28.4289 12.6072 28.4247 12.8237 28.4993C13.1437 28.5913 13.4277 28.7513 13.7117 28.9193C13.9717 29.0733 14.2397 29.2173 14.5117 29.3573C14.6457 29.4273 14.7917 29.4573 14.9497 29.4093C15.0917 29.3653 15.1977 29.4293 15.2397 29.5613C15.2797 29.6893 15.2337 29.7773 15.0917 29.8393C14.9517 29.8993 14.8177 29.9653 14.6737 30.0153C14.4737 30.0853 14.2717 30.1613 14.0457 30.1693C14.0197 29.9553 14.2657 29.9933 14.2997 29.8513C13.8877 29.5993 13.0137 29.5613 12.6977 29.7833C12.8237 30.0073 12.7677 30.2033 12.5057 30.4093C12.2457 30.2093 12.4557 30.0053 12.5097 29.8093C12.4545 29.7977 12.3977 29.7974 12.3424 29.8084C12.2872 29.8194 12.2347 29.8414 12.1882 29.8732C12.1417 29.9049 12.1021 29.9457 12.0718 29.9932C12.0414 30.0406 12.021 30.0937 12.0117 30.1493C11.9817 30.3513 12.1457 30.5813 12.3677 30.5973C12.5837 30.6113 12.8037 30.5873 13.0197 30.5733C13.1397 30.5633 13.2597 30.5193 13.4177 30.5733C13.2117 30.8193 12.9217 30.8273 12.7037 30.9533C12.7077 31.0533 12.8437 31.1253 12.7417 31.2153C12.6357 31.3113 12.5517 31.2133 12.4777 31.1553C12.3177 31.0293 12.1577 30.9033 12.0157 30.7613C11.8358 30.6013 11.7236 30.3789 11.7017 30.1393C11.6929 30.0205 11.6638 29.9042 11.6157 29.7953C11.5517 29.6473 11.5517 29.5213 11.6817 29.4153C11.6457 29.3553 11.6257 29.3093 11.5917 29.2713C11.4196 29.0496 11.287 28.7999 11.1997 28.5333C11.0937 28.2593 11.1077 28.0053 11.2957 27.7713C11.3437 27.7113 11.3957 27.6513 11.4237 27.5813C11.4696 27.4739 11.5012 27.3609 11.5177 27.2453C11.5517 26.9153 11.3897 26.6713 11.1537 26.4713C10.7817 26.1593 10.4337 25.8273 10.2337 25.3693C10.2237 25.3473 10.1857 25.3353 10.1597 25.3173C10.1377 25.3513 10.1117 25.3713 10.1097 25.3933C10.0717 25.7633 10.0197 26.1333 10.0057 26.5073C9.97767 27.2613 10.1217 27.9933 10.3297 28.7153C10.5657 29.5353 10.9077 30.3113 11.3057 31.0613C11.8397 32.0653 12.3797 33.0653 12.9297 34.0613C13.0397 34.2573 13.1897 34.4393 13.3457 34.6013C13.7417 35.0053 14.2497 35.1453 14.7937 35.1473C15.1977 35.1473 15.6017 35.1353 16.0037 35.0953C16.5937 35.0353 17.1837 34.9493 17.7717 34.8693C18.1377 34.8193 18.5017 34.7553 18.8677 34.7093C19.2877 34.6573 19.6277 34.8553 19.9117 35.1293C20.2317 35.4413 20.5217 35.7833 20.8057 36.1293C21.2457 36.6593 21.5997 37.2493 21.9137 37.8633C22.0137 38.0593 22.0537 38.0633 22.2077 37.9233C22.4677 37.6813 22.7277 37.4393 22.9957 37.2033C23.1297 37.0853 23.1717 36.9633 23.1297 36.7773C23.0129 36.2547 22.9559 35.7207 22.9597 35.1853C22.9637 34.8713 22.9717 34.5573 22.9957 34.2433C23.0257 33.7953 23.0557 33.3433 23.1157 32.8993C23.3268 31.3627 23.5682 29.8304 23.8397 28.3033C24.0137 27.3173 24.2037 26.3353 24.3757 25.3493C24.4957 24.6553 24.6117 23.9613 24.6997 23.2633C24.7677 22.7173 24.8097 22.1633 24.8257 21.6133C24.8477 20.9493 24.8317 20.2833 24.8297 19.6173C24.8297 19.4633 24.8377 19.3073 24.8097 19.1573C24.7537 18.8733 24.7897 18.8473 24.4857 18.7773C24.0851 18.6846 23.6798 18.6131 23.2717 18.5633C22.9797 18.5273 22.8577 18.4573 22.8297 18.1833C22.8177 18.0853 22.7797 17.9873 22.7477 17.8913C22.7297 17.8413 22.6997 17.7953 22.6557 17.7113L22.6057 18.2393C22.5877 18.4313 22.5477 18.4713 22.3517 18.4693C22.2417 18.4693 22.1317 18.4533 22.0237 18.4533C21.0717 18.4533 20.1197 18.4373 19.1717 18.5173C18.9817 18.5333 18.8257 18.4873 18.7197 18.3113C18.6397 18.1793 18.5437 18.0593 18.4517 17.9393C18.3257 17.7713 18.2797 17.7533 18.0877 17.8193C17.6977 17.9553 17.3117 18.0953 16.9237 18.2393C16.438 18.4353 15.9832 18.7007 15.5737 19.0273C15.3811 19.1784 15.162 19.2923 14.9277 19.3633C14.8617 19.3833 14.7877 19.3793 14.6737 19.3893C14.7137 19.2573 14.7217 19.1613 14.7677 19.0893C14.8957 18.8793 15.0377 18.6793 15.1777 18.4773C15.2237 18.4113 15.2757 18.3513 15.3237 18.2873L15.2937 18.2413L14.8917 18.3153C14.5997 18.3953 14.2997 18.4553 14.0177 18.5593C13.7217 18.6653 13.4857 18.6053 13.2457 18.4153C12.6816 17.9671 12.1875 17.4372 11.7797 16.8433L11.5937 16.5793ZM28.7777 34.5053L28.4837 34.6853C28.0437 34.9533 27.6037 35.2173 27.1657 35.4893C26.9797 35.6053 26.7977 35.7293 26.6257 35.8653C26.4557 36.0053 26.3777 36.1873 26.4817 36.4093C26.5757 36.6093 26.6677 36.8093 26.7757 36.9973C26.8697 37.1573 27.0237 37.2733 27.2017 37.2913C27.4217 37.3113 27.6577 37.3153 27.8737 37.2673C28.3077 37.1673 28.6177 36.8573 28.9297 36.5533C29.0157 36.4788 29.078 36.3808 29.109 36.2713C29.1399 36.1618 29.138 36.0457 29.1037 35.9373C29.0117 35.5773 28.9457 35.2073 28.8677 34.8433C28.8457 34.7393 28.8137 34.6373 28.7777 34.5053ZM28.2637 29.6873C28.0237 30.2693 27.8537 30.8813 27.6137 31.5073C27.3117 32.3733 27.0257 33.2473 26.7437 34.1533C26.8157 34.1333 26.8517 34.1333 26.8777 34.1173C27.3997 33.7973 27.9217 33.4693 28.4477 33.1493C28.5557 33.0833 28.5897 32.9933 28.5777 32.8733C28.5537 32.6133 28.5297 32.3493 28.5097 32.0873L28.3737 30.3153C28.3577 30.1093 28.3337 29.9033 28.3157 29.6953C28.2977 29.6953 28.2817 29.6913 28.2637 29.6873ZM34.4257 13.4273L34.6237 13.9973C34.7837 14.4593 34.9417 14.9233 35.1037 15.4253L36.2637 19.3293C36.6377 20.5893 37.0077 21.8533 37.3797 23.1153C37.6077 23.8793 37.8497 24.6393 38.0657 25.4073C38.2097 25.9213 38.3177 26.4453 38.4377 27.0053C38.5257 27.4173 38.6117 27.8313 38.6917 28.2853C38.7597 28.4973 38.7377 28.7373 38.8457 28.9353L38.8957 28.9233L38.7597 28.1993C38.6837 27.7873 38.6057 27.3753 38.5337 26.9233C38.5037 26.7833 38.4757 26.6413 38.4417 26.5013C38.2517 25.7093 38.0877 24.9093 37.8617 24.1273C37.4697 22.7573 37.0357 21.3993 36.6257 20.0353C36.2957 18.9373 35.9817 17.8353 35.6497 16.7393C35.5117 16.2853 35.3497 15.8393 35.1977 15.3493L34.9637 14.6773C34.8897 14.4633 34.8137 14.2453 34.7337 14.0333C34.6537 13.8213 34.5657 13.6133 34.4797 13.4053C34.4617 13.412 34.4437 13.4186 34.4257 13.4253V13.4273ZM12.4497 28.6073C12.3237 28.6053 12.2197 28.6353 12.1817 28.7733C12.2984 28.863 12.4406 28.9137 12.5878 28.918C12.735 28.9223 12.8798 28.88 13.0017 28.7973C12.8198 28.728 12.6357 28.6646 12.4497 28.6073ZM10.4597 23.9593C10.4077 23.9053 10.3457 23.8633 10.3097 23.9633C10.2857 24.0273 10.2957 24.1033 10.2897 24.1893C10.4537 24.1153 10.4537 24.1153 10.4597 23.9593ZM10.5837 21.5813C10.5484 21.5873 10.5146 21.6003 10.4844 21.6196C10.4542 21.6388 10.4281 21.6638 10.4077 21.6933C10.3699 21.7602 10.3525 21.8366 10.3577 21.9133C10.3677 22.2173 10.3777 22.5253 10.4097 22.8273C10.4312 22.9785 10.4758 23.1255 10.5417 23.2633C10.6637 23.5353 10.8557 23.5973 11.1177 23.4653C11.2277 23.4113 11.2377 23.3573 11.1677 23.2453C11.0778 23.107 10.9918 22.9663 10.9097 22.8233C10.8797 22.6873 10.7777 22.5613 10.8437 22.4093C10.9237 22.2293 10.6917 22.1773 10.6957 22.0293V21.7473C10.6897 21.6713 10.6837 21.5733 10.5837 21.5813ZM10.5497 19.6453C10.2205 19.6396 9.89658 19.7277 9.61567 19.8993C9.46367 19.9893 9.44767 20.0393 9.51567 20.2153C9.58367 20.3893 9.65567 20.5613 9.74567 20.7233C9.87367 20.9573 9.92567 20.9733 10.1657 20.8773C10.3765 20.7835 10.6082 20.747 10.8377 20.7713C11.2417 20.8153 11.5517 21.0433 11.8457 21.2993L12.0297 21.4533C12.0437 21.4413 12.0577 21.4273 12.0737 21.4173C12.0357 21.2073 12.0037 20.9653 11.7757 20.8893C11.4617 20.7833 11.1277 20.7393 10.7597 20.6553L10.2797 20.6453C10.7597 20.3073 11.1837 20.5573 11.6537 20.6633C11.5277 20.4333 11.3477 20.3693 11.1937 20.2773C11.0297 20.1773 10.8537 20.0933 10.6937 19.9893C10.5737 19.9153 10.4537 19.8293 10.5497 19.6453ZM31.0157 20.2953C30.5557 20.2753 30.1617 20.4553 29.7997 20.7173C29.7317 20.7693 29.6797 20.8473 29.5897 20.9513C29.7637 21.0033 29.8897 21.0433 30.0537 21.0813C30.1417 21.0513 30.2297 21.0213 30.3137 20.9893C30.9257 20.7613 31.5337 20.7593 32.1217 21.0513C32.3737 21.1773 32.5957 21.1313 32.8537 21.0413C32.8137 20.9793 32.7937 20.9333 32.7637 20.8993C32.5198 20.6397 32.2102 20.451 31.8677 20.3533C31.5877 20.2653 31.2997 20.3073 31.0157 20.2953ZM15.9797 12.9653C15.9616 13.0532 15.963 13.1439 15.9837 13.2313C16.1437 13.8733 16.2957 14.5173 16.4677 15.1553C16.6757 15.9293 17.0077 16.6553 17.3797 17.3613C17.4197 17.4353 17.5017 17.5213 17.5757 17.5353C17.751 17.5575 17.9287 17.5217 18.0817 17.4333L17.1377 15.7533C16.6777 14.8573 16.3277 13.9133 15.9797 12.9653ZM20.7937 0.993258C20.3937 0.977258 19.9837 1.00126 19.5877 1.06126C19.1157 1.13126 18.6477 1.23526 18.1877 1.36526C17.6137 1.52526 17.0497 1.72526 16.4837 1.91126C16.4037 1.93726 16.3357 1.98726 16.2637 2.02726C16.3197 2.05526 16.3637 2.06326 16.4037 2.05526C16.9777 1.91926 17.5637 1.88526 18.1497 1.87526C18.4177 1.87126 18.6877 1.89326 18.9537 1.92526C19.3337 1.97326 19.7177 2.02126 20.0937 2.10526C21.0057 2.31326 21.8417 2.70526 22.6237 3.21726C23.5517 3.82926 24.3997 4.53726 25.1377 5.37326C25.5477 5.83726 25.9277 6.32326 26.2577 6.85126C26.5977 7.39926 26.8877 7.97326 27.1557 8.56326C27.7017 9.76526 28.0677 11.0273 28.3557 12.3153C28.4357 12.6613 28.4957 13.0113 28.5557 13.3633C28.5897 13.5713 28.6857 13.6973 28.8957 13.7433C29.1397 13.7993 29.2957 13.9533 29.3357 14.2453C29.3297 14.4493 29.2157 14.5933 29.0777 14.7253C28.8503 14.9233 28.6677 15.1673 28.5417 15.4413C28.6033 15.4316 28.6609 15.4045 28.7077 15.3633C28.8677 15.1913 29.0317 15.0193 29.1777 14.8333C29.3348 14.6456 29.4261 14.4117 29.4377 14.1673C29.4557 14.0673 29.4817 13.9673 29.4857 13.8673C29.4997 13.6193 29.4517 13.5673 29.1997 13.5313C29.1497 13.5233 29.1017 13.5033 29.0537 13.5013C28.8897 13.4873 28.8037 13.3753 28.7797 13.2393C28.7137 12.8433 28.7717 12.5293 29.2737 12.4233C29.4457 12.3873 29.6217 12.3633 29.7937 12.3393C30.1097 12.2933 30.4237 12.2333 30.7397 12.2053C31.0197 12.1813 31.1197 12.2713 31.1917 12.5393C31.2077 12.5973 31.2277 12.6533 31.2337 12.7133C31.2717 13.0713 31.2177 13.1633 30.9517 13.2893C30.8977 13.3153 30.8417 13.3373 30.7957 13.3733C30.7494 13.4071 30.714 13.4537 30.6937 13.5073C30.6157 13.7953 30.8397 14.2713 31.1057 14.3973L32.4517 15.0373C32.4977 15.0593 32.5517 15.0673 32.6017 15.0833L32.6377 15.0313C32.6077 15.0153 32.5737 15.0053 32.5497 14.9833C32.2186 14.7203 31.8524 14.5049 31.4617 14.3433C31.3473 14.291 31.232 14.241 31.1157 14.1933C31.0401 14.1623 30.9757 14.1093 30.9307 14.0411C30.8858 13.973 30.8624 13.8929 30.8637 13.8113C30.8577 13.6413 30.9537 13.5033 31.1197 13.4373L31.2377 13.3873C31.4357 13.2993 31.4737 13.2353 31.4617 13.0133C31.4598 12.9709 31.4545 12.9287 31.4457 12.8873C31.3117 12.2993 31.1997 11.7073 31.0357 11.1273C30.6447 9.71047 30.0903 8.34396 29.3837 7.05526C28.6472 5.71678 27.7096 4.49927 26.6037 3.44526C25.9115 2.77435 25.1169 2.21804 24.2497 1.79726C23.6081 1.48034 22.9235 1.25932 22.2177 1.14126C21.7463 1.06434 21.2708 1.01492 20.7937 0.993258ZM34.2317 12.9033C34.2517 12.9313 34.2677 12.9593 34.3077 12.9713L34.2637 12.8833L34.2317 12.9033ZM8.20567 7.83326C8.18814 7.84642 8.16744 7.8547 8.14567 7.85726C8.12063 7.88487 8.09391 7.91092 8.06567 7.93526C8.04567 7.95526 8.02567 7.97526 7.97567 8.01526L7.24967 8.72326C7.07367 8.89326 6.90967 9.07926 6.71767 9.22926C6.14967 9.66926 5.86767 10.2893 5.62967 10.9393C5.61206 10.9844 5.60721 11.0335 5.61567 11.0813C5.64167 11.1913 5.68167 11.2973 5.71967 11.4173L5.86767 11.4693C5.83367 11.5813 5.80767 11.6793 5.77367 11.7733C5.65767 12.1013 5.53767 12.4273 5.42367 12.7553C5.41367 12.7853 5.43967 12.8273 5.46167 12.9093C5.62167 12.5593 5.77767 12.2493 5.91167 11.9313C6.36767 10.8433 6.87967 9.78326 7.54967 8.80926C7.72967 8.54326 7.91367 8.27726 8.11567 8.00726C8.12367 7.99526 8.12967 7.98126 8.15967 7.94726C8.16167 7.91526 8.16567 7.88326 8.18967 7.86726L8.20567 7.83326ZM34.1577 12.6493C34.1635 12.6537 34.1681 12.6595 34.1713 12.6661C34.1744 12.6727 34.1759 12.6799 34.1757 12.6873C34.1711 12.6936 34.1671 12.7003 34.1637 12.7073C34.1676 12.7208 34.1723 12.7342 34.1777 12.7473L34.2137 12.7913C34.2177 12.7773 34.2277 12.7593 34.2237 12.7493C34.2177 12.7293 34.1997 12.7133 34.1837 12.6733C34.1749 12.6653 34.1663 12.6573 34.1577 12.6493ZM8.39767 8.95926C8.39167 8.96726 8.38167 8.97526 8.34367 8.98726C8.33367 9.01326 8.32167 9.03726 8.28167 9.08126C8.20461 9.19665 8.12184 9.30812 8.03367 9.41526C7.93767 9.55526 7.80167 9.52526 7.67167 9.49726C7.40367 9.44126 7.21567 9.52926 7.09767 9.78326C6.91967 10.1573 6.72367 10.5233 6.55167 10.9033C6.45367 11.1193 6.33167 11.3353 6.31567 11.6233C6.47767 11.6293 6.62367 11.6373 6.77167 11.6393H7.22767C7.18451 11.818 7.13177 11.9942 7.06967 12.1673C7.04967 12.2713 7.02567 12.3733 7.00367 12.4773L7.04367 12.4853C7.07967 12.3933 7.11767 12.3013 7.17767 12.1793C7.30967 11.8953 7.43767 11.6093 7.57767 11.3273C7.61767 11.2473 7.64567 11.1273 7.80967 11.1433C7.80967 11.2293 7.81767 11.3113 7.80967 11.3913C7.79967 11.4813 7.77567 11.5713 7.75367 11.6773C8.03567 11.7633 7.92567 12.0253 7.98367 12.2153C8.18767 12.1713 8.19167 11.8253 8.47967 11.9273V12.3373L8.51367 12.3413L9.39167 10.2233C9.13167 10.2233 8.89967 10.1833 8.67567 10.2893C8.62767 10.3113 8.55967 10.2873 8.45967 10.2813C8.60967 9.98126 8.73767 9.72526 8.88167 9.44726C8.89407 9.42056 8.91099 9.3962 8.93167 9.37526C8.93167 9.34526 8.92967 9.31526 8.94767 9.29926L8.95967 9.25926C8.94967 9.27126 8.93967 9.28126 8.90367 9.29326C8.89567 9.31726 8.88567 9.34126 8.85167 9.38326C8.8368 9.41072 8.81466 9.43355 8.78767 9.44926C8.54167 9.76326 8.60767 9.77726 8.27167 9.66126C8.11367 9.60726 8.11567 9.60526 8.17767 9.37326C8.23367 9.28126 8.28967 9.18726 8.37367 9.07326C8.37367 9.04126 8.37167 9.00926 8.38767 8.98926L8.39767 8.95926ZM12.5437 7.61926C12.5377 7.63126 12.5297 7.64126 12.4897 7.65126C12.3017 7.90126 12.1017 8.14326 11.9297 8.40526C11.6197 8.88126 11.3277 9.36726 11.0277 9.85126C10.7477 10.2993 10.3377 10.5873 9.87767 10.8133C9.84367 10.8293 9.79767 10.8253 9.71967 10.8353C9.74367 10.7173 9.75167 10.6173 9.78567 10.5293C9.92215 10.177 10.075 9.83128 10.2437 9.49326L10.2297 9.45326C10.2091 9.47348 10.1855 9.49035 10.1597 9.50326C10.1037 9.60326 10.0497 9.70326 9.97367 9.83126C9.45367 10.6793 9.08767 11.4653 9.08967 11.7313C9.13767 11.7393 9.18567 11.7533 9.23567 11.7573C9.58967 11.7833 9.61167 11.7713 9.75567 11.4273C9.81567 11.2873 9.90967 11.1873 10.0497 11.1273L10.3997 10.9873C10.4877 10.9513 10.5697 10.8733 10.6917 10.9233C10.6977 11.0233 10.6717 11.1433 10.7197 11.2133C10.8037 11.3373 10.8077 11.4633 10.8137 11.5993C10.8177 11.6973 10.8477 11.7953 10.8657 11.8933C10.9237 11.8253 10.9437 11.7633 10.9657 11.6993C11.2497 10.9193 11.5197 10.1353 11.8217 9.35926C12.0217 8.84726 12.2617 8.35126 12.4817 7.84726C12.5077 7.78726 12.5077 7.71326 12.5417 7.66326L12.5437 7.61926ZM20.5177 6.93926C20.5177 7.02926 20.5377 7.10726 20.5597 7.18526C20.6437 7.50526 20.7477 7.82126 20.8077 8.14526C20.8557 8.41126 20.8537 8.68526 20.8637 8.95726C20.8637 9.02326 20.8257 9.09126 20.7997 9.17726C20.6117 9.06126 20.7057 8.86126 20.5877 8.74726H20.3377C20.3077 8.89126 20.3177 9.05126 20.2457 9.14726C20.1137 9.31726 19.9357 9.45526 19.7737 9.60126C19.6877 9.67726 19.6177 9.63726 19.5677 9.55126L19.4757 9.37726C19.3457 9.44726 19.2417 9.51526 19.1317 9.56326C18.8997 9.66526 18.6617 9.75326 18.4317 9.85726C18.2617 9.93326 18.2517 9.96326 18.2917 10.1513C18.3197 10.3013 18.3597 10.4473 18.3857 10.5973C18.4117 10.7413 18.4857 10.8153 18.6317 10.8453C19.0977 10.9453 19.5557 11.0753 19.9457 11.3753C20.0617 11.1713 20.0617 11.1713 20.2817 11.0733C20.3417 11.0453 20.4017 11.0133 20.4657 10.9893C20.6257 10.9293 20.6957 10.9553 20.7657 11.1093C20.8117 11.2053 20.8477 11.3053 20.8977 11.4253C21.0177 11.1453 20.8137 10.8913 20.9317 10.5933C21.2457 10.9533 21.4117 11.3733 21.6817 11.7273C21.7103 11.6659 21.7253 11.599 21.7257 11.5313C21.7297 11.2833 21.7257 11.0373 21.7297 10.7893C21.7297 10.7213 21.7557 10.6553 21.7697 10.5893L21.8337 10.5833C22.0537 10.8933 22.0937 11.2913 22.2857 11.6233C22.2959 11.3618 22.2892 11.0999 22.2657 10.8393C22.2577 10.7493 22.2657 10.6913 22.3657 10.6633C22.5257 10.7353 22.5977 10.9433 22.7957 10.9793C22.7357 10.4293 21.9497 8.70526 21.1997 7.70926C20.9717 7.45526 20.7997 7.14926 20.5197 6.93726L20.5177 6.93926ZM15.1837 8.33126C15.1457 8.39926 15.1237 8.43126 15.1097 8.46526C14.9877 8.83526 14.8597 9.20526 14.7497 9.57726C14.6877 9.78726 14.5757 9.91526 14.3597 9.95726C14.1797 9.99526 14.0037 10.0613 13.8237 10.1033C13.7477 10.1213 13.6457 10.1333 13.5877 10.0973C13.5397 10.0653 13.5377 9.95926 13.5157 9.88526C13.3877 10.0373 13.3517 10.0593 13.1757 9.97926C12.9097 9.85526 12.6517 9.70926 12.3897 9.57726C12.2937 9.52726 12.2037 9.45126 12.0497 9.51726C11.9637 9.75726 11.8677 10.0173 11.7757 10.2813C11.5777 10.8413 11.6017 10.7653 11.9657 11.1873C12.0577 11.2833 12.1697 11.2473 12.2737 11.2333C12.3817 11.2153 12.4857 11.1733 12.5937 11.1613C12.8537 11.1353 13.1137 11.0013 13.3277 11.1313C13.7357 11.0033 14.1017 10.8873 14.4697 10.7753C14.5697 10.7453 14.6477 10.7853 14.6977 10.8833C14.7417 10.9673 14.7657 11.0693 14.8617 11.1253C14.9377 11.0133 14.8357 10.8693 14.9877 10.7693L15.2677 11.2513L15.1837 8.33126ZM15.7397 9.04726C15.5477 9.02726 15.5257 9.06726 15.5197 9.26326C15.5157 9.33926 15.5137 9.41926 15.5237 9.49326C15.5837 9.89326 15.7217 10.2653 15.8717 10.6333C15.8757 10.6453 15.8957 10.6533 15.9157 10.6633L16.0717 10.5633C16.1757 10.6353 16.2337 10.7393 16.3777 10.7393C16.7877 10.7353 17.1977 10.7673 17.6097 10.7633C17.8077 10.7613 17.9257 10.8473 18.0197 11.0033C18.0557 11.0633 18.0677 11.1573 18.1957 11.1353L18.0357 10.3473C17.9357 9.95726 17.8657 9.55726 17.6917 9.16926C17.5777 9.28326 17.4637 9.30526 17.3317 9.26126C17.2437 9.234 17.1533 9.21525 17.0617 9.20526C16.6217 9.14926 16.1817 9.08726 15.7417 9.04526L15.7397 9.04726ZM36.2477 5.59326C36.4257 5.91926 36.5577 6.22526 36.5257 6.57526C36.4937 6.91126 36.5777 7.25926 36.4377 7.60726C36.3437 7.54126 36.2617 7.44326 36.2137 7.45726C35.9797 7.52726 35.8857 7.34326 35.7597 7.22726C35.5608 7.04215 35.37 6.84864 35.1877 6.64726L34.9797 6.42126C34.9644 6.43397 34.949 6.44664 34.9337 6.45926C35.0037 6.55126 35.0737 6.64526 35.1537 6.77126C35.2337 6.89926 35.3217 7.02526 35.3977 7.15726C35.4657 7.27326 35.5277 7.39326 35.4597 7.56726C35.2957 7.54726 35.1317 7.52926 34.9677 7.50326C34.8477 7.48326 34.7657 7.50326 34.7197 7.64326C34.6577 7.83926 34.6457 7.83526 34.4197 7.82326C34.4597 7.90726 34.4917 7.98326 34.5337 8.05526C34.6157 8.20326 34.5937 8.33126 34.4737 8.44726C34.3537 8.56726 34.2377 8.69126 34.1177 8.80926C34.0715 8.85872 34.012 8.89373 33.9463 8.91006C33.8806 8.92639 33.8116 8.92333 33.7477 8.90126C33.3037 8.77926 32.8537 8.67526 32.4077 8.55326C32.3437 8.53526 32.2817 8.47326 32.2357 8.41726C32.1757 8.33726 32.1317 8.24326 32.0757 8.15726C31.9877 8.01726 31.8957 7.88126 31.8037 7.74326C31.7735 7.80887 31.7637 7.88203 31.7757 7.95326C31.7997 8.20726 31.8357 8.45926 31.8457 8.71326C31.8557 8.91326 31.7977 8.95326 31.6037 8.92126C31.3957 8.88726 31.1917 8.84126 30.9837 8.80526C30.8557 8.78126 30.7217 8.74926 30.5797 8.86526L30.7417 9.28126C30.9217 9.28126 31.0737 9.26126 31.2157 9.28526C31.5676 9.34814 31.8893 9.52445 32.1317 9.78726C32.2877 9.95326 32.4397 10.1233 32.6137 10.3073L32.6497 10.2973C32.6417 10.2853 32.6337 10.2713 32.6297 10.2173C32.6577 10.1053 32.5057 9.98126 32.6657 9.86126C32.7277 9.92126 32.7937 9.97526 32.8417 10.0413C32.9577 10.1973 33.0637 10.3593 33.1797 10.5553L33.3577 10.8373L33.4057 10.8113C33.1208 10.1887 32.8362 9.56599 32.5517 8.94326C32.6617 8.95726 32.7177 8.95726 32.7677 8.97526C33.1537 9.11526 33.5377 9.25926 33.9217 9.40726C34.0697 9.46326 34.2157 9.52726 34.3597 9.59526C34.4837 9.65126 34.5837 9.63126 34.6737 9.52926C34.7737 9.41726 34.8777 9.30526 34.9817 9.19526C35.0817 9.09326 35.1717 9.10326 35.2457 9.22326C35.2777 9.27326 35.2977 9.32926 35.3257 9.38326C35.4677 9.65926 35.6117 9.93726 35.7597 10.2493L36.0777 10.8653L36.1277 10.8433C36.0397 10.6313 35.9877 10.4073 35.8517 10.1753C35.7377 9.81126 35.5157 9.48326 35.4397 9.08526C35.7117 9.15326 36.1637 9.73726 36.5737 10.5493L36.6877 10.6973L36.7237 10.6753C36.6853 10.5922 36.6506 10.5074 36.6197 10.4213C36.5277 10.1313 36.4257 9.84126 36.3477 9.54926C36.3037 9.38326 36.2757 9.20326 36.3917 9.02926L36.6097 9.14526L36.5577 8.73126L36.6117 8.69926C36.6557 8.73926 36.7117 8.77126 36.7417 8.81926C36.8877 9.03526 37.0277 9.25926 37.1717 9.47926C37.1917 9.51126 37.2297 9.53726 37.2577 9.56526C37.1857 9.13126 36.8577 8.80526 36.7997 8.31326L37.1097 8.53726C37.1377 8.20526 37.1337 7.89926 37.1937 7.60726C37.2577 7.29126 37.1477 7.01326 37.0677 6.71726C37.1157 6.72526 37.1397 6.72926 37.1777 6.76726C37.3617 7.01526 37.5437 7.26526 37.7317 7.50926C37.7717 7.56326 37.8317 7.60326 37.8697 7.68326L37.9497 7.80926L37.9877 7.77926C37.9434 7.73091 37.9076 7.67547 37.8817 7.61526C37.6569 7.29095 37.4355 6.96426 37.2177 6.63526C36.7757 6.01326 36.4917 5.70126 36.2477 5.59326ZM23.1077 6.24726C23.1017 6.56926 23.2917 6.79726 23.2457 7.07726L22.5097 7.25126C22.6897 7.52926 22.5737 7.72526 22.4057 7.91326C22.3057 8.02726 22.2217 8.15726 22.1197 8.26926C22.0457 8.34926 22.0277 8.42526 22.0837 8.52126L22.4037 9.07126C22.4617 9.16726 22.5477 9.20326 22.6597 9.19926C22.8117 9.19326 22.9637 9.19926 23.1157 9.19726C23.3477 9.19126 23.5477 9.24126 23.6657 9.47126C23.6777 9.49926 23.7057 9.51926 23.7537 9.57526C23.7617 9.45726 23.7477 9.37926 23.7737 9.31526C23.8057 9.23526 23.8537 9.11726 23.9177 9.09926C24.0857 9.05326 24.2637 9.05126 24.4377 9.03926C24.4637 9.03726 24.4917 9.07526 24.5177 9.09726L24.6597 9.22726C24.6977 9.00726 24.4957 8.83126 24.6117 8.60726L24.8637 8.68726C24.8117 8.44126 24.7237 8.19726 24.7217 7.95526C24.7217 7.70926 24.8237 7.46926 24.9517 7.23526C25.1657 7.35926 25.2717 7.54726 25.4197 7.74126C25.7857 8.27126 26.1397 8.80726 26.4077 9.40926C26.7377 9.25326 26.9477 9.54526 27.2217 9.58526C27.2157 9.37326 26.9557 8.70326 26.8277 8.60126C26.7694 8.55702 26.6963 8.53696 26.6237 8.54526C26.5037 8.56726 26.3857 8.62326 26.2417 8.67126C26.1917 8.59326 26.1297 8.51526 26.0877 8.42726C25.8343 7.87026 25.5168 7.34472 25.1417 6.86126C24.9897 6.67326 24.8217 6.49726 24.6857 6.34126L23.9037 6.91126C23.8057 6.98126 23.7157 6.97126 23.6397 6.87726L23.3017 6.46326C23.2517 6.40326 23.1957 6.34526 23.1077 6.24726Z" fill="white" style="fill:white;fill-opacity:1;"/>
</g>
<defs>
<clipPath id="clip0_2_1967">
<rect width="48" height="48" fill="white" style="fill:white;fill-opacity:1;"/>
</clipPath>
</defs>
</svg>
