<svg width="48" height="48" viewBox="0 0 48 48" fill="none" xmlns="http://www.w3.org/2000/svg">
<g clip-path="url(#clip0_12_1664)">
<path fill-rule="evenodd" clip-rule="evenodd" d="M36.9053 5.85232C37.492 6.19723 38.4398 7.02377 38.9522 7.49099C42.0334 10.2693 44.2749 13.8563 45.421 17.8445C47.0402 23.487 46.3664 29.5406 43.5469 34.6892C40.6599 39.9513 35.7827 43.8353 30.0089 45.4695C25.3857 46.7539 20.4721 46.5191 15.9923 44.7996C14.8775 44.369 13.8386 43.8346 12.796 43.2566L12.8008 21.99C12.7994 20.0475 12.7761 18.0404 12.8038 16.1033C14.2146 14.1126 17.0317 12.0178 19.4005 11.3748C19.3742 12.1519 19.4041 13.0881 19.4024 13.8816V19.1795C19.411 20.6006 19.4638 21.9221 19.3233 23.3435C18.5809 23.4913 17.8393 23.6431 17.0987 23.7996C16.7996 23.8627 16.4527 23.9098 16.1671 23.989C16.2929 24.0182 16.4366 24.0275 16.5528 24.0574C17.3548 24.27 18.5117 24.4547 19.2706 24.6394C19.4925 24.6966 19.3952 28.2348 19.3985 28.6248C19.4233 31.508 19.3813 34.3687 19.4112 37.2488C19.4144 37.56 19.362 38.7783 19.4317 39.0008C19.5757 39.1223 20.5761 39.3309 20.8126 39.3797C24.8836 40.2287 29.1257 39.4237 32.6026 37.1414C36.0793 34.8605 38.514 31.2975 39.377 27.2293C40.0644 23.9216 39.6769 20.4807 38.2715 17.409C37.8657 16.5413 37.4268 15.8259 36.9014 15.0291C36.9194 13.9781 36.9051 12.8806 36.9053 11.8259V5.85232ZM20.6866 1.93825C22.0663 1.72886 23.3788 1.69237 24.7706 1.72439C28.4967 1.81013 31.9944 2.90783 35.2237 4.73904L35.2257 24.0877V28.3552C35.2257 28.8672 35.2476 29.611 35.1973 30.1209C35.1889 30.1975 34.9398 30.6243 34.8799 30.7244C34.328 31.655 33.6642 32.5148 32.9044 33.2849C31.7591 34.4498 30.1958 35.5717 28.6788 36.1951L28.6309 28.8787C28.6356 27.4746 28.6783 26.0499 28.6739 24.6414C29.5538 24.4659 30.8364 24.2444 31.6768 24.0144L31.5362 23.9832L31.5333 23.9558L31.6163 23.9187L31.3526 23.8836C31.0794 23.8389 30.7828 23.7718 30.5313 23.7205C29.9027 23.5897 29.2737 23.4621 28.6436 23.3386C28.6911 21.7686 28.6514 19.9656 28.6514 18.3777V8.97634C24.6842 7.75697 20.3959 8.14992 16.7169 10.0711C13.0127 12.0218 10.2351 15.3653 8.99518 19.365C7.76139 23.325 8.15742 27.6142 10.0958 31.281C10.2943 31.6534 10.5056 32.0194 10.7286 32.3777C10.8524 32.5749 11.0125 32.8021 11.126 32.9978C11.1601 36.0501 11.1507 39.1028 11.0987 42.1551C6.1449 38.5223 2.89824 33.4035 1.96003 27.3035C1.08507 21.4605 2.56885 15.5093 6.08405 10.7615C9.59587 6.00685 14.8454 2.83476 20.6866 1.93825ZM23.9932 19.3562C24.0519 19.4192 24.7405 22.8323 24.8048 23.1609C25.6496 23.4082 26.7092 23.5508 27.5792 23.7566C27.9167 23.8365 28.3218 23.8757 28.6417 23.992C28.0439 24.1607 27.5742 24.2361 26.9708 24.3572L24.8028 24.7996C24.6747 25.5241 24.524 26.2265 24.3702 26.9451C24.2535 27.491 24.152 28.1089 24.0108 28.6433C23.9149 28.4132 23.8118 27.848 23.7559 27.5779L23.4083 25.8855C23.3361 25.5286 23.2782 25.1592 23.1807 24.8074C22.989 24.7537 22.7485 24.7004 22.5528 24.6648C21.4834 24.4719 20.4048 24.1851 19.3389 23.991C19.5205 23.9248 20.5119 23.7369 20.7676 23.6892C21.5626 23.5412 22.4073 23.3262 23.1964 23.1941C23.2739 22.8972 23.3276 22.5389 23.3887 22.2302L23.7598 20.3865C23.8166 20.1074 23.9028 19.6024 23.9932 19.3562Z" fill="white" style="fill:white;fill-opacity:1;"/>
</g>
<defs>
<clipPath id="clip0_12_1664">
<rect width="48" height="48" fill="white" style="fill:white;fill-opacity:1;"/>
</clipPath>
</defs>
</svg>
