<svg width="48" height="48" viewBox="0 0 48 48" fill="none" xmlns="http://www.w3.org/2000/svg">
<g clip-path="url(#clip0_12_1654)">
<path fill-rule="evenodd" clip-rule="evenodd" d="M36.9049 5.8516C37.4913 6.19628 38.4391 7.02288 38.9517 7.49027C42.0331 10.2686 44.2744 13.8564 45.4205 17.8448C47.0397 23.4873 46.3668 29.5409 43.5474 34.6895C40.6604 39.9516 35.7831 43.8346 30.0093 45.4688C25.3862 46.7533 20.4726 46.5192 15.9927 44.7998C14.878 44.3693 13.8391 43.8338 12.7965 43.2559L12.8013 21.9903C12.7999 20.0476 12.7756 18.0407 12.8033 16.1036C14.2141 14.1127 17.032 12.017 19.4009 11.3741C19.3747 12.1513 19.4046 13.0882 19.4029 13.8819V19.1797C19.4115 20.6008 19.4633 21.9215 19.3228 23.3428C18.5807 23.4906 17.8395 23.6434 17.0992 23.7998C16.7999 23.863 16.4523 23.909 16.1666 23.9883C16.2926 24.0176 16.4369 24.0267 16.5533 24.0567C17.3553 24.2693 18.5112 24.4549 19.2701 24.6397C19.4924 24.6937 19.3957 28.2363 19.399 28.625C19.4238 31.5082 19.3818 34.3689 19.4117 37.2491C19.4149 37.5607 19.3625 38.7787 19.4322 39.001C19.5776 39.1227 20.5773 39.3313 20.8131 39.3799C24.884 40.2289 29.1252 39.4229 32.6021 37.1407C36.0788 34.8597 38.5135 31.2969 39.3765 27.2286C40.0638 23.921 39.6763 20.4808 38.2711 17.4092C37.8652 16.5416 37.4273 15.8262 36.9019 15.0293C36.9199 13.9784 36.9056 12.8809 36.9058 11.8262L36.9049 5.8516ZM20.6861 1.93851C22.0658 1.7291 23.3784 1.69167 24.7701 1.72367C28.4962 1.80938 31.9939 2.90813 35.2232 4.7393L35.2252 24.087V28.3555C35.2252 28.8674 35.2471 29.6103 35.1968 30.1202C35.1894 30.1957 34.9391 30.625 34.8795 30.7246C34.3275 31.6553 33.6637 32.515 32.9039 33.2852C31.7585 34.4501 30.1954 35.5721 28.6783 36.1954L28.6314 28.878C28.6361 27.474 28.6778 26.0501 28.6734 24.6416C29.5539 24.466 30.8387 24.2448 31.6793 24.0147V24.0137L31.5357 23.9834L31.5338 23.9561L31.6168 23.919L31.3531 23.8829C31.0798 23.8382 30.7834 23.7711 30.5318 23.7198C29.9032 23.589 29.2741 23.4623 28.6441 23.3389C28.6916 21.7689 28.6509 19.9659 28.6509 18.378V8.97562C24.6839 7.75639 20.3963 8.15029 16.7173 10.0713C13.013 12.0221 10.2346 15.3653 8.99469 19.3653C7.76086 23.3254 8.15773 27.6143 10.0963 31.2813C10.2948 31.6536 10.5051 32.0196 10.7281 32.378C10.8519 32.5751 11.013 32.8023 11.1265 32.9981C11.1605 36.0503 11.1512 39.1031 11.0992 42.1553C6.14524 38.5225 2.89778 33.4039 1.95954 27.3037C1.08455 21.4608 2.56849 15.5095 6.08356 10.7618C9.59532 6.00711 14.8449 2.83509 20.6861 1.93851ZM23.9937 19.3565C24.0524 19.4194 24.7409 22.8326 24.8052 23.1612C25.6501 23.4084 26.7098 23.55 27.5797 23.7559C27.9173 23.8357 28.3223 23.876 28.6422 23.9922C28.0441 24.1611 27.574 24.2363 26.9703 24.3575L24.8023 24.7998C24.6742 25.5242 24.5245 26.2268 24.3707 26.9454C24.254 27.4912 24.1515 28.1082 24.0103 28.6426C23.9145 28.4122 23.8123 27.8482 23.7564 27.5782L23.4078 25.8858C23.3357 25.529 23.2786 25.1593 23.1812 24.8077C22.9893 24.7539 22.7482 24.6997 22.5523 24.6641C21.483 24.4711 20.4052 24.1854 19.3394 23.9912C19.521 23.9251 20.5127 23.7361 20.7681 23.6885C21.5631 23.5405 22.4078 23.3254 23.1968 23.1934C23.2743 22.8966 23.3271 22.539 23.3882 22.2305L23.7603 20.3868C23.8171 20.1077 23.9032 19.6027 23.9937 19.3565Z" fill="#0094B6" style="fill:#0094B6;fill:color(display-p3 0.0000 0.5804 0.7137);fill-opacity:1;"/>
</g>
<defs>
<clipPath id="clip0_12_1654">
<rect width="48" height="48" fill="white" style="fill:white;fill-opacity:1;"/>
</clipPath>
</defs>
</svg>
