<svg width="48" height="48" viewBox="0 0 48 48" fill="none" xmlns="http://www.w3.org/2000/svg">
<g clip-path="url(#clip0_6_1631)">
<path d="M20.6821 34.084C20.6821 34.084 20.8061 33.962 20.6821 33.962C15.0321 21.804 7.29205 12.44 7.29205 12.44C7.29205 12.44 3.11405 16.336 3.36005 20.348C3.48205 23.388 5.81605 25.088 5.81605 25.088C9.50205 28.614 18.3481 33.112 20.4361 34.086L20.6821 34.084ZM19.2081 37.124C19.2081 37.002 18.9621 37.002 18.9621 37.002L4.22005 37.488C5.81605 40.284 8.52005 42.472 11.3461 41.864C13.3121 41.378 17.7341 38.338 19.0861 37.364C19.3321 37.124 19.2081 37.124 19.2081 37.124ZM19.4541 35.784C19.5781 35.664 19.4541 35.544 19.4541 35.544C12.9421 31.162 0.412054 24.6 0.412054 24.6C-0.693946 28.126 0.780054 30.922 0.780054 30.922C2.37605 34.326 5.44805 35.3 5.44805 35.3C6.80005 35.906 8.27405 35.906 8.27405 35.906H19.3321C19.4541 35.906 19.4541 35.784 19.4541 35.784ZM20.4381 6.122C19.8221 6.122 18.1021 6.608 18.1021 6.608C14.1721 7.58 13.3121 11.106 13.3121 11.106C12.5741 13.294 13.3121 15.726 13.3121 15.726C14.6621 21.44 21.0521 30.922 22.4021 32.866L22.5261 32.99C22.6481 32.99 22.6481 32.868 22.6481 32.868C24.8601 11.592 20.4401 6.12 20.4401 6.12L20.4381 6.122ZM25.3521 32.868C25.4741 32.868 25.5981 32.746 25.5981 32.746C27.0721 30.68 33.3381 21.318 34.6881 15.606C34.6881 15.606 35.4261 12.808 34.6881 10.986C34.6881 10.986 33.7061 7.458 29.7741 6.486C29.7741 6.486 28.6681 6.244 27.4401 6C27.4401 6 23.0181 11.592 25.2281 32.624C25.2281 32.868 25.3521 32.868 25.3521 32.868ZM28.7921 37.002C28.7921 37.002 28.6681 37.002 28.6681 37.122V37.366C30.1441 38.338 34.3201 41.378 36.4081 41.864C36.4081 41.864 40.2181 43.202 43.5341 37.488L28.7921 37.002ZM47.5881 24.48C47.5881 24.48 35.0581 31.166 28.5461 35.542C28.5461 35.542 28.4221 35.662 28.4221 35.786C28.4221 35.786 28.4221 35.906 28.5461 35.906H39.8481C39.8481 35.906 40.9541 35.906 42.4281 35.3C42.4281 35.3 45.5001 34.326 47.2201 30.8C47.2201 30.68 48.6941 27.884 47.5881 24.48ZM27.3201 34.084C27.3201 34.084 27.4421 34.204 27.5641 34.084C29.6541 32.99 38.5001 28.612 42.1841 25.086C42.1841 25.086 44.5201 23.264 44.6441 20.346C44.8881 16.212 40.7101 12.444 40.7101 12.444C40.7101 12.444 32.9701 21.562 27.3201 33.84C27.3201 33.84 27.1961 33.96 27.3201 34.084Z" fill="white" style="fill:white;fill-opacity:1;"/>
</g>
<defs>
<clipPath id="clip0_6_1631">
<rect width="48" height="48" fill="white" style="fill:white;fill-opacity:1;"/>
</clipPath>
</defs>
</svg>
