<svg width="48" height="48" viewBox="0 0 48 48" fill="none" xmlns="http://www.w3.org/2000/svg">
<g clip-path="url(#clip0_11_176)">
<path d="M4.5 23.0696C4.5 16.2556 8.194 9.96159 14.188 6.55359C17.142 4.87917 20.4795 3.99902 23.875 3.99902C27.2705 3.99902 30.608 4.87917 33.562 6.55359C39.556 9.96159 43.25 16.2556 43.25 23.0696C43.25 33.6016 34.576 42.1396 23.876 42.1396C13.176 42.1396 4.5 33.5996 4.5 23.0696Z" fill="#FF9D0B" style="fill:#FF9D0B;fill:color(display-p3 1.0000 0.6157 0.0431);fill-opacity:1;"/>
<path d="M23.876 40.1717C33.47 40.1717 41.25 32.5137 41.25 23.0697C41.25 13.6257 33.47 5.96973 23.876 5.96973C14.28 5.96973 6.5 13.6257 6.5 23.0697C6.5 32.5137 14.28 40.1697 23.876 40.1697V40.1717Z" fill="#FFD21E" style="fill:#FFD21E;fill:color(display-p3 1.0000 0.8235 0.1176);fill-opacity:1;"/>
<path d="M23.7501 30.2258C28.6641 30.2258 30.2501 25.9138 30.2501 23.6998C30.2501 22.5478 29.4641 22.9118 28.2041 23.5218C27.0401 24.0878 25.4741 24.8718 23.7561 24.8718C20.1601 24.8718 17.2561 21.4858 17.2561 23.6998C17.2561 25.9138 18.8361 30.2258 23.7561 30.2258H23.7501Z" fill="#FF323D" style="fill:#FF323D;fill:color(display-p3 1.0000 0.1961 0.2392);fill-opacity:1;"/>
<path d="M29.5201 18.4202C30.1601 18.6362 30.4101 19.9262 31.0541 19.5902C31.9481 19.1242 32.4681 18.1742 32.3721 17.1822C32.3223 16.6946 32.1285 16.2328 31.8154 15.8557C31.5024 15.4785 31.0842 15.203 30.6141 15.0642C30.1422 14.9214 29.6388 14.92 29.1661 15.06C28.6934 15.2 28.272 15.4755 27.9541 15.8522C27.3101 16.6202 27.2001 17.6922 27.6741 18.5722C27.9801 19.1382 28.9501 18.2182 29.5241 18.4142L29.5201 18.4202ZM17.7461 18.4202C17.1061 18.6362 16.8501 19.9262 16.2101 19.5902C15.7756 19.3658 15.4182 19.0167 15.1837 18.5876C14.9492 18.1585 14.8483 17.6691 14.8941 17.1822C14.9901 16.1922 15.6841 15.3562 16.6501 15.0642C17.1219 14.9214 17.6253 14.92 18.098 15.06C18.5707 15.2 18.9921 15.4755 19.3101 15.8522C19.9541 16.6202 20.0641 17.6922 19.5901 18.5722C19.2861 19.1382 18.3101 18.2182 17.7401 18.4142L17.7461 18.4202ZM19.9861 29.1002C20.2526 28.5696 20.6254 28.0994 21.0812 27.7189C21.5371 27.3384 22.0663 27.0556 22.6361 26.8882C22.7761 26.8482 22.9241 27.0082 23.0741 27.2302L23.4581 27.8422C23.5961 28.0422 23.7361 28.1922 23.8761 28.1922C24.0241 28.1922 24.1761 28.0442 24.3221 27.8482L24.7321 27.2442C24.8921 27.0242 25.0461 26.8682 25.2001 26.9142C26.2741 27.2502 27.1721 27.9862 27.7001 28.9662C29.5641 27.5182 30.2501 25.1562 30.2501 23.7002C30.2501 22.6842 29.6381 22.8482 28.6301 23.3202L27.3981 23.9122C26.3581 24.3922 25.1021 24.8722 23.7501 24.8722C22.3981 24.8722 21.1461 24.3922 20.1041 23.9122L18.9261 23.3462C17.8861 22.8502 17.2501 22.6622 17.2501 23.7002C17.2501 25.1062 17.8901 27.3622 19.6241 28.8202L19.9841 29.1002H19.9861Z" fill="#3A3B45" style="fill:#3A3B45;fill:color(display-p3 0.2275 0.2314 0.2706);fill-opacity:1;"/>
<path d="M35.6241 20.7323C35.836 20.7341 36.0461 20.6942 36.2425 20.6148C36.4389 20.5353 36.6178 20.418 36.7688 20.2694C36.9198 20.1208 37.04 19.9438 37.1226 19.7487C37.2052 19.5536 37.2485 19.3442 37.2501 19.1323C37.2501 18.2503 36.5221 17.5323 35.6241 17.5323C35.4124 17.5307 35.2025 17.5708 35.0063 17.6504C34.8101 17.7299 34.6315 17.8474 34.4807 17.9959C34.3299 18.1445 34.2099 18.3213 34.1274 18.5163C34.0449 18.7113 34.0017 18.9206 34.0001 19.1323C34.0001 20.0163 34.7281 20.7323 35.6241 20.7323ZM12.3761 20.7323C12.5878 20.7339 12.7977 20.6937 12.9939 20.6142C13.1901 20.5346 13.3687 20.4172 13.5195 20.2686C13.6703 20.1201 13.7903 19.9432 13.8728 19.7483C13.9553 19.5533 13.9985 19.344 14.0001 19.1323C14.0001 18.2503 13.2721 17.5323 12.3761 17.5323C12.1642 17.5304 11.9541 17.5704 11.7577 17.6498C11.5613 17.7292 11.3824 17.8466 11.2314 17.9952C11.0804 18.1438 10.9602 18.3207 10.8776 18.5158C10.795 18.711 10.7517 18.9204 10.7501 19.1323C10.7501 20.0163 11.4781 20.7323 12.3761 20.7323ZM9.0301 26.1463C8.2201 26.1463 7.5001 26.4703 6.9961 27.0663C6.56618 27.587 6.33073 28.241 6.3301 28.9163C6.01503 28.8229 5.68867 28.7731 5.3601 28.7683C4.5861 28.7683 3.8861 29.0603 3.3901 29.5863C2.94942 30.0338 2.67075 30.6157 2.59829 31.2396C2.52583 31.8634 2.66372 32.4937 2.9901 33.0303C2.54943 33.3837 2.23566 33.8709 2.0961 34.4183C1.9761 34.8623 1.8561 35.7983 2.4961 36.7503C2.25596 37.1119 2.11274 37.5291 2.08017 37.962C2.0476 38.3948 2.12678 38.8288 2.3101 39.2223C2.7861 40.2883 3.9301 41.1383 6.0901 42.0323L6.5701 42.2243C8.1061 42.8243 9.5161 43.2083 9.5261 43.2123C11.3061 43.6983 13.1421 43.9623 14.9901 44.0003C17.9201 44.0003 20.0161 43.1143 21.2201 41.3723C23.0801 38.6883 22.9041 36.2223 20.6721 33.8463L20.3701 33.5383C18.9861 32.1703 18.0601 30.1583 17.8701 29.7143C17.4801 28.4043 16.4501 26.9483 14.7461 26.9483C13.8261 26.9623 12.9681 27.4143 12.4461 28.1583C11.9461 27.5383 11.4561 27.0523 11.0161 26.7703C10.4265 26.3785 9.73781 26.1621 9.0301 26.1463ZM38.9701 26.1463C39.7801 26.1463 40.5041 26.4703 41.0041 27.0663C41.4361 27.5903 41.6701 28.2423 41.6701 28.9163C41.9861 28.8223 42.3141 28.7743 42.6441 28.7683C43.4201 28.7683 44.1201 29.0603 44.6141 29.5863C45.0548 30.0338 45.3335 30.6157 45.4059 31.2396C45.4784 31.8634 45.3405 32.4937 45.0141 33.0303C45.4541 33.3863 45.7681 33.8743 45.9041 34.4183C46.0241 34.8623 46.1441 35.7983 45.5041 36.7503C45.9921 37.4903 46.0621 38.4223 45.6901 39.2223C45.2141 40.2883 44.0701 41.1383 41.9121 42.0323L41.4341 42.2243C39.8941 42.8243 38.4841 43.2083 38.4741 43.2123C36.6941 43.6983 34.8581 43.9623 33.0101 44.0003C30.0801 44.0003 27.9841 43.1143 26.7801 41.3723C24.9201 38.6883 25.0961 36.2223 27.3281 33.8463L27.6301 33.5383C29.0201 32.1703 29.9441 30.1583 30.1341 29.7143C30.5241 28.4043 31.5501 26.9483 33.2541 26.9483C34.1741 26.9623 35.0321 27.4143 35.5541 28.1583C36.0541 27.5383 36.5441 27.0523 36.9901 26.7703C37.4781 26.4463 38.0361 26.2403 38.6181 26.1703L38.9701 26.1463Z" fill="#FF9D0B" style="fill:#FF9D0B;fill:color(display-p3 1.0000 0.6157 0.0431);fill-opacity:1;"/>
<path d="M19.5701 40.2644C20.9461 38.2764 20.8461 36.7844 18.96 34.9304C17.07 33.0744 15.9701 30.3544 15.9701 30.3544C15.9701 30.3544 15.5601 28.7784 14.6261 28.9264C13.6901 29.0744 13.0061 31.4264 14.9661 32.8684C16.92 34.3104 14.576 35.2884 13.8201 33.9364C13.0701 32.5824 11.0101 29.1044 9.94005 28.4344C8.87605 27.7704 8.12605 28.1384 8.37605 29.5164C8.62605 30.8904 13.0901 34.2164 12.6561 34.9304C12.2201 35.6544 10.6901 34.0904 10.6901 34.0904C10.6901 34.0904 5.90605 29.8004 4.86005 30.9204C3.82005 32.0364 5.65605 32.9724 8.26005 34.5264C10.8761 36.0824 11.0801 36.4964 10.7101 37.0864C10.3361 37.6764 4.57005 32.8864 4.03005 34.9204C3.49005 36.9424 9.91605 37.5284 9.52005 38.9324C9.12005 40.3324 4.99005 36.2844 4.15005 37.8584C3.30005 39.4384 9.97605 41.2944 10.0301 41.3084C12.1801 41.8604 17.656 43.0264 19.5701 40.2644ZM28.4341 40.2644C27.0601 38.2764 27.1541 36.7844 29.0441 34.9304C30.9301 33.0744 32.0301 30.3544 32.0301 30.3544C32.0301 30.3544 32.4401 28.7784 33.3801 28.9264C34.3101 29.0744 34.9941 31.4264 33.0401 32.8684C31.0801 34.3104 33.4301 35.2884 34.1801 33.9364C34.9341 32.5824 36.994 29.1044 38.0601 28.4344C39.1241 27.7704 39.8801 28.1384 39.6241 29.5164C39.3741 30.8904 34.914 34.2164 35.35 34.9304C35.7801 35.6544 37.3101 34.0904 37.3101 34.0904C37.3101 34.0904 42.1 29.8004 43.14 30.9204C44.18 32.0364 42.3501 32.9724 39.7401 34.5264C37.1241 36.0824 36.924 36.4964 37.2901 37.0864C37.6641 37.6764 43.43 32.8864 43.9701 34.9204C44.5101 36.9424 38.09 37.5284 38.4841 38.9324C38.8841 40.3324 43.01 36.2844 43.854 37.8584C44.7001 39.4384 38.03 41.2944 37.974 41.3084C35.82 41.8604 30.3441 43.0264 28.4341 40.2644Z" fill="#FFD21E" style="fill:#FFD21E;fill:color(display-p3 1.0000 0.8235 0.1176);fill-opacity:1;"/>
</g>
<defs>
<clipPath id="clip0_11_176">
<rect width="48" height="48" fill="white" style="fill:white;fill-opacity:1;"/>
</clipPath>
</defs>
</svg>
