<svg width="48" height="48" viewBox="0 0 48 48" fill="none" xmlns="http://www.w3.org/2000/svg">
<g clip-path="url(#clip0_11_187)">
<path fill-rule="evenodd" clip-rule="evenodd" d="M33.562 6.55359C39.556 9.96159 43.25 16.2556 43.25 23.0696C43.25 25.0596 42.9399 26.9796 42.3639 28.7836C42.7754 28.7327 43.193 28.7785 43.5836 28.9174C43.9742 29.0562 44.327 29.2844 44.6139 29.5836C45.0551 30.0313 45.3341 30.6135 45.4065 31.2378C45.479 31.8621 45.3408 32.4928 45.014 33.0296C45.422 33.3596 45.7179 33.7996 45.8699 34.2936L45.9039 34.4176C46.0239 34.8616 46.144 35.7976 45.504 36.7496C45.992 37.4896 46.062 38.4216 45.6899 39.2216C45.18 40.3616 43.9039 41.2576 41.4339 42.2216L41.0299 42.3776L40.768 42.4736C39.812 42.8196 38.9879 43.0636 38.646 43.1636L38.4739 43.2116C36.694 43.6976 34.858 43.9616 33.01 43.9996C30.37 43.9996 28.41 43.2796 27.164 41.8656C25.0599 42.2219 22.9119 42.2341 20.804 41.9016C19.556 43.2936 17.604 43.9996 14.988 43.9996C13.2733 43.9654 11.5683 43.7352 9.90595 43.3136L9.46395 43.1936L8.91795 43.0336C8.12477 42.7931 7.34088 42.5229 6.56795 42.2236C4.09395 41.2576 2.81795 40.3636 2.30795 39.2216C1.93595 38.4216 2.00595 37.4876 2.49395 36.7496C2.26356 36.4125 2.10856 36.0297 2.03954 35.6272C1.97051 35.2248 1.98907 34.8122 2.09395 34.4176C2.23195 33.8716 2.54595 33.3856 2.98795 33.0296C2.66157 32.493 2.52368 31.8627 2.59614 31.2389C2.6686 30.615 2.94727 30.0331 3.38795 29.5856C3.85395 29.0896 4.50195 28.8036 5.22195 28.7716L5.37795 28.7696C4.79272 26.9263 4.49588 25.0036 4.49795 23.0696C4.49795 16.2556 8.19195 9.96159 14.186 6.55359C17.1399 4.87917 20.4774 3.99902 23.873 3.99902C27.2685 3.99902 30.608 4.87917 33.562 6.55359ZM8.37595 29.5156C8.62595 30.8896 13.09 34.2156 12.656 34.9296C12.276 35.5596 11.064 34.4516 10.76 34.1576L10.678 34.0776L10.342 33.7836C9.21995 32.8256 5.73395 29.9836 4.86195 30.9196C4.00195 31.8396 5.09995 32.6376 6.97195 33.7596L8.53995 34.6936L8.81195 34.8596C10.902 36.1456 11.052 36.5396 10.712 37.0856C10.336 37.6756 4.57195 32.8856 4.03195 34.9196C3.49195 36.9416 9.91595 37.5276 9.51995 38.9316C9.11995 40.3316 4.98995 36.2836 4.14995 37.8576C3.29995 39.4376 9.97595 41.2936 10.03 41.3076L10.35 41.3876L10.7 41.4716C13.154 42.0396 17.83 42.7716 19.57 40.2636C20.916 38.3176 20.85 36.8456 19.074 35.0436L18.96 34.9296C17.07 33.0736 15.97 30.3536 15.97 30.3536L15.936 30.2376L15.886 30.0936C15.722 29.6536 15.318 28.8156 14.626 28.9256C13.706 29.0716 13.03 31.3456 14.866 32.7916L14.966 32.8676C16.92 34.3096 14.576 35.2876 13.82 33.9356L13.704 33.7276L13.418 33.2276C12.492 31.6296 10.854 29.0056 9.93995 28.4336C8.87595 27.7696 8.12595 28.1376 8.37595 29.5156ZM38.06 28.4336C36.9939 29.1036 34.934 32.5816 34.18 33.9356C34.0502 34.1743 33.8449 34.3631 33.5962 34.4724C33.3475 34.5817 33.0695 34.6054 32.806 34.5396C32.6749 34.5026 32.5544 34.4355 32.454 34.3436C32.4163 34.3079 32.3833 34.2676 32.356 34.2236L32.328 34.1676L32.312 34.1276L32.298 34.0896L32.292 34.0636L32.286 34.0296C32.2806 33.9979 32.2779 33.9658 32.278 33.9336C32.278 33.6936 32.42 33.4016 32.778 33.0796C32.83 33.0316 32.886 32.9856 32.946 32.9396L33.04 32.8676C33.084 32.8356 33.126 32.8036 33.166 32.7696C34.932 31.3496 34.312 29.1496 33.428 28.9356L33.366 28.9236L33.254 28.9156C33.2124 28.9161 33.1709 28.9201 33.13 28.9276L33.074 28.9376L32.99 28.9656L32.912 28.9996L32.856 29.0296L32.8 29.0676L32.728 29.1216L32.682 29.1616C32.336 29.4776 32.136 30.0176 32.062 30.2456L32.03 30.3536C32.03 30.3536 30.97 32.9716 29.152 34.8216L29.044 34.9296C28.314 35.6456 27.852 36.3096 27.64 36.9656C27.354 37.8396 27.508 38.7016 28.06 39.6716C28.17 39.8656 28.294 40.0616 28.434 40.2636C30.198 42.8136 34.998 42.0156 37.422 41.4436L37.9939 41.3036L38.4939 41.1556C39.0459 40.9876 39.966 40.6896 40.894 40.3156L41.27 40.1616L41.4 40.1056L41.528 40.0496L41.776 39.9376L41.938 39.8616C42.9959 39.3576 43.8659 38.7756 43.9259 38.2076L43.928 38.1356C43.9263 38.0383 43.9009 37.9429 43.854 37.8576C43.666 37.5056 43.312 37.4336 42.872 37.5216L42.782 37.5416C42.694 37.5616 42.6019 37.5896 42.5099 37.6216L42.316 37.6916L42.208 37.7356C41.09 38.1956 39.7319 39.1456 38.9939 39.2256H39.006C38.9728 39.2294 38.9394 39.2314 38.9059 39.2316H38.858L38.81 39.2256L38.764 39.2156C38.6279 39.1836 38.532 39.0956 38.484 38.9316C38.4653 38.8666 38.4619 38.7981 38.4739 38.7316C38.5979 38.0416 40.39 37.5416 41.9 36.9116L42.032 36.8556C43.088 36.4076 43.972 35.8896 44.0019 35.1916V35.1116C43.9982 35.0453 43.9875 34.9796 43.97 34.9156C43.874 34.5556 43.6199 34.4136 43.25 34.4136C41.68 34.4136 38.15 37.1336 37.41 37.1336C37.36 37.1336 37.3139 37.1196 37.2939 37.0856C37.2585 37.0296 37.2277 36.9707 37.202 36.9096C37.0019 36.4336 37.3379 35.9856 39.3219 34.7776L39.74 34.5256C40.816 33.8856 41.76 33.3496 42.422 32.8636C43.002 32.4396 43.372 32.0516 43.428 31.6636L43.4339 31.6076C43.4499 31.3816 43.3579 31.1536 43.1399 30.9196C43.0996 30.876 43.0523 30.8395 43 30.8116L42.9319 30.7816L42.9059 30.7716C42.8221 30.7441 42.7342 30.7306 42.646 30.7316C42.3219 30.7316 41.908 30.8716 41.456 31.0916C40.182 31.7176 38.594 32.9956 37.804 33.6616L37.306 34.0916L37.24 34.1576C37.08 34.3136 36.664 34.6976 36.254 34.9296L36.1119 35.0036L36.0299 35.0416C35.9518 35.0752 35.8699 35.0994 35.7859 35.1136H35.796C35.7754 35.1165 35.7547 35.1185 35.734 35.1196L35.754 35.1176L35.728 35.1196C35.57 35.1296 35.438 35.0776 35.3479 34.9296C35.3258 34.89 35.316 34.8447 35.32 34.7996C35.374 33.8696 39.388 30.8176 39.624 29.5156L39.6419 29.4196C39.8419 28.1196 39.1 27.7856 38.06 28.4336ZM23.876 5.96759C14.28 5.96759 6.49995 13.6256 6.49995 23.0676C6.49995 24.4516 6.66595 25.7956 6.97995 27.0836L6.99595 27.0656C7.49995 26.4696 8.21995 26.1456 9.02995 26.1456C9.73995 26.1616 10.428 26.3796 11.016 26.7696C11.456 27.0496 11.946 27.5376 12.446 28.1576C12.968 27.4136 13.826 26.9616 14.746 26.9476C16.45 26.9476 17.48 28.4036 17.87 29.7136L17.964 29.9236L18.084 30.1776C18.468 30.9696 19.274 32.4556 20.37 33.5376C22.49 35.6176 23.018 37.7676 21.97 40.0696C23.3159 40.2148 24.6741 40.2054 26.018 40.0416C25.008 37.8016 25.498 35.7016 27.498 33.6696L27.63 33.5376C29.02 32.1696 29.944 30.1576 30.134 29.7136C30.524 28.4036 31.55 26.9476 33.254 26.9476C34.174 26.9616 35.032 27.4136 35.554 28.1576C36.054 27.5376 36.544 27.0516 36.99 26.7696C37.5778 26.3789 38.2643 26.1626 38.97 26.1456C39.684 26.1456 40.334 26.3976 40.82 26.8656C41.0999 25.6456 41.25 24.3756 41.25 23.0696C41.25 13.6256 33.47 5.96759 23.876 5.96759ZM27.59 23.8196L28.468 23.3956C29.574 22.8676 30.248 22.6296 30.248 23.6996C30.248 25.8856 28.706 30.1156 23.938 30.2236H23.57C18.92 30.1196 17.338 26.1036 17.258 23.8736L17.256 23.6996C17.256 21.4856 20.16 24.8716 23.756 24.8716C25.188 24.8716 26.514 24.3276 27.59 23.8196ZM35.624 17.5336C36.524 17.5336 37.25 18.2496 37.25 19.1336C37.25 20.0156 36.5219 20.7336 35.624 20.7336C35.4123 20.7352 35.2023 20.695 35.0061 20.6155C34.81 20.5359 34.6314 20.4185 34.4806 20.2699C34.3298 20.1214 34.2097 19.9445 34.1272 19.7496C34.0448 19.5546 34.0015 19.3453 34 19.1336C34 18.2496 34.728 17.5336 35.624 17.5336ZM12.376 17.5336C13.272 17.5336 14 18.2496 14 19.1336C14 20.0156 13.272 20.7336 12.376 20.7336C12.1641 20.7354 11.9539 20.6955 11.7575 20.6161C11.5611 20.5366 11.3823 20.4193 11.2313 20.2707C11.0803 20.1221 10.96 19.9451 10.8774 19.75C10.7948 19.5549 10.7515 19.3455 10.75 19.1336C10.75 18.2496 11.478 17.5336 12.376 17.5336ZM27.956 15.8516C28.596 15.0836 29.648 14.7716 30.616 15.0636C31.582 15.3556 32.276 16.1916 32.372 17.1836C32.468 18.1736 31.948 19.1236 31.054 19.5896C30.41 19.9256 30.16 18.6356 29.52 18.4196L29.524 18.4136C28.95 18.2176 27.98 19.1376 27.674 18.5716C27.4423 18.1425 27.3451 17.6536 27.3951 17.1685C27.445 16.6834 27.6417 16.2245 27.956 15.8516ZM19.31 15.8516C19.954 16.6196 20.064 17.6916 19.59 18.5716C19.286 19.1376 18.31 18.2176 17.74 18.4136L17.746 18.4196C17.53 18.4916 17.358 18.6876 17.2 18.8996L16.964 19.2296C16.744 19.5296 16.524 19.7536 16.21 19.5896C15.7755 19.3652 15.4181 19.016 15.1836 18.5869C14.949 18.1578 14.8482 17.6684 14.894 17.1816C14.99 16.1916 15.684 15.3556 16.65 15.0636C17.1218 14.9208 17.6252 14.9193 18.0979 15.0594C18.5706 15.1994 18.992 15.4748 19.31 15.8516Z" fill="white" style="fill:white;fill-opacity:1;"/>
</g>
<defs>
<clipPath id="clip0_11_187">
<rect width="48" height="48" fill="white" style="fill:white;fill-opacity:1;"/>
</clipPath>
</defs>
</svg>
