<svg width="48" height="48" viewBox="0 0 48 48" fill="none" xmlns="http://www.w3.org/2000/svg">
<g clip-path="url(#clip0_6_198)">
<g clip-path="url(#clip1_6_198)">
<path fill-rule="evenodd" clip-rule="evenodd" d="M24.0006 0C37.2546 0 48.0006 10.746 48.0006 24C48.0006 37.254 37.2546 48 24.0006 48C10.7466 48 0.000610352 37.254 0.000610352 24C0.000610352 10.746 10.7466 0 24.0006 0ZM27.3046 2.246L27.2846 2.244C28.3506 2.438 29.3306 2.71 30.1046 3.052C42.2726 8.418 44.8966 21.48 33.3066 31.728C31.8041 33.0564 29.8355 33.7336 27.8338 33.6106C25.832 33.4876 23.9611 32.5744 22.6326 31.072C21.8997 30.2551 21.3602 29.2836 21.0541 28.2297C20.748 27.1757 20.6833 26.0664 20.8646 24.984C16.9966 26.184 14.2746 29.594 13.8166 33.884C13.4086 37.708 14.4646 41.972 17.9286 45.152L18.4186 45.286C20.2006 45.752 22.0726 46 24.0006 46C36.1506 46 46.0006 36.15 46.0006 24C46.0006 12.974 37.8886 3.84 27.3046 2.246ZM5.49661 12.42C5.14061 12.958 4.80061 13.492 4.47661 14.026L4.00661 14.814L4.16261 14.48C2.73528 17.4504 1.99628 20.7045 2.00061 24C2.00061 33.838 8.45661 42.166 17.3646 44.98L17.7926 45.11C7.04661 37.056 5.68061 28.298 12.9406 17.36C13.2798 16.8715 13.518 16.3203 13.6414 15.7386C13.7648 15.1569 13.7708 14.5564 13.659 13.9723C13.5473 13.3882 13.3202 12.8323 12.9908 12.3372C12.6615 11.8421 12.2366 11.4176 11.7411 11.0888C11.2457 10.76 10.6895 10.5334 10.1053 10.4223C9.52115 10.3112 8.92066 10.3179 8.33907 10.4418C7.75748 10.5658 7.20649 10.8047 6.7184 11.1443C6.2303 11.484 5.81492 11.9177 5.49661 12.42ZM25.8106 2.076C34.6266 4.736 33.0306 12.896 30.7046 15.924C28.9846 18.158 24.8606 18.844 23.2886 20.4C21.9566 21.714 21.1346 23.326 20.8646 24.984C21.8807 24.6724 22.9378 24.5133 24.0006 24.516C26.7662 24.5189 29.4377 23.5114 31.5126 21.6829C33.5875 19.8544 34.923 17.3309 35.2679 14.5869C35.6129 11.8428 34.9435 9.06731 33.3857 6.78217C31.8279 4.49702 29.4889 2.85968 26.8086 2.178C26.4762 2.13537 26.1427 2.10069 25.8086 2.074L25.8106 2.076Z" fill="white" style="fill:white;fill-opacity:1;"/>
</g>
</g>
<defs>
<clipPath id="clip0_6_198">
<rect width="48" height="48" fill="white" style="fill:white;fill-opacity:1;"/>
</clipPath>
<clipPath id="clip1_6_198">
<rect width="48" height="48" fill="white" style="fill:white;fill-opacity:1;"/>
</clipPath>
</defs>
</svg>
