<svg width="48" height="48" viewBox="0 0 48 48" fill="none" xmlns="http://www.w3.org/2000/svg">
<g clip-path="url(#clip0_6_174)">
<g clip-path="url(#clip1_6_174)">
<path d="M24 48C37.2548 48 48 37.2548 48 24C48 10.7452 37.2548 0 24 0C10.7452 0 0 10.7452 0 24C0 37.2548 10.7452 48 24 48Z" fill="#0055E9" style="fill:#0055E9;fill:color(display-p3 0.0000 0.3333 0.9137);fill-opacity:1;"/>
<path d="M24 0C25.036 0 26.056 0.066 27.056 0.192C29.9595 0.930401 32.4966 2.69698 34.1966 5.16396C35.8965 7.63093 36.6438 10.6308 36.2999 13.6069C35.956 16.5831 34.5441 19.3335 32.3264 21.3477C30.1086 23.3619 27.2354 24.5033 24.24 24.56L24 24.562C18.02 24.562 13.516 28.92 12.892 34.782C12.446 38.954 13.598 43.606 17.376 47.074C7.344 44.2 0 34.958 0 24C0 10.746 10.746 0 24 0Z" fill="#A8DFF5" style="fill:#A8DFF5;fill:color(display-p3 0.6588 0.8745 0.9608);fill-opacity:1;"/>
<path d="M10.572 9.99953C11.1055 10.3538 11.5639 10.8097 11.9212 11.3412C12.2785 11.8726 12.5275 12.4693 12.6542 13.097C12.7809 13.7247 12.7826 14.3713 12.6594 14.9997C12.5362 15.6281 12.2904 16.2261 11.936 16.7595C4.012 28.6915 5.506 38.2455 17.232 47.0315C7.272 44.1115 0 34.9035 0 23.9995C0 20.4255 0.78 17.0355 2.18 13.9875C2.686 13.1175 3.23 12.2435 3.814 11.3655C4.52915 10.2884 5.64284 9.53936 6.91015 9.2832C8.17746 9.02704 9.49463 9.2847 10.572 9.99953Z" fill="#0055E9" style="fill:#0055E9;fill:color(display-p3 0.0000 0.3333 0.9137);fill-opacity:1;"/>
<path d="M25.9599 0.080125C26.5039 0.122125 27.0459 0.186125 27.5799 0.266125C28.7459 0.478125 29.8139 0.774125 30.6559 1.14613C43.9319 7.00012 46.7959 21.2501 34.1519 32.4301C32.5128 33.879 30.3653 34.6176 28.1817 34.4833C25.9981 34.349 23.9572 33.353 22.5079 31.7141C19.4879 28.3021 19.9079 23.3461 23.2219 20.0701C24.9379 18.3741 29.4379 17.6241 31.3119 15.1881C33.8259 11.9201 35.5559 3.17013 26.2659 0.176125L25.9599 0.080125Z" fill="#00BCFF" style="fill:#00BCFF;fill:color(display-p3 0.0000 0.7373 1.0000);fill-opacity:1;"/>
<path d="M27.056 0.192078C29.9825 0.932503 32.5374 2.7172 34.2398 5.21018C35.9421 7.70316 36.6744 10.7324 36.2988 13.7277C35.9232 16.723 34.4656 19.4777 32.2004 21.4732C29.9352 23.4686 27.0187 24.5672 24 24.5621C22.8408 24.5587 21.6877 24.7307 20.58 25.0721C20.874 23.2621 21.77 21.5041 23.222 20.0701C24.938 18.3741 29.438 17.6241 31.312 15.1881C33.852 11.8861 35.592 2.98008 25.96 0.0800781C26.328 0.108078 26.694 0.146078 27.056 0.192078Z" fill="#ECECEE" style="fill:#ECECEE;fill:color(display-p3 0.9255 0.9255 0.9333);fill-opacity:1;"/>
</g>
</g>
<defs>
<clipPath id="clip0_6_174">
<rect width="48" height="48" fill="white" style="fill:white;fill-opacity:1;"/>
</clipPath>
<clipPath id="clip1_6_174">
<rect width="48" height="48" fill="white" style="fill:white;fill-opacity:1;"/>
</clipPath>
</defs>
</svg>
