<svg width="48" height="48" viewBox="0 0 48 48" fill="none" xmlns="http://www.w3.org/2000/svg">
<g clip-path="url(#clip0_7_1321)">
<path d="M15.8378 29.1531C15.7273 30.3738 15.6308 31.3984 15.5839 31.6394C15.5104 32.0222 15.4785 32.4075 15.451 32.7322L15.4462 32.9402C15.4668 33.4144 15.7044 33.8072 16.0223 34.074C16.1311 34.1651 16.4385 34.3726 16.6874 34.5388C16.8304 34.6344 16.9839 34.7342 17.1219 34.824C17.1276 35.1999 17.1386 35.8322 17.1454 36.4578C17.1502 36.9014 17.1539 37.3352 17.1571 37.658C17.1587 37.8189 17.1601 37.9534 17.161 38.0466C17.1615 38.0929 17.1617 38.1302 17.162 38.155V38.1853H0.00671387L16.0468 26.908C15.9808 27.5669 15.9072 28.3862 15.8378 29.1531ZM20.5614 10.2859C20.9802 10.1019 21.4331 10.0332 21.8895 10.073C22.1033 10.0918 22.3107 10.1859 22.5223 10.241C22.9895 10.3627 23.4365 10.53 23.8378 10.8044C23.9581 10.8871 24.0878 10.9567 24.2059 11.0408C24.2499 11.0727 24.275 11.1315 24.3075 11.1785C24.3249 11.2031 24.3363 11.2375 24.3602 11.2527C24.5811 11.3932 24.6159 11.5471 24.4725 11.7644C24.4574 11.7882 24.4429 11.8128 24.4257 11.8337C24.309 11.97 24.2853 12.1095 24.3251 12.2957C24.3867 12.5848 24.4035 12.8872 24.413 13.1843C24.4173 13.2959 24.3458 13.4097 24.3153 13.5242C24.2921 13.6097 24.2479 13.7088 24.2704 13.7849C24.3081 13.9153 24.3864 14.0365 24.4559 14.156C24.511 14.2529 24.5896 14.3369 24.6395 14.4353C24.7372 14.6258 24.6345 14.7832 24.4208 14.7839C24.1817 14.7847 24.1564 14.8147 24.1346 15.0632C24.1288 15.1312 24.0857 15.1961 24.0575 15.2605C24.0488 15.2815 24.0148 15.3024 24.0184 15.3162C24.0625 15.4726 23.9262 15.5599 23.8856 15.6824C23.8597 15.7619 23.8669 15.8552 23.8719 15.9412C23.8814 16.0882 23.8561 16.2187 23.746 16.3259C23.6605 16.4093 23.5664 16.4544 23.4432 16.4167C23.3903 16.4008 23.3268 16.3825 23.2782 16.3962C23.0509 16.4627 22.8381 16.4186 22.621 16.3484C22.458 16.2962 22.355 16.369 22.3143 16.5369C22.3035 16.581 22.274 16.6217 22.2645 16.6658C22.25 16.7317 22.2234 16.8061 22.2401 16.8669C22.2945 17.0684 22.3479 17.2737 22.4335 17.4636C22.5864 17.8028 22.6741 18.156 22.7343 18.5212C22.7734 18.7581 22.84 18.9951 22.9305 19.2175C23.3516 20.2532 23.6632 21.3203 23.8944 22.4119C24.0371 23.0858 23.9907 23.7661 23.9305 24.4451C23.9131 24.6357 23.9045 24.8277 23.8885 25.0183C23.8314 25.6791 23.9995 26.2802 24.3524 26.8396C24.7871 27.5287 24.4912 27.8734 24.4911 28.5515C24.4911 28.6 24.4868 28.6344 24.4911 28.6677C24.5244 28.9127 24.5764 29.1564 24.5887 29.4021C24.6025 29.6891 24.5939 29.9791 24.5721 30.2654C24.5577 30.4596 24.5597 30.6424 24.6307 30.8279C24.6632 30.9126 24.6423 31.016 24.6532 31.1101C24.6583 31.1563 24.671 31.2073 24.6962 31.2449C24.7781 31.3637 24.8743 31.4734 24.954 31.5945C25.0025 31.6691 25.0301 31.7585 25.0692 31.8396C25.083 31.8685 25.0998 31.8961 25.12 31.9207C25.2823 32.1192 25.4476 32.3147 25.6063 32.5154C25.7976 32.7596 25.7378 33.0238 25.6552 33.2869C25.6465 33.3158 25.6236 33.3488 25.5975 33.364C25.3794 33.4923 25.1586 33.6156 24.9384 33.741C24.9065 33.7591 24.8692 33.7722 24.8417 33.7947C24.6252 33.9718 24.3739 33.9712 24.1249 33.9119C24.027 33.8887 23.9437 33.7974 23.8466 33.7322C23.8248 33.9589 23.8028 34.2026 23.7782 34.446C23.6543 35.6563 23.5308 36.8657 23.4061 38.0759C23.4025 38.1129 23.3907 38.1491 23.3827 38.1853L18.0868 38.1843C18.0868 38.1843 18.0535 34.7938 18.0419 34.4666C18.0382 34.3644 18.0274 34.3063 17.9384 34.2527C17.618 34.0548 16.7335 33.4655 16.6161 33.3669C16.4454 33.2235 16.3525 33.0347 16.3719 32.8132C16.4002 32.4792 16.4281 32.1434 16.4911 31.8152C16.6085 31.2122 16.8949 27.4297 17.0594 26.1541C17.1478 25.4729 17.1794 24.7987 17.0692 24.1248C17.0061 23.7349 16.8722 23.3579 16.786 22.9724C16.6621 22.4173 16.5454 21.8608 16.4374 21.3035C16.2323 20.2497 16.4475 19.2574 16.8954 18.3015C17.1302 17.8008 17.4069 17.3265 17.7909 16.9236C17.7973 16.9164 17.8051 16.91 17.8094 16.9021C17.9623 16.5739 18.2671 16.3842 18.5077 16.1365C18.5599 16.0836 18.607 16.0237 18.6454 15.9607C18.7945 15.7138 18.9326 15.4603 19.0897 15.2185C19.1347 15.1504 19.2308 15.1166 19.2997 15.0623C19.3365 15.0326 19.3648 14.9937 19.3973 14.9597C19.4553 14.8981 19.4517 14.8568 19.535 14.8445C19.606 14.4829 19.6274 14.1297 19.4774 13.821C19.2275 13.3044 19.1833 12.7711 19.2841 12.2146C19.321 12.0088 19.318 11.7952 19.3622 11.5916C19.5073 10.928 19.9759 10.5431 20.5614 10.2859ZM39.995 38.1853H24.3182C24.3188 38.1803 24.3206 38.1748 24.3212 38.1697L24.4169 37.2244C25.0407 36.689 25.7127 36.1176 25.8065 36.0554C25.7537 36.1235 25.708 36.1766 25.6718 36.2302C25.6276 36.2968 25.6232 36.3542 25.7303 36.3708C25.828 36.3859 25.9206 36.3489 26.0038 36.2917C26.0646 36.2505 26.1241 36.2104 26.2167 36.2009C26.3398 36.1879 26.4156 36.1357 26.4794 36.0691C26.6162 35.9257 26.6952 35.7755 26.8661 35.6365C27.0129 35.5171 27.107 35.3969 27.1454 35.2732C27.1882 35.1328 27.2893 34.9919 27.4188 34.8494C27.526 34.7306 27.5767 34.6134 27.5927 34.4968C27.61 34.3672 27.5683 34.2551 27.5262 34.1443C27.506 34.0916 27.4856 34.038 27.4725 33.9832C27.408 33.7215 27.4594 33.4697 27.9218 33.1726C28.3326 32.9088 28.6618 32.6145 28.8553 32.2986C29.0691 31.9507 29.2381 31.6067 29.3954 31.2625C29.4084 31.2351 29.4247 31.2063 29.4413 31.1775C29.5036 31.0695 29.566 30.9604 29.4364 30.8865C29.4228 30.8778 29.4371 30.852 29.4501 30.8289C29.4543 30.8225 29.458 30.816 29.4608 30.8103C29.5485 30.6284 29.4679 30.55 29.1678 30.571C28.9937 30.5833 29.0056 30.538 29.0497 30.4578C29.1692 30.2383 29.3086 30.02 29.4911 29.8005C29.6411 29.6201 29.63 29.6186 29.9257 29.615C30.0647 29.6128 30.1996 29.5546 30.2938 29.4519C30.7568 28.9461 31.1185 28.4354 31.4315 27.9246C31.4895 27.8304 31.6184 27.7436 31.662 27.6531C31.7547 27.4633 31.8945 27.2768 32.0936 27.0935C32.1863 27.0074 32.3036 26.9208 32.3602 26.8347C32.6385 26.4144 32.7684 26.0108 32.7489 25.6238C32.7191 25.0578 32.4016 24.5851 32.1415 24.0945C32.1386 24.0895 32.1365 24.0848 32.1337 24.0798C32.0946 24.0082 32.0591 23.9449 32.2323 23.8523C32.2706 23.8313 32.2903 23.7912 32.3026 23.7615C32.3497 23.653 32.4386 23.5461 32.5507 23.4412C32.7282 23.2774 32.8849 23.11 33.0233 22.9412C33.1488 22.7891 33.434 22.728 33.576 22.8171C33.6178 22.8445 33.6575 22.8729 33.7079 22.8953C33.8812 22.9742 34.4735 22.8881 34.6454 22.7468C35.4728 22.1715 36.5343 21.036 36.7059 20.5769C36.9023 20.0848 36.5887 19.7826 36.0575 19.5681C35.6879 19.4188 35.2123 19.3637 34.7303 19.3152H33.8778C33.7758 19.3419 33.6816 19.3439 33.5839 19.3533C32.8069 19.4323 32.0533 19.5811 31.3583 20.0007C30.5751 20.4725 30.1851 21.156 30.6923 21.4734C30.758 21.5146 30.7439 21.5656 30.6688 21.6335C30.4087 21.8676 30.168 22.103 29.9969 22.3494C29.9347 22.4392 29.9188 22.5019 29.9862 22.5613C30.0701 22.6351 30.0685 22.7376 30.0555 22.8396C30.0467 22.9141 29.9292 22.9682 29.8192 23.0037C29.7325 23.0325 29.7323 23.0057 29.7323 22.9783C29.7323 22.9654 29.7311 22.953 29.7225 22.9451C29.6551 22.8866 29.5588 22.9446 29.5038 22.9939C29.4227 23.0662 29.3255 23.1147 29.204 23.1531C29.1221 23.1799 29.0578 23.2207 28.9999 23.2634C28.7477 23.4474 28.452 23.609 28.163 23.7742C27.737 24.019 27.2017 24.217 26.9725 24.5515C27.0421 24.3996 27.171 24.2527 27.2225 24.0994C27.2312 24.0734 27.2438 24.0462 27.2567 24.0203C27.3053 23.9181 27.3458 23.8314 27.1161 23.8191C27.107 23.8182 27.1056 23.8088 27.0985 23.8044C27.0094 23.7544 26.9083 23.7571 26.7909 23.8542C26.7439 23.8925 26.6886 23.9196 26.6171 23.9363C26.5332 23.9558 26.4848 23.9931 26.4637 24.0408C26.3369 24.3379 26.1692 24.6385 26.0243 24.9363C25.7852 25.4272 25.4962 25.9186 25.1659 26.4109C25.1536 26.3903 25.1429 26.3682 25.1298 26.3474C24.9043 25.9899 24.7953 25.6373 24.7968 25.2615L24.8026 25.0974L24.8046 25.0955C24.8284 24.8108 24.8233 24.7622 24.8446 24.5291V24.5261C24.9042 23.853 24.9675 23.045 24.7928 22.2205C24.7042 21.8021 24.6036 21.3858 24.4901 20.9724L40.0096 10.0623L39.995 38.1853ZM48.0087 38.1853H41.4003V10.0613H48.0087V38.1853Z" fill="black" style="fill:black;fill-opacity:1;"/>
</g>
<defs>
<clipPath id="clip0_7_1321">
<rect width="48" height="48" fill="white" style="fill:white;fill-opacity:1;"/>
</clipPath>
</defs>
</svg>
