<svg width="48" height="48" viewBox="0 0 48 48" fill="none" xmlns="http://www.w3.org/2000/svg">
<g clip-path="url(#clip0_12_1692)">
<path d="M12.7605 6.43945L23.0018 12.2955V17.1915V23.9995L12.7605 29.8555L2.64844 23.9995L12.8251 18.1435L12.7928 11.7035L12.7605 6.43945Z" fill="url(#paint0_linear_12_1692)"/>
<path d="M43.4908 35.7044V12.2964L33.2413 18.1444V29.8564L23 35.7044V47.4166L43.4908 35.7044Z" fill="#FF52C9" style="fill:#FF52C9;fill:color(display-p3 1.0000 0.3216 0.7882);fill-opacity:1;"/>
<path fill-rule="evenodd" clip-rule="evenodd" d="M12.2413 6.14402L23 0L33.7586 6.14402V6.1514L44 12V36L23 48L12.2413 41.856V41.8486L2 36.0002V23.704L12.2413 17.8481V6.14402ZM12.2413 40.6802V30.144L3.02656 24.88V35.4162L12.2413 40.6802ZM21.9651 24L12.7506 29.264L3.54388 24L12.7573 18.8141L21.9651 24ZM22.4826 23.12V12.584L13.2679 7.32002V17.8561L22.4826 23.12ZM13.7724 41.5648L22.4746 46.536V36.5922L13.7724 41.5648ZM22.992 35.12L32.2064 29.8558L22.992 24.592L13.7771 29.856L22.992 35.12ZM23.5012 36.0056L33.7586 30.144V18.4308L42.9572 13.176V35.416L23.5012 46.5314V36.0056ZM23.5012 46.5314V46.536H23.493L23.5012 46.5314ZM33.7586 17.2645V7.32748L42.4562 12.296L33.7586 17.2645ZM32.724 7.32748V17.2645L24.0266 12.296L32.724 7.32748ZM23.5092 13.176V23.712L32.724 28.976V18.44L23.5092 13.176ZM13.2679 30.7406L21.9631 35.7078L13.2679 40.6756V30.7406ZM13.2679 40.6756V40.6802H13.2598L13.2679 40.6756ZM32.2148 6.44002L23 11.704L13.7852 6.44002L23 1.176L32.2148 6.44002Z" fill="white" style="fill:white;fill-opacity:1;"/>
</g>
<defs>
<linearGradient id="paint0_linear_12_1692" x1="3.25904" y1="18.1435" x2="23.0018" y2="18.1435" gradientUnits="userSpaceOnUse">
<stop stop-color="#57B7FF" style="stop-color:#57B7FF;stop-color:color(display-p3 0.3412 0.7176 1.0000);stop-opacity:1;"/>
<stop offset="1" stop-color="#57B7FF" style="stop-color:#57B7FF;stop-color:color(display-p3 0.3412 0.7176 1.0000);stop-opacity:1;"/>
</linearGradient>
<clipPath id="clip0_12_1692">
<rect width="48" height="48" fill="white" style="fill:white;fill-opacity:1;"/>
</clipPath>
</defs>
</svg>
