<svg width="48" height="48" viewBox="0 0 48 48" fill="none" xmlns="http://www.w3.org/2000/svg">
<g clip-path="url(#clip0_12_1704)">
<path d="M33.7588 6.14355V6.15137L44 12V36L23 48L12.2412 41.8564V41.8486L2 36V23.7041L11.7529 18.126L22.9834 24.5957L13.7773 29.8564L22.9922 35.1201L32.2061 29.8555L23.5078 24.8857V24.293L23.5117 23.7148L12.2412 17.25V6.14355L23 0L33.7588 6.14355ZM13.7725 41.5645L22.4746 46.5361V36.5918L13.7725 41.5645ZM3.02637 35.416L12.2412 40.6807V30.1436L3.02637 24.8799V35.416ZM13.2598 40.6807H13.2676V40.6758L13.2598 40.6807ZM13.2676 40.6758L21.9629 35.708L13.2676 30.7402V40.6758ZM23.5088 23.7119L32.7236 28.9756V18.4404L23.5088 13.1758V23.7119ZM24.0264 12.2959L32.7236 17.2646V7.32715L24.0264 12.2959ZM33.7588 17.2646L42.4561 12.2959L33.7588 7.32715V17.2646ZM13.7852 6.44043L23 11.7041L32.2148 6.44043L23 1.17578L13.7852 6.44043Z" fill="white" style="fill:white;fill-opacity:1;"/>
</g>
<defs>
<clipPath id="clip0_12_1704">
<rect width="48" height="48" fill="white" style="fill:white;fill-opacity:1;"/>
</clipPath>
</defs>
</svg>
