<svg width="48" height="48" viewBox="0 0 48 48" fill="none" xmlns="http://www.w3.org/2000/svg">
<g clip-path="url(#clip0_6_1736)">
<path d="M12.0696 22.401V15.0468C12.0696 14.5884 12.4416 14.2163 12.9001 14.2163H35.8871C36.3455 14.2163 36.7176 14.5884 36.7176 15.0468V22.401H40.7798V15.0468C40.7798 12.3487 38.5852 10.1541 35.8871 10.1541H12.9001C10.2019 10.1541 8.00732 12.3487 8.00732 15.0468V22.401H12.0696Z" fill="#030303" style="fill:#030303;fill:color(display-p3 0.0118 0.0118 0.0118);fill-opacity:1;"/>
<path d="M36.7176 26.0274V33.3815C36.7176 33.84 36.3455 34.212 35.8871 34.212H12.9001C12.4416 34.212 12.0696 33.84 12.0696 33.3815V26.0274H8.00732V33.3815C8.00732 36.0797 10.2019 38.2743 12.9001 38.2743H35.8871C38.5852 38.2743 40.7798 36.0797 40.7798 33.3815V26.0274H36.7176Z" fill="#030303" style="fill:#030303;fill:color(display-p3 0.0118 0.0118 0.0118);fill-opacity:1;"/>
<path d="M16.147 21.5056V26.406L0.00732422 32.4324V27.7302L10.1196 23.9539L0.00732422 20.1775V15.4763L16.147 21.5056ZM48.0073 20.1775L37.895 23.9539L48.0073 27.7302V32.4324L31.8667 26.406V21.5056L48.0073 15.4763V20.1775ZM27.3071 20.155L25.105 27.5652H20.7046L22.9067 20.155H27.3071Z" fill="#489034" style="fill:#489034;fill:color(display-p3 0.2824 0.5647 0.2039);fill-opacity:1;"/>
</g>
<defs>
<clipPath id="clip0_6_1736">
<rect width="48" height="48" fill="white" style="fill:white;fill-opacity:1;"/>
</clipPath>
</defs>
</svg>
