<svg width="48" height="48" viewBox="0 0 48 48" fill="none" xmlns="http://www.w3.org/2000/svg">
<g clip-path="url(#clip0_7_1405)">
<path fill-rule="evenodd" clip-rule="evenodd" d="M39.4721 11.6143C39.7981 11.1963 40.0841 10.8143 40.3861 10.4443C40.5261 10.2703 40.5141 10.1383 40.3781 9.95635C39.0681 8.23435 38.9441 6.32235 39.6981 4.38235C40.2641 2.92235 41.5161 2.23835 43.0461 2.09235C44.0001 2.00235 44.9361 2.10035 45.8041 2.56435C46.9441 3.17435 47.6081 4.10435 47.8241 5.38835C47.9961 6.41235 47.9641 7.41235 47.6741 8.40435C47.1601 10.1603 45.8981 11.0703 44.1681 11.3003C42.7321 11.4923 41.2761 11.5163 39.8281 11.6143C39.7161 11.6223 39.6021 11.6143 39.4721 11.6143Z" fill="#027AFF" style="fill:#027AFF;fill:color(display-p3 0.0078 0.4784 1.0000);fill-opacity:1;"/>
<path fill-rule="evenodd" clip-rule="evenodd" d="M35.924 3.75H27.272L20.422 19.37H10.738V3.818H3V44.062H10.74V27.108H24.388C25.5409 27.1079 26.6697 26.7785 27.6416 26.1584C28.6136 25.5383 29.3881 24.6535 29.874 23.608V44.062H37.614V27.108C37.6141 25.1528 36.8743 23.2699 35.5431 21.8378C34.2119 20.4057 32.388 19.5305 30.438 19.388V19.368H26.188C27.212 19.0182 28.1531 18.4611 28.9524 17.7317C29.7517 17.0022 30.3922 16.1159 30.834 15.128L35.924 3.75Z" fill="black" style="fill:black;fill-opacity:1;"/>
</g>
<defs>
<clipPath id="clip0_7_1405">
<rect width="48" height="48" fill="white" style="fill:white;fill-opacity:1;"/>
</clipPath>
</defs>
</svg>
