<svg width="48" height="48" viewBox="0 0 48 48" fill="none" xmlns="http://www.w3.org/2000/svg">
<g clip-path="url(#clip0_12_1623)">
<g clip-path="url(#clip1_12_1623)">
<path d="M23.9768 0C37.2654 6.56555e-05 48.005 10.7207 48.0051 23.9844C48.0051 37.2481 37.2655 47.9687 23.9768 47.9688C10.6912 47.9688 -0.048584 37.2482 -0.048584 23.9844C-0.0484853 10.7206 10.6913 0 23.9768 0ZM23.9709 9.72168C19.0932 9.72168 15.0309 13.2795 14.262 17.958C10.0129 18.2631 6.66919 21.8059 6.66919 26.1172C6.66935 30.6556 10.3524 34.3193 14.8752 34.3193C17.3154 34.3192 19.5066 33.2484 21.01 31.5615L23.3264 34.873C24.17 36.0216 25.5205 36.7753 27.0364 36.7754C27.302 36.7754 27.559 36.7544 27.8059 36.7129C28.8795 36.5292 29.8288 35.9785 30.5042 35.1943C30.1214 35.3623 29.707 35.4551 29.2776 35.4551C28.294 35.455 27.4225 34.9786 26.884 34.2285L21.135 26.0078C21.4556 25.7931 21.8384 25.6562 22.2678 25.6562C22.8808 25.6563 23.4191 25.9331 23.7864 26.3779L27.4231 31.5615C28.7243 33.2329 30.782 34.3193 33.0667 34.3193L33.387 34.3066C37.7728 34.1354 41.2872 30.5341 41.2874 26.1172C41.2874 21.8059 37.928 18.2631 33.679 17.958C32.91 13.2797 28.8641 9.72191 23.9709 9.72168ZM23.9709 13.0332C27.177 13.0334 29.8449 15.3341 30.4114 18.3721C30.484 18.7601 30.525 19.1586 30.5354 19.5674C30.5354 20.5791 30.3049 21.5471 29.8909 22.4062C30.75 21.6685 31.8526 21.2236 33.0667 21.2236C33.2699 21.2236 33.4694 21.2341 33.6643 21.2549C36.1014 21.5477 37.9719 23.6177 37.9719 26.1172C37.9718 28.8313 35.7807 31.0222 33.0667 31.0225L32.8206 31.0068C31.6097 30.9321 30.5508 30.3033 29.8909 29.3975C29.8653 29.3522 28.3223 27.1559 27.4504 25.918L27.2356 25.6094C26.5166 24.6913 25.4119 24.091 24.1545 24.0908C23.5413 24.0908 22.9744 24.2306 22.4514 24.4766C21.8538 24.7661 21.3335 25.2108 20.9475 25.7617L20.8264 25.5781C20.5058 25.1486 20.0602 24.8125 19.5374 24.6133C19.6899 25.0895 19.7834 25.5942 19.7834 26.1172C19.7834 26.8671 19.6159 27.5735 19.3079 28.2021C19.2269 28.3848 19.1351 28.5587 19.0334 28.7227C18.1588 30.1045 16.6243 31.0223 14.8752 31.0225C12.1609 31.0225 9.96916 28.8314 9.96899 26.1172C9.96899 23.6177 11.8551 21.5477 14.2922 21.2549C14.4769 21.2341 14.6719 21.2236 14.8752 21.2236C16.0891 21.2238 17.2066 21.6686 18.0657 22.4062C17.6517 21.5471 17.4211 20.5791 17.4211 19.5674C17.4211 19.1534 17.4673 18.7549 17.5295 18.3721C18.0961 15.3339 20.7647 13.0332 23.9709 13.0332Z" fill="white" style="fill:white;fill-opacity:1;"/>
</g>
</g>
<defs>
<clipPath id="clip0_12_1623">
<rect width="48" height="48" fill="white" style="fill:white;fill-opacity:1;"/>
</clipPath>
<clipPath id="clip1_12_1623">
<rect width="48.0934" height="48" fill="white" style="fill:white;fill-opacity:1;" transform="translate(-0.0466309)"/>
</clipPath>
</defs>
</svg>
