<svg width="48" height="48" viewBox="0 0 48 48" fill="none" xmlns="http://www.w3.org/2000/svg">
<g clip-path="url(#clip0_12_1610)">
<g clip-path="url(#clip1_12_1610)">
<path fill-rule="evenodd" clip-rule="evenodd" d="M23.9767 47.969C10.6911 47.969 -0.0482178 37.2484 -0.0482178 23.9846C-0.0482178 10.7207 10.6911 0.00012207 23.9767 0.00012207C37.2654 0.00012207 48.0047 10.7207 48.0047 23.9846C48.0047 37.2484 37.2654 47.969 23.9767 47.969Z" fill="#E5002E" style="fill:#E5002E;fill:color(display-p3 0.8980 0.0000 0.1804);fill-opacity:1;"/>
<path d="M33.6794 17.9581C32.9106 13.2795 28.8639 9.72156 23.9705 9.72156C19.0927 9.72156 15.0304 13.2795 14.2615 17.9581C10.0125 18.2632 6.66931 21.8056 6.66931 26.1169C6.66931 30.6554 10.3518 34.3192 14.8748 34.3192C17.3152 34.3192 19.5067 33.2484 21.0102 31.5612L23.3261 34.8733C24.1697 36.0219 25.5207 36.7753 27.0366 36.7753C27.3023 36.7753 27.5585 36.7545 27.8055 36.713C28.8794 36.5293 29.8288 35.9784 30.5043 35.1939C30.1215 35.362 29.7074 35.4554 29.2779 35.4554C28.2942 35.4554 27.4226 34.9791 26.8841 34.229L21.1347 26.0079C21.4553 25.7932 21.8382 25.6562 22.2678 25.6562C22.881 25.6562 23.4195 25.9332 23.7868 26.3784L27.4226 31.5612C28.7238 33.2328 30.7814 34.3192 33.0662 34.3192L33.3868 34.3068C37.7728 34.1356 41.2872 30.534 41.2872 26.1169C41.2872 21.8056 37.9285 18.2632 33.6794 17.9581ZM33.0662 31.0227L32.8203 31.0072C31.6094 30.9325 30.551 30.3037 29.8911 29.3978C29.8755 29.3667 28.3253 27.1597 27.4506 25.9177L27.2358 25.6095C26.5168 24.6912 25.4117 24.0904 24.1541 24.0904C23.5409 24.0904 22.9744 24.2305 22.4514 24.4764C21.8537 24.7659 21.3339 25.2111 20.9479 25.762L20.8265 25.5784C20.5059 25.1488 20.0608 24.8126 19.5378 24.6134C19.6903 25.0897 19.7837 25.5939 19.7837 26.1169C19.7837 26.8671 19.6156 27.5737 19.3074 28.2025C19.2265 28.3851 19.1352 28.5584 19.0335 28.7223C18.1588 30.1044 16.6242 31.0227 14.8748 31.0227C12.1604 31.0227 9.96892 28.8313 9.96892 26.1169C9.96892 23.6173 11.8553 21.5472 14.2927 21.2546C14.4774 21.2339 14.6714 21.2235 14.8748 21.2235C16.0888 21.2235 17.2063 21.6686 18.0654 22.4064C17.6514 21.5472 17.4211 20.5791 17.4211 19.5675C17.4211 19.1535 17.4678 18.755 17.53 18.3721C18.0965 15.334 20.7643 13.0336 23.9705 13.0336C27.1767 13.0336 29.8444 15.334 30.4109 18.3721C30.4836 18.7602 30.5251 19.1587 30.5355 19.5675C30.5355 20.5791 30.3051 21.5472 29.8911 22.4064C30.7502 21.6686 31.8522 21.2235 33.0662 21.2235C33.2696 21.2235 33.4688 21.2339 33.6639 21.2546C36.1012 21.5472 37.972 23.6173 37.972 26.1169C37.972 28.8313 35.7806 31.0227 33.0662 31.0227Z" fill="white" style="fill:white;fill-opacity:1;"/>
</g>
</g>
<defs>
<clipPath id="clip0_12_1610">
<rect width="48" height="48" fill="white" style="fill:white;fill-opacity:1;"/>
</clipPath>
<clipPath id="clip1_12_1610">
<rect width="48.0934" height="48" fill="white" style="fill:white;fill-opacity:1;" transform="translate(-0.0466309)"/>
</clipPath>
</defs>
</svg>
