<svg width="48" height="48" viewBox="0 0 48 48" fill="none" xmlns="http://www.w3.org/2000/svg">
<g clip-path="url(#clip0_6_1648)">
<g clip-path="url(#clip1_6_1648)">
<path fill-rule="evenodd" clip-rule="evenodd" d="M14.842 0.0336342C18.754 -0.240366 22.202 2.48163 22.706 6.23963C23.186 9.80763 20.742 13.2596 17.07 14.0696C16.15 14.2736 15.13 14.2156 14.154 14.3396C11.8487 14.611 9.70373 15.6567 8.06999 17.3056L8.04999 17.3156L8.02999 17.3136L8.01599 17.3016L8.00999 17.2816C8.00982 17.2696 8.01331 17.2577 8.01999 17.2476C8.03028 17.233 8.03587 17.2155 8.03599 17.1976C8.01129 13.8457 8.00396 10.4937 8.01399 7.14163C8.01999 3.42163 10.958 0.309634 14.842 0.0336342Z" fill="white" style="fill:white;fill-opacity:1;"/>
<path fill-rule="evenodd" clip-rule="evenodd" d="M15.254 31.1239C10.278 31.0839 6.712 26.1839 8.444 21.6019C8.92917 20.3344 9.75672 19.2264 10.8345 18.4016C11.9122 17.5767 13.1978 17.0672 14.548 16.9299C15.398 16.8399 16.42 16.8619 17.238 16.7119C21.446 15.9319 24.698 12.7119 25.354 8.61386C25.5 7.70586 25.422 6.62186 25.638 5.65786C26.632 1.19386 31.748 -1.31014 36.044 0.705861C38.282 1.75986 39.784 3.74986 40.156 6.12586C40.23 6.61186 40.256 7.21586 40.23 7.93586C39.744 20.8719 28.694 31.2299 15.254 31.1199M21.524 33.1799C21.503 33.1719 21.4858 33.1561 21.476 33.1359V33.1219L21.48 33.1099C21.48 33.1039 21.48 33.1019 21.486 33.0999L21.498 33.0939C26.604 31.9239 31.026 29.5739 34.768 26.0419C34.834 25.9799 34.896 25.9839 34.952 26.0559C35.55 26.8479 36.178 27.6959 36.678 28.5059C38.7187 31.7725 39.9241 35.4912 40.188 39.3339C40.242 40.1159 40.26 40.7199 40.24 41.1479C40.054 44.9239 36.896 47.9679 32.91 47.9899C29.384 48.0119 26.284 45.6059 25.616 42.2399C25.456 41.4419 25.504 40.3399 25.372 39.4979C24.956 36.9079 23.69 34.8099 21.574 33.2099L21.524 33.1799ZM14.064 47.8839C11.068 47.3639 8.658 45.0359 8.12 42.1419C8.03391 41.5425 7.99712 40.9372 8.01 40.3319V30.7599C8.01 30.7279 8.02 30.7239 8.044 30.7439C10.002 32.4839 12.062 33.5479 14.75 33.7239L15.47 33.7459C18.972 33.8599 21.938 36.1539 22.622 39.4859C23.634 44.4139 19.174 48.7759 14.062 47.8859L14.064 47.8839Z" fill="white" style="fill:white;fill-opacity:1;"/>
</g>
</g>
<defs>
<clipPath id="clip0_6_1648">
<rect width="48" height="48" fill="white" style="fill:white;fill-opacity:1;"/>
</clipPath>
<clipPath id="clip1_6_1648">
<rect width="48" height="48" fill="white" style="fill:white;fill-opacity:1;"/>
</clipPath>
</defs>
</svg>
