<svg width="48" height="48" viewBox="0 0 48 48" fill="none" xmlns="http://www.w3.org/2000/svg">
<g clip-path="url(#clip0_5_149)">
<path fill-rule="evenodd" clip-rule="evenodd" d="M40.84 38.622H47.676V2L34.114 10.354L20.558 2.132L20.61 17.868H27.446L27.394 13.424L34.234 17.494L40.84 13.424V38.622Z" fill="black" style="fill:black;fill-opacity:1;"/>
<path fill-rule="evenodd" clip-rule="evenodd" d="M6.12799 21.4682C11.696 17.3282 20.012 16.6802 26.01 23.2822L26.03 23.3022L26.05 23.3282L44.37 47.8082H36.69L21.31 27.3742C18.05 23.9002 13.528 23.9962 10.28 26.0982C7.03199 28.1982 5.15399 32.2442 7.18399 36.6582C10.172 43.1502 19.488 43.2082 22.634 36.8742L22.698 36.7462L26.738 42.0042C20.778 49.9402 8.07999 49.8562 2.40799 40.9002C-2.38201 33.3402 0.55599 25.6102 6.12799 21.4682Z" fill="black" style="fill:black;fill-opacity:1;"/>
</g>
<defs>
<clipPath id="clip0_5_149">
<rect width="48" height="48" fill="white" style="fill:white;fill-opacity:1;"/>
</clipPath>
</defs>
</svg>
