<svg width="48" height="48" viewBox="0 0 48 48" fill="none" xmlns="http://www.w3.org/2000/svg">
<path d="M35.7869 24.5901C40.2152 24.5902 43.8055 28.1804 43.8055 32.6086V38.9758C43.8055 43.4041 40.2152 46.9943 35.7869 46.9944H23.9949C20.4385 46.9944 17.4245 44.6782 16.3748 41.4729L9.34747 44.9954C7.42593 45.958 5.08822 45.1816 4.12482 43.26C3.85326 42.7191 3.71177 42.1222 3.71173 41.5168V30.095C3.71195 27.9464 5.45381 26.2046 7.60236 26.2043C8.2129 26.2041 8.81553 26.3474 9.36017 26.6233L16.3563 30.1643C17.3902 26.9314 20.4181 24.5901 23.994 24.5901H35.7869ZM24.1121 28.7161C21.9197 28.7161 20.1384 30.476 20.1024 32.6594V38.8577C20.1024 41.0499 21.8616 42.8312 24.0447 42.8674H35.6678C37.86 42.8672 39.6415 41.1074 39.6776 38.9241V32.7258C39.6775 30.5335 37.9175 28.7521 35.7342 28.7161H24.1121ZM8.89923 31.2024C8.32004 31.2024 7.84919 31.6674 7.83868 32.2444V39.4241C7.83872 39.5917 7.87799 39.757 7.95392 39.9065C8.21729 40.4227 8.84562 40.6303 9.36407 40.3782L9.38165 40.3694L15.9744 37.0071V34.6292L9.37579 31.3157C9.22798 31.2421 9.0643 31.2024 8.89923 31.2024ZM18.6932 1.00513C22.7606 1.00513 26.3039 3.24599 28.1609 6.55786C29.8236 5.01597 32.0482 4.07056 34.4949 4.07056C39.6397 4.07063 43.8104 8.24213 43.8104 13.387C43.8103 18.5317 39.6397 22.7023 34.4949 22.7024C31.4008 22.7024 28.6599 21.1924 26.9656 18.8704C24.9751 21.2135 22.0088 22.7024 18.6932 22.7024C12.702 22.7024 7.84454 17.845 7.84454 11.8538C7.84461 5.86261 12.7013 1.00516 18.6932 1.00513ZM18.6932 5.36841C15.1113 5.36845 12.2079 8.27186 12.2078 11.8538C12.2078 15.4357 15.1112 18.3391 18.6932 18.3391C22.2752 18.3391 25.1785 15.4357 25.1785 11.8538C25.1785 8.27184 22.2751 5.36841 18.6932 5.36841ZM34.4949 8.43384C31.7593 8.43384 29.5418 10.6513 29.5418 13.387C29.5419 16.1225 31.7594 18.3391 34.4949 18.3391C37.2304 18.339 39.448 16.1225 39.4481 13.387C39.4481 10.6514 37.2305 8.43392 34.4949 8.43384Z" fill="white" style="fill:white;fill-opacity:1;"/>
</svg>
