<svg width="48" height="48" viewBox="0 0 48 48" fill="none" xmlns="http://www.w3.org/2000/svg">
<g clip-path="url(#clip0_6_1803)">
<path d="M39.1824 5.50783C40.1419 5.19896 40.5406 5.18793 40.907 5.45998C41.3204 5.76722 43.319 7.81374 43.3904 8.00295C43.4705 8.21851 43.4189 8.49583 43.2742 8.62697C43.2115 8.68371 42.5745 8.84962 41.8308 9.00295C39.9447 9.39188 38.3656 9.8053 36.8894 10.2969C35.6274 10.7172 33.7994 11.4453 33.8045 11.5254C33.8067 11.5479 34.279 11.7977 34.8543 12.0801C37.5159 13.3867 39.733 15.3629 41.2117 17.7461C41.7591 18.6283 41.8872 18.9482 41.8074 19.2383C41.7704 19.3723 41.6666 19.5668 41.6345 19.5987C41.576 19.6628 40.9659 19.918 40.2781 20.166L39.0271 20.6172L39.4422 21.459C40.167 22.9275 40.6443 24.448 40.9129 26.1426C41.1015 27.3323 41.0844 30.2392 40.8806 31.5127C40.1086 36.3381 37.8822 40.4126 34.4334 43.3125C31.3227 45.9279 27.165 47.5165 22.9275 47.709C21.8005 47.7602 21.5581 47.6949 21.365 47.2881C21.2575 47.0614 21.2623 47.0058 21.4968 45.6856C21.6304 44.9333 21.7304 44.3108 21.7195 44.3028C21.695 44.2915 21.5536 44.2802 21.6365 44.291C27.261 43.9651 32.8844 41.5769 35.9334 35.4326C38.0934 31.0794 37.98 27.4733 36.9939 24.7119C36.9979 24.7155 36.9998 24.7154 36.9998 24.7119C36.9989 24.5607 36.4712 23.2733 36.155 22.6524C35.4415 21.2509 34.12 19.4733 33.1052 18.5488C31.5388 17.1218 29.8801 16.1075 28.2 15.5498C23.7242 14.0642 18.4544 14.7944 14.7302 17.5362C14.035 18.048 12.6273 19.4499 12.0867 20.168C11.3623 21.1304 10.9516 21.9484 10.4002 23.2334C10.0506 24.0481 9.72197 24.612 9.58864 24.4453C9.45638 24.2769 9.78877 23.0801 9.83278 22.9541C9.8766 22.8289 10.828 19.3036 12.2332 17.6035C12.9612 16.6035 13.5806 15.8276 14.614 14.8291C17.2677 12.2649 20.377 10.7976 24.2332 10.291C25.4492 10.1313 27.7897 10.1329 29.0164 10.294L29.9334 10.4141L30.6502 9.88186C33.2386 7.95925 36.0603 6.51274 39.1824 5.50783Z" fill="url(#paint0_linear_6_1803)"/>
<path fill-rule="evenodd" clip-rule="evenodd" d="M19.4375 0.266602C19.57 0.267415 20.7446 0.79586 22.6719 1.72168C25.218 2.94487 25.7096 3.20364 25.7597 3.3457C25.8935 3.72545 25.813 3.80024 24.4179 4.59668C17.3517 8.63102 12.6581 12.7918 10.4004 17.0215C9.42216 18.8542 8.57607 21.389 8.20506 23.5996C7.37075 28.5713 8.61056 33.0197 11.7929 36.4707C14.0086 38.8732 17.3891 40.5378 20.8613 40.9365C21.8786 41.0533 23.9632 40.9854 24.9336 40.8037C27.4576 40.331 30.2303 38.8606 32.2256 36.9355C34.2079 35.0229 35.4218 32.6519 35.834 29.8906C35.9718 28.9667 35.9731 27.3305 35.8369 26.3721C35.5825 24.582 34.8866 22.6569 33.9258 21.0869C33.7752 20.8408 33.647 20.6083 33.6406 20.5693C33.6348 20.5313 33.6042 20.4597 33.5732 20.4102C33.4351 20.1888 33.8038 20.4892 34.2705 20.9785C35.0806 21.8277 36.0263 23.1 36.6885 24.2314C36.8387 24.4882 36.9654 24.6864 36.9941 24.7119C37.9802 27.4733 38.0936 31.0794 35.9336 35.4326C32.8847 41.5769 27.2612 43.9651 21.6367 44.291C21.4981 44.273 21.2027 44.2392 20.8672 44.2061C17.6012 43.8833 14.74 42.8469 12 40.9932C10.9381 40.2747 10.2247 39.6903 9.36229 38.833C6.53166 36.019 4.79304 32.3412 4.19334 27.9004C3.99915 26.4622 3.98164 23.7661 4.15721 22.334C4.80727 17.0323 7.26721 11.7304 11.2431 7.0625C12.1301 6.02117 14.189 3.97765 15.1972 3.1377C16.4643 2.08203 18.2308 0.802783 18.9687 0.407227C19.1131 0.329827 19.3244 0.266602 19.4375 0.266602Z" fill="url(#paint1_linear_6_1803)"/>
</g>
<defs>
<linearGradient id="paint0_linear_6_1803" x1="40" y1="13.5" x2="10" y2="22" gradientUnits="userSpaceOnUse">
<stop offset="0.483971" stop-color="white" style="stop-color:white;stop-opacity:1;"/>
<stop offset="1" stop-color="white" stop-opacity="0.6" style="stop-color:white;stop-opacity:0.6;"/>
</linearGradient>
<linearGradient id="paint1_linear_6_1803" x1="5.49997" y1="30" x2="36.5" y2="33" gradientUnits="userSpaceOnUse">
<stop stop-color="white" style="stop-color:white;stop-opacity:1;"/>
<stop offset="1" stop-color="white" stop-opacity="0.6" style="stop-color:white;stop-opacity:0.6;"/>
</linearGradient>
<clipPath id="clip0_6_1803">
<rect width="48" height="48" fill="white" style="fill:white;fill-opacity:1;"/>
</clipPath>
</defs>
</svg>
