<svg width="48" height="48" viewBox="0 0 48 48" fill="none" xmlns="http://www.w3.org/2000/svg">
<g clip-path="url(#clip0_12_1635)">
<g clip-path="url(#clip1_12_1635)">
<path d="M31.6204 39.2664L37.0411 42.1408C37.1546 42.201 37.1982 42.342 37.1382 42.4555L34.2638 47.8763C34.2035 47.9899 34.0627 48.0336 33.949 47.9734L28.5283 45.099C28.4149 45.0386 28.371 44.8977 28.4312 44.7842L31.3056 39.3635C31.3659 39.2502 31.5069 39.2065 31.6204 39.2664Z" fill="url(#paint0_linear_12_1635)"/>
<path d="M23.2431 38.8428L27.107 40.8919C27.2201 40.9524 27.2625 41.0933 27.2024 41.2067L25.155 45.0688C25.0947 45.1824 24.9538 45.2262 24.8402 45.1659L20.9764 43.1185C20.863 43.0582 20.8209 42.9173 20.881 42.8038L22.9284 38.9399C22.9886 38.8264 23.1295 38.7827 23.2431 38.8428Z" fill="url(#paint1_linear_12_1635)"/>
<path d="M40.6873 39.5041L43.232 40.8534C43.3453 40.9136 43.3888 41.0547 43.3291 41.1682L41.9797 43.7128C41.9196 43.8263 41.7786 43.8699 41.665 43.8099L39.1204 42.4606C39.0068 42.4003 38.9631 42.2594 39.0233 42.1458L40.3726 39.6012C40.4329 39.4879 40.5739 39.4442 40.6873 39.5041Z" fill="url(#paint2_linear_12_1635)"/>
<path d="M17.6114 29.2368L23.3469 32.277C23.4605 32.3372 23.5041 32.4781 23.444 32.5917L20.4038 38.3289C20.3436 38.4423 20.2027 38.4844 20.0891 38.4243L14.3519 35.3841C14.2386 35.3239 14.195 35.1828 14.2548 35.0694L17.2967 29.3322C17.3571 29.2191 17.498 29.1767 17.6114 29.2368Z" fill="url(#paint3_linear_12_1635)"/>
<path d="M27.7029 32.4494L31.0394 34.2173C31.1527 34.2777 31.195 34.4186 31.1349 34.532L29.367 37.8685C29.3067 37.9818 29.1658 38.0241 29.0523 37.9639L25.7158 36.1961C25.6026 36.1357 25.5602 35.9948 25.6204 35.8813L27.3882 32.5448C27.4486 32.4317 27.5896 32.3893 27.7029 32.4494Z" fill="url(#paint4_linear_12_1635)"/>
<path d="M7.37929 26.873L14.1812 30.479C14.2947 30.5392 14.3367 30.6802 14.2766 30.7937L10.6723 37.5956C10.6121 37.709 10.471 37.7524 10.3575 37.6927L3.55563 34.0867C3.44206 34.0265 3.39841 33.8855 3.45853 33.7719L7.06455 26.9701C7.12482 26.8568 7.26584 26.8131 7.37929 26.873Z" fill="url(#paint5_linear_12_1635)"/>
<path d="M35.7855 31.9154L38.7939 33.5091C38.907 33.5695 38.9494 33.7105 38.8893 33.8238L37.2956 36.8305C37.2354 36.9441 37.0945 36.9878 36.9809 36.9276L33.9725 35.3339C33.859 35.2736 33.8169 35.1327 33.8771 35.0192L35.4708 32.0108C35.5311 31.8974 35.672 31.8552 35.7855 31.9154Z" fill="url(#paint6_linear_12_1635)"/>
<path d="M23.7922 25.6191L27.1287 27.3886C27.2417 27.4491 27.2842 27.59 27.2242 27.7033L25.4563 31.0381C25.3961 31.1517 25.2551 31.1953 25.1416 31.1352L21.8051 29.3674C21.6917 29.3072 21.6497 29.1661 21.7096 29.0526L23.4775 25.7161C23.5377 25.6026 23.6786 25.559 23.7922 25.6191Z" fill="url(#paint7_linear_12_1635)"/>
<path d="M16.7141 21.8674L20.0506 23.6369C20.1636 23.6974 20.2061 23.8383 20.146 23.9516L18.3782 27.2865C18.318 27.4 18.177 27.4437 18.0634 27.3836L14.7269 25.6157C14.6136 25.5555 14.5716 25.4145 14.6315 25.301L16.3994 21.9645C16.4596 21.8509 16.6005 21.8073 16.7141 21.8674Z" fill="url(#paint8_linear_12_1635)"/>
<path d="M10.8547 23.0744L13.0009 24.2128C13.1142 24.2732 13.1565 24.4141 13.0964 24.5275L11.9596 26.6737C11.8993 26.787 11.7584 26.8293 11.6449 26.7692L9.49871 25.6324C9.3853 25.5721 9.3431 25.4312 9.40328 25.3177L10.54 23.1715C10.6003 23.0583 10.7413 23.0145 10.8547 23.0744Z" fill="url(#paint9_linear_12_1635)"/>
<path d="M23.6449 18.931L25.9451 20.1514C26.0588 20.2117 26.1025 20.3525 26.0422 20.4661L24.8218 22.7664C24.7616 22.88 24.6207 22.9237 24.5071 22.8635L22.2069 21.643C22.0935 21.5827 22.0496 21.4418 22.1098 21.3283L23.3302 19.0281C23.3904 18.9145 23.5313 18.8709 23.6449 18.931Z" fill="url(#paint10_linear_12_1635)"/>
<path d="M15.0333 16.2307L17.3335 17.4511C17.4471 17.5113 17.4909 17.6522 17.4306 17.7658L16.2102 20.066C16.1499 20.1794 16.009 20.2233 15.8955 20.1631L13.5952 18.9427C13.4818 18.8824 13.4381 18.7415 13.4981 18.628L14.7186 16.3278C14.7788 16.2141 14.9197 16.1704 15.0333 16.2307Z" fill="url(#paint11_linear_12_1635)"/>
<path d="M25.4329 12.2228L28.7694 13.9907C28.8826 14.051 28.9247 14.192 28.8648 14.3054L27.0969 17.6419C27.0367 17.7554 26.8957 17.799 26.7822 17.739L23.4457 15.9695C23.3326 15.9091 23.2902 15.7681 23.3503 15.6548L25.1181 12.3199C25.1784 12.2063 25.3192 12.1626 25.4329 12.2228Z" fill="url(#paint12_linear_12_1635)"/>
<path d="M20.29 14.4812L21.8503 15.3082C21.9636 15.3684 22.0071 15.5095 21.9474 15.623L21.1204 17.1832C21.0603 17.2966 20.9191 17.34 20.8056 17.2803L19.2454 16.4533C19.1318 16.3931 19.0882 16.2522 19.1483 16.1386L19.9753 14.5783C20.0355 14.4648 20.1764 14.4211 20.29 14.4812Z" fill="url(#paint13_linear_12_1635)"/>
<path d="M18.2878 5.83613L21.6745 7.63244C21.7881 7.69268 21.8318 7.83356 21.7716 7.94718L19.9753 11.3339C19.915 11.4475 19.7742 11.4912 19.6605 11.431L16.2738 9.63468C16.1604 9.57435 16.1165 9.43345 16.1767 9.31994L17.973 5.93322C18.0332 5.81967 18.1742 5.77603 18.2878 5.83613Z" fill="url(#paint14_linear_12_1635)"/>
<path d="M25.4329 5.26191L27.6778 6.4522C27.7915 6.51243 27.8352 6.65331 27.7749 6.76693L26.5846 9.01191C26.5245 9.1254 26.3835 9.16895 26.2699 9.10901L24.0249 7.91872C23.9115 7.85856 23.8679 7.71753 23.9278 7.60398L25.1181 5.35733C25.1786 5.2442 25.3195 5.20179 25.4329 5.26191Z" fill="url(#paint15_linear_12_1635)"/>
<path d="M23.3704 0.0269748L25.3425 1.07329C25.456 1.13348 25.4996 1.27445 25.4396 1.38802L24.3932 3.3618C24.3328 3.47477 24.1918 3.5173 24.0785 3.45722L22.1064 2.41258C21.993 2.35248 21.9497 2.21133 22.0093 2.09785L23.0556 0.124073C23.1159 0.0108175 23.2569 -0.0329247 23.3704 0.0269748Z" fill="url(#paint16_linear_12_1635)"/>
</g>
</g>
<defs>
<linearGradient id="paint0_linear_12_1635" x1="28.773" y1="49.5555" x2="46.0111" y2="24.0725" gradientUnits="userSpaceOnUse">
<stop stop-color="#2743FF" style="stop-color:#2743FF;stop-color:color(display-p3 0.1529 0.2627 1.0000);stop-opacity:1;"/>
<stop offset="0.24" stop-color="#3C5EFF" style="stop-color:#3C5EFF;stop-color:color(display-p3 0.2353 0.3686 1.0000);stop-opacity:1;"/>
<stop offset="0.52" stop-color="#4E75FF" style="stop-color:#4E75FF;stop-color:color(display-p3 0.3059 0.4588 1.0000);stop-opacity:1;"/>
<stop offset="0.78" stop-color="#5A84FF" style="stop-color:#5A84FF;stop-color:color(display-p3 0.3529 0.5176 1.0000);stop-opacity:1;"/>
<stop offset="1" stop-color="#5E89FF" style="stop-color:#5E89FF;stop-color:color(display-p3 0.3686 0.5373 1.0000);stop-opacity:1;"/>
</linearGradient>
<linearGradient id="paint1_linear_12_1635" x1="28.773" y1="49.5555" x2="46.0111" y2="24.0725" gradientUnits="userSpaceOnUse">
<stop stop-color="#2743FF" style="stop-color:#2743FF;stop-color:color(display-p3 0.1529 0.2627 1.0000);stop-opacity:1;"/>
<stop offset="0.24" stop-color="#3C5EFF" style="stop-color:#3C5EFF;stop-color:color(display-p3 0.2353 0.3686 1.0000);stop-opacity:1;"/>
<stop offset="0.52" stop-color="#4E75FF" style="stop-color:#4E75FF;stop-color:color(display-p3 0.3059 0.4588 1.0000);stop-opacity:1;"/>
<stop offset="0.78" stop-color="#5A84FF" style="stop-color:#5A84FF;stop-color:color(display-p3 0.3529 0.5176 1.0000);stop-opacity:1;"/>
<stop offset="1" stop-color="#5E89FF" style="stop-color:#5E89FF;stop-color:color(display-p3 0.3686 0.5373 1.0000);stop-opacity:1;"/>
</linearGradient>
<linearGradient id="paint2_linear_12_1635" x1="28.773" y1="49.5555" x2="46.0111" y2="24.0725" gradientUnits="userSpaceOnUse">
<stop stop-color="#2743FF" style="stop-color:#2743FF;stop-color:color(display-p3 0.1529 0.2627 1.0000);stop-opacity:1;"/>
<stop offset="0.24" stop-color="#3C5EFF" style="stop-color:#3C5EFF;stop-color:color(display-p3 0.2353 0.3686 1.0000);stop-opacity:1;"/>
<stop offset="0.52" stop-color="#4E75FF" style="stop-color:#4E75FF;stop-color:color(display-p3 0.3059 0.4588 1.0000);stop-opacity:1;"/>
<stop offset="0.78" stop-color="#5A84FF" style="stop-color:#5A84FF;stop-color:color(display-p3 0.3529 0.5176 1.0000);stop-opacity:1;"/>
<stop offset="1" stop-color="#5E89FF" style="stop-color:#5E89FF;stop-color:color(display-p3 0.3686 0.5373 1.0000);stop-opacity:1;"/>
</linearGradient>
<linearGradient id="paint3_linear_12_1635" x1="28.773" y1="49.5555" x2="46.0111" y2="24.0725" gradientUnits="userSpaceOnUse">
<stop stop-color="#2743FF" style="stop-color:#2743FF;stop-color:color(display-p3 0.1529 0.2627 1.0000);stop-opacity:1;"/>
<stop offset="0.24" stop-color="#3C5EFF" style="stop-color:#3C5EFF;stop-color:color(display-p3 0.2353 0.3686 1.0000);stop-opacity:1;"/>
<stop offset="0.52" stop-color="#4E75FF" style="stop-color:#4E75FF;stop-color:color(display-p3 0.3059 0.4588 1.0000);stop-opacity:1;"/>
<stop offset="0.78" stop-color="#5A84FF" style="stop-color:#5A84FF;stop-color:color(display-p3 0.3529 0.5176 1.0000);stop-opacity:1;"/>
<stop offset="1" stop-color="#5E89FF" style="stop-color:#5E89FF;stop-color:color(display-p3 0.3686 0.5373 1.0000);stop-opacity:1;"/>
</linearGradient>
<linearGradient id="paint4_linear_12_1635" x1="28.773" y1="49.5555" x2="46.0111" y2="24.0725" gradientUnits="userSpaceOnUse">
<stop stop-color="#2743FF" style="stop-color:#2743FF;stop-color:color(display-p3 0.1529 0.2627 1.0000);stop-opacity:1;"/>
<stop offset="0.24" stop-color="#3C5EFF" style="stop-color:#3C5EFF;stop-color:color(display-p3 0.2353 0.3686 1.0000);stop-opacity:1;"/>
<stop offset="0.52" stop-color="#4E75FF" style="stop-color:#4E75FF;stop-color:color(display-p3 0.3059 0.4588 1.0000);stop-opacity:1;"/>
<stop offset="0.78" stop-color="#5A84FF" style="stop-color:#5A84FF;stop-color:color(display-p3 0.3529 0.5176 1.0000);stop-opacity:1;"/>
<stop offset="1" stop-color="#5E89FF" style="stop-color:#5E89FF;stop-color:color(display-p3 0.3686 0.5373 1.0000);stop-opacity:1;"/>
</linearGradient>
<linearGradient id="paint5_linear_12_1635" x1="28.773" y1="49.5555" x2="46.0111" y2="24.0725" gradientUnits="userSpaceOnUse">
<stop stop-color="#2743FF" style="stop-color:#2743FF;stop-color:color(display-p3 0.1529 0.2627 1.0000);stop-opacity:1;"/>
<stop offset="0.24" stop-color="#3C5EFF" style="stop-color:#3C5EFF;stop-color:color(display-p3 0.2353 0.3686 1.0000);stop-opacity:1;"/>
<stop offset="0.52" stop-color="#4E75FF" style="stop-color:#4E75FF;stop-color:color(display-p3 0.3059 0.4588 1.0000);stop-opacity:1;"/>
<stop offset="0.78" stop-color="#5A84FF" style="stop-color:#5A84FF;stop-color:color(display-p3 0.3529 0.5176 1.0000);stop-opacity:1;"/>
<stop offset="1" stop-color="#5E89FF" style="stop-color:#5E89FF;stop-color:color(display-p3 0.3686 0.5373 1.0000);stop-opacity:1;"/>
</linearGradient>
<linearGradient id="paint6_linear_12_1635" x1="28.773" y1="49.5555" x2="46.0111" y2="24.0725" gradientUnits="userSpaceOnUse">
<stop stop-color="#2743FF" style="stop-color:#2743FF;stop-color:color(display-p3 0.1529 0.2627 1.0000);stop-opacity:1;"/>
<stop offset="0.24" stop-color="#3C5EFF" style="stop-color:#3C5EFF;stop-color:color(display-p3 0.2353 0.3686 1.0000);stop-opacity:1;"/>
<stop offset="0.52" stop-color="#4E75FF" style="stop-color:#4E75FF;stop-color:color(display-p3 0.3059 0.4588 1.0000);stop-opacity:1;"/>
<stop offset="0.78" stop-color="#5A84FF" style="stop-color:#5A84FF;stop-color:color(display-p3 0.3529 0.5176 1.0000);stop-opacity:1;"/>
<stop offset="1" stop-color="#5E89FF" style="stop-color:#5E89FF;stop-color:color(display-p3 0.3686 0.5373 1.0000);stop-opacity:1;"/>
</linearGradient>
<linearGradient id="paint7_linear_12_1635" x1="28.773" y1="49.5555" x2="46.0111" y2="24.0725" gradientUnits="userSpaceOnUse">
<stop stop-color="#2743FF" style="stop-color:#2743FF;stop-color:color(display-p3 0.1529 0.2627 1.0000);stop-opacity:1;"/>
<stop offset="0.24" stop-color="#3C5EFF" style="stop-color:#3C5EFF;stop-color:color(display-p3 0.2353 0.3686 1.0000);stop-opacity:1;"/>
<stop offset="0.52" stop-color="#4E75FF" style="stop-color:#4E75FF;stop-color:color(display-p3 0.3059 0.4588 1.0000);stop-opacity:1;"/>
<stop offset="0.78" stop-color="#5A84FF" style="stop-color:#5A84FF;stop-color:color(display-p3 0.3529 0.5176 1.0000);stop-opacity:1;"/>
<stop offset="1" stop-color="#5E89FF" style="stop-color:#5E89FF;stop-color:color(display-p3 0.3686 0.5373 1.0000);stop-opacity:1;"/>
</linearGradient>
<linearGradient id="paint8_linear_12_1635" x1="28.773" y1="49.5555" x2="46.0111" y2="24.0725" gradientUnits="userSpaceOnUse">
<stop stop-color="#2743FF" style="stop-color:#2743FF;stop-color:color(display-p3 0.1529 0.2627 1.0000);stop-opacity:1;"/>
<stop offset="0.24" stop-color="#3C5EFF" style="stop-color:#3C5EFF;stop-color:color(display-p3 0.2353 0.3686 1.0000);stop-opacity:1;"/>
<stop offset="0.52" stop-color="#4E75FF" style="stop-color:#4E75FF;stop-color:color(display-p3 0.3059 0.4588 1.0000);stop-opacity:1;"/>
<stop offset="0.78" stop-color="#5A84FF" style="stop-color:#5A84FF;stop-color:color(display-p3 0.3529 0.5176 1.0000);stop-opacity:1;"/>
<stop offset="1" stop-color="#5E89FF" style="stop-color:#5E89FF;stop-color:color(display-p3 0.3686 0.5373 1.0000);stop-opacity:1;"/>
</linearGradient>
<linearGradient id="paint9_linear_12_1635" x1="28.773" y1="49.5555" x2="46.0111" y2="24.0725" gradientUnits="userSpaceOnUse">
<stop stop-color="#2743FF" style="stop-color:#2743FF;stop-color:color(display-p3 0.1529 0.2627 1.0000);stop-opacity:1;"/>
<stop offset="0.24" stop-color="#3C5EFF" style="stop-color:#3C5EFF;stop-color:color(display-p3 0.2353 0.3686 1.0000);stop-opacity:1;"/>
<stop offset="0.52" stop-color="#4E75FF" style="stop-color:#4E75FF;stop-color:color(display-p3 0.3059 0.4588 1.0000);stop-opacity:1;"/>
<stop offset="0.78" stop-color="#5A84FF" style="stop-color:#5A84FF;stop-color:color(display-p3 0.3529 0.5176 1.0000);stop-opacity:1;"/>
<stop offset="1" stop-color="#5E89FF" style="stop-color:#5E89FF;stop-color:color(display-p3 0.3686 0.5373 1.0000);stop-opacity:1;"/>
</linearGradient>
<linearGradient id="paint10_linear_12_1635" x1="28.773" y1="49.5555" x2="46.0111" y2="24.0725" gradientUnits="userSpaceOnUse">
<stop stop-color="#2743FF" style="stop-color:#2743FF;stop-color:color(display-p3 0.1529 0.2627 1.0000);stop-opacity:1;"/>
<stop offset="0.24" stop-color="#3C5EFF" style="stop-color:#3C5EFF;stop-color:color(display-p3 0.2353 0.3686 1.0000);stop-opacity:1;"/>
<stop offset="0.52" stop-color="#4E75FF" style="stop-color:#4E75FF;stop-color:color(display-p3 0.3059 0.4588 1.0000);stop-opacity:1;"/>
<stop offset="0.78" stop-color="#5A84FF" style="stop-color:#5A84FF;stop-color:color(display-p3 0.3529 0.5176 1.0000);stop-opacity:1;"/>
<stop offset="1" stop-color="#5E89FF" style="stop-color:#5E89FF;stop-color:color(display-p3 0.3686 0.5373 1.0000);stop-opacity:1;"/>
</linearGradient>
<linearGradient id="paint11_linear_12_1635" x1="28.773" y1="49.5555" x2="46.0111" y2="24.0725" gradientUnits="userSpaceOnUse">
<stop stop-color="#2743FF" style="stop-color:#2743FF;stop-color:color(display-p3 0.1529 0.2627 1.0000);stop-opacity:1;"/>
<stop offset="0.24" stop-color="#3C5EFF" style="stop-color:#3C5EFF;stop-color:color(display-p3 0.2353 0.3686 1.0000);stop-opacity:1;"/>
<stop offset="0.52" stop-color="#4E75FF" style="stop-color:#4E75FF;stop-color:color(display-p3 0.3059 0.4588 1.0000);stop-opacity:1;"/>
<stop offset="0.78" stop-color="#5A84FF" style="stop-color:#5A84FF;stop-color:color(display-p3 0.3529 0.5176 1.0000);stop-opacity:1;"/>
<stop offset="1" stop-color="#5E89FF" style="stop-color:#5E89FF;stop-color:color(display-p3 0.3686 0.5373 1.0000);stop-opacity:1;"/>
</linearGradient>
<linearGradient id="paint12_linear_12_1635" x1="28.773" y1="49.5555" x2="46.0111" y2="24.0725" gradientUnits="userSpaceOnUse">
<stop stop-color="#2743FF" style="stop-color:#2743FF;stop-color:color(display-p3 0.1529 0.2627 1.0000);stop-opacity:1;"/>
<stop offset="0.24" stop-color="#3C5EFF" style="stop-color:#3C5EFF;stop-color:color(display-p3 0.2353 0.3686 1.0000);stop-opacity:1;"/>
<stop offset="0.52" stop-color="#4E75FF" style="stop-color:#4E75FF;stop-color:color(display-p3 0.3059 0.4588 1.0000);stop-opacity:1;"/>
<stop offset="0.78" stop-color="#5A84FF" style="stop-color:#5A84FF;stop-color:color(display-p3 0.3529 0.5176 1.0000);stop-opacity:1;"/>
<stop offset="1" stop-color="#5E89FF" style="stop-color:#5E89FF;stop-color:color(display-p3 0.3686 0.5373 1.0000);stop-opacity:1;"/>
</linearGradient>
<linearGradient id="paint13_linear_12_1635" x1="28.773" y1="49.5555" x2="46.0111" y2="24.0725" gradientUnits="userSpaceOnUse">
<stop stop-color="#2743FF" style="stop-color:#2743FF;stop-color:color(display-p3 0.1529 0.2627 1.0000);stop-opacity:1;"/>
<stop offset="0.24" stop-color="#3C5EFF" style="stop-color:#3C5EFF;stop-color:color(display-p3 0.2353 0.3686 1.0000);stop-opacity:1;"/>
<stop offset="0.52" stop-color="#4E75FF" style="stop-color:#4E75FF;stop-color:color(display-p3 0.3059 0.4588 1.0000);stop-opacity:1;"/>
<stop offset="0.78" stop-color="#5A84FF" style="stop-color:#5A84FF;stop-color:color(display-p3 0.3529 0.5176 1.0000);stop-opacity:1;"/>
<stop offset="1" stop-color="#5E89FF" style="stop-color:#5E89FF;stop-color:color(display-p3 0.3686 0.5373 1.0000);stop-opacity:1;"/>
</linearGradient>
<linearGradient id="paint14_linear_12_1635" x1="28.773" y1="49.5555" x2="46.0111" y2="24.0725" gradientUnits="userSpaceOnUse">
<stop stop-color="#2743FF" style="stop-color:#2743FF;stop-color:color(display-p3 0.1529 0.2627 1.0000);stop-opacity:1;"/>
<stop offset="0.24" stop-color="#3C5EFF" style="stop-color:#3C5EFF;stop-color:color(display-p3 0.2353 0.3686 1.0000);stop-opacity:1;"/>
<stop offset="0.52" stop-color="#4E75FF" style="stop-color:#4E75FF;stop-color:color(display-p3 0.3059 0.4588 1.0000);stop-opacity:1;"/>
<stop offset="0.78" stop-color="#5A84FF" style="stop-color:#5A84FF;stop-color:color(display-p3 0.3529 0.5176 1.0000);stop-opacity:1;"/>
<stop offset="1" stop-color="#5E89FF" style="stop-color:#5E89FF;stop-color:color(display-p3 0.3686 0.5373 1.0000);stop-opacity:1;"/>
</linearGradient>
<linearGradient id="paint15_linear_12_1635" x1="28.773" y1="49.5555" x2="46.0111" y2="24.0725" gradientUnits="userSpaceOnUse">
<stop stop-color="#2743FF" style="stop-color:#2743FF;stop-color:color(display-p3 0.1529 0.2627 1.0000);stop-opacity:1;"/>
<stop offset="0.24" stop-color="#3C5EFF" style="stop-color:#3C5EFF;stop-color:color(display-p3 0.2353 0.3686 1.0000);stop-opacity:1;"/>
<stop offset="0.52" stop-color="#4E75FF" style="stop-color:#4E75FF;stop-color:color(display-p3 0.3059 0.4588 1.0000);stop-opacity:1;"/>
<stop offset="0.78" stop-color="#5A84FF" style="stop-color:#5A84FF;stop-color:color(display-p3 0.3529 0.5176 1.0000);stop-opacity:1;"/>
<stop offset="1" stop-color="#5E89FF" style="stop-color:#5E89FF;stop-color:color(display-p3 0.3686 0.5373 1.0000);stop-opacity:1;"/>
</linearGradient>
<linearGradient id="paint16_linear_12_1635" x1="28.773" y1="49.5555" x2="46.0111" y2="24.0725" gradientUnits="userSpaceOnUse">
<stop stop-color="#2743FF" style="stop-color:#2743FF;stop-color:color(display-p3 0.1529 0.2627 1.0000);stop-opacity:1;"/>
<stop offset="0.24" stop-color="#3C5EFF" style="stop-color:#3C5EFF;stop-color:color(display-p3 0.2353 0.3686 1.0000);stop-opacity:1;"/>
<stop offset="0.52" stop-color="#4E75FF" style="stop-color:#4E75FF;stop-color:color(display-p3 0.3059 0.4588 1.0000);stop-opacity:1;"/>
<stop offset="0.78" stop-color="#5A84FF" style="stop-color:#5A84FF;stop-color:color(display-p3 0.3529 0.5176 1.0000);stop-opacity:1;"/>
<stop offset="1" stop-color="#5E89FF" style="stop-color:#5E89FF;stop-color:color(display-p3 0.3686 0.5373 1.0000);stop-opacity:1;"/>
</linearGradient>
<clipPath id="clip0_12_1635">
<rect width="48" height="48" fill="white" style="fill:white;fill-opacity:1;"/>
</clipPath>
<clipPath id="clip1_12_1635">
<rect width="48" height="48" fill="white" style="fill:white;fill-opacity:1;"/>
</clipPath>
</defs>
</svg>
