<svg width="48" height="48" viewBox="0 0 48 48" fill="none" xmlns="http://www.w3.org/2000/svg">
<g clip-path="url(#clip0_6_1615)">
<g clip-path="url(#clip1_6_1615)">
<path fill-rule="evenodd" clip-rule="evenodd" d="M29.48 19.9541L26.312 23.1201H33.438V25.0041H26.312L29.478 28.1701L28.146 29.5021L24.04 25.3941L19.932 29.5021L18.6 28.1701L21.766 25.0041H14.64V23.1201H21.764L18.598 19.9541L19.93 18.6221L24.04 22.7301L28.148 18.6221L29.48 19.9541Z" fill="white" style="fill:white;fill-opacity:1;"/>
<path fill-rule="evenodd" clip-rule="evenodd" d="M23.98 0.166029C37.13 0.166029 47.79 10.83 47.79 23.98C47.79 30.376 45.264 36.178 41.16 40.454C40.935 40.6995 40.6995 40.9351 40.454 41.16C36.0283 45.4201 30.1228 47.7975 23.98 47.792C10.83 47.79 0.167969 37.132 0.167969 23.98C0.167969 17.604 2.67797 11.818 6.75997 7.54203C7.0091 7.26683 7.2714 7.00386 7.54597 6.75403C11.9688 2.51995 17.8572 0.159449 23.98 0.166029ZM3.85997 32.708C7.23397 40.476 14.972 45.908 23.98 45.908C26.82 45.908 29.532 45.36 32.024 44.378C30.5279 44.4263 29.0313 44.3015 27.564 44.006C24.234 43.35 20.772 41.868 17.492 39.646C13.6 38.898 10.102 37.498 7.28397 35.606C6.03456 34.7763 4.88555 33.8024 3.85997 32.708ZM42.168 34.506C41.6871 34.8946 41.1893 35.2616 40.676 35.606C36.362 38.5 30.456 40.26 23.978 40.26C23.386 40.26 22.798 40.238 22.218 40.21C24.138 41.136 26.062 41.792 27.926 42.16C32.616 43.084 36.78 42.19 39.486 39.484C40.824 38.144 41.718 36.45 42.168 34.506ZM23.978 9.58003C17.824 9.58003 12.296 11.256 8.33197 13.914C7.29032 14.6068 6.32494 15.408 5.45197 16.304C5.43467 17.5554 5.54998 18.805 5.79597 20.032C6.71997 24.712 9.44797 29.808 13.798 34.16C15.208 35.57 16.698 36.806 18.224 37.87C20.056 38.198 21.984 38.378 23.978 38.378C30.132 38.378 35.664 36.702 39.628 34.042C40.6682 33.3497 41.6322 32.5492 42.504 31.654C42.5212 30.4027 42.4059 29.1531 42.16 27.926C41.238 23.244 38.512 18.15 34.16 13.798C32.7971 12.433 31.316 11.1915 29.734 10.088C27.8341 9.74886 25.9079 9.57886 23.978 9.58003ZM3.67197 18.556C2.61597 20.248 2.05197 22.084 2.05197 23.978C2.05197 27.804 4.36197 31.38 8.33197 34.042C9.90797 35.102 11.734 35.998 13.748 36.702C13.3114 36.3087 12.8846 35.9045 12.468 35.49C7.88797 30.91 4.95597 25.49 3.95197 20.394C3.8315 19.7858 3.73807 19.1725 3.67197 18.556ZM34.212 11.256C34.644 11.646 35.072 12.048 35.492 12.466C40.072 17.046 43.004 22.466 44.008 27.562C44.128 28.178 44.22 28.79 44.286 29.396C45.34 27.706 45.908 25.872 45.908 23.978C45.908 20.152 43.596 16.578 39.628 13.914C38.05 12.856 36.226 11.96 34.212 11.256ZM23.98 2.05003C21.14 2.05003 18.426 2.59403 15.936 3.57803C17.432 3.52968 18.9286 3.65451 20.396 3.95003C23.726 4.60603 27.192 6.09003 30.472 8.31203C34.362 9.06003 37.86 10.462 40.676 12.352C41.924 13.1821 43.0716 14.1539 44.096 15.248C42.394 11.3271 39.5833 7.98898 36.0094 5.64419C32.4356 3.2994 28.2544 2.05014 23.98 2.05003ZM20.032 5.79603C15.342 4.87203 11.178 5.76803 8.47197 8.47203C7.13197 9.81203 6.23797 11.51 5.78797 13.452C6.26197 13.068 6.76197 12.702 7.28397 12.352C11.596 9.45803 17.5 7.70003 23.978 7.70003C24.57 7.70003 25.156 7.71803 25.738 7.74603C23.9262 6.85708 22.0089 6.20183 20.032 5.79603Z" fill="white" style="fill:white;fill-opacity:1;"/>
</g>
</g>
<defs>
<clipPath id="clip0_6_1615">
<rect width="48" height="48" fill="white" style="fill:white;fill-opacity:1;"/>
</clipPath>
<clipPath id="clip1_6_1615">
<rect width="48" height="48" fill="white" style="fill:white;fill-opacity:1;"/>
</clipPath>
</defs>
</svg>
