<svg width="48" height="48" viewBox="0 0 48 48" fill="none" xmlns="http://www.w3.org/2000/svg">
<g clip-path="url(#clip0_148_235)">
<path fill-rule="evenodd" clip-rule="evenodd" d="M13.794 8C17.624 8 20.826 9.864 24.654 14.752L25.218 14.006C25.598 13.514 25.984 13.038 26.378 12.586L27.004 11.886C29.176 9.576 31.584 8 34.45 8C36.996 8 39.388 9.114 41.432 11.032L41.868 11.458C45.328 14.988 47.702 20.878 47.974 27.51L47.996 28.294L48 28.794C48 31.796 47.44 34.312 46.364 36.194L46.084 36.654L45.868 36.96C45.266 37.8 44.54 38.476 43.696 38.978L43.166 39.262L42.992 39.342C42.7944 39.43 42.5929 39.5087 42.388 39.578C41.5302 39.8617 40.6315 40.0022 39.728 39.994C38.68 39.994 37.736 39.86 36.852 39.564C35.624 39.156 34.526 38.444 33.4 37.332L32.946 36.862C31.44 35.238 29.878 32.91 27.96 29.69L25.1 24.87L24.012 23.08L20.48 29.34L19.794 30.524C15.194 38.312 12.454 40 8.712 40C6.292 40 4.302 39.16 2.84 37.636L2.504 37.268C1.536 36.122 0.83 34.646 0.418 32.89L0.284 32.25C0.129383 31.3993 0.0384634 30.5382 0.012 29.674L0 28.936C0.004 27.446 0.12 25.956 0.348 24.476L0.548 23.33C1.144 20.27 2.204 17.414 3.62 15.016L4.038 14.336C6.392 10.676 9.616 8.23 13.268 8.016L13.794 8ZM13.728 13.23L13.326 13.25C11.666 13.416 10.114 14.596 8.822 16.404L8.546 16.802L8.526 16.838C7.186 18.872 6.156 21.594 5.614 24.528L5.606 24.572C5.33294 26.0592 5.19438 27.568 5.192 29.08L5.196 29.456C5.204 29.816 5.23 30.176 5.276 30.536L5.362 31.118C5.546 32.124 5.876 32.934 6.334 33.534L6.568 33.808C7.174 34.454 7.964 34.792 8.908 34.792C11.108 34.792 12.5 33.44 16.3 27.51L20.65 20.71L21.558 19.308L21.28 18.912C18.22 14.6 16.168 13.232 13.728 13.232V13.23ZM34.12 12.126L33.768 12.14C32.498 12.236 31.322 12.858 30.128 14.006L29.736 14.402C28.858 15.326 27.962 16.53 27.002 18.016L27.534 18.812C27.894 19.36 28.258 19.932 28.634 20.528L29.22 21.478L32.012 26.148L33.402 28.376C34.568 30.228 35.462 31.576 36.218 32.54L36.644 33.064C37.208 33.716 37.702 34.144 38.198 34.41L38.402 34.51C38.856 34.71 39.316 34.786 39.838 34.786C40.19 34.79 40.538 34.74 40.874 34.64C41.55 34.432 42.094 34 42.5 33.366L42.69 33.04L42.844 32.716C43.232 31.798 43.424 30.596 43.424 29.146L43.412 28.248C43.252 22.506 41.536 17.504 39.012 14.652L38.66 14.274C37.32 12.908 35.772 12.126 34.12 12.126Z" fill="white" style="fill:white;fill-opacity:1;"/>
</g>
<defs>
<clipPath id="clip0_148_235">
<rect width="48" height="48" fill="white" style="fill:white;fill-opacity:1;"/>
</clipPath>
</defs>
</svg>
