<svg width="48" height="48" viewBox="0 0 48 48" fill="none" xmlns="http://www.w3.org/2000/svg">
<g clip-path="url(#clip0_7_1424)">
<path d="M32.556 4.06201C34.868 4.06201 36.742 5.91601 36.742 8.20201V33.204C36.7581 33.5871 36.9221 33.949 37.1997 34.2135C37.4772 34.478 37.8466 34.6244 38.23 34.622C38.613 34.6239 38.9819 34.4772 39.259 34.2128C39.5362 33.9483 39.7 33.5867 39.716 33.204V18.26C39.7189 17.719 39.8283 17.1838 40.038 16.685C40.2477 16.1863 40.5536 15.7337 40.9383 15.3532C41.3229 14.9726 41.7787 14.6716 42.2797 14.4672C42.7806 14.2628 43.317 14.1591 43.858 14.162C44.3992 14.1591 44.9357 14.2629 45.4368 14.4674C45.9379 14.6719 46.3938 14.9731 46.7784 15.3539C47.1631 15.7346 47.469 16.1874 47.6786 16.6864C47.8881 17.1854 47.9974 17.7208 48 18.262V31.384C47.9979 31.7279 47.8594 32.0569 47.6149 32.2988C47.3704 32.5407 47.0399 32.6756 46.696 32.674C46.5255 32.6751 46.3565 32.6425 46.1987 32.5783C46.0408 32.514 45.8971 32.4193 45.7758 32.2995C45.6546 32.1797 45.5581 32.0372 45.4919 31.8801C45.4257 31.723 45.391 31.5545 45.39 31.384V18.262C45.389 18.0619 45.3485 17.8639 45.2709 17.6794C45.1934 17.4949 45.0802 17.3275 44.938 17.1867C44.7957 17.0459 44.6271 16.9346 44.4418 16.859C44.2565 16.7833 44.0581 16.745 43.858 16.746C43.6579 16.745 43.4595 16.7833 43.2742 16.859C43.0889 16.9346 42.9203 17.0459 42.778 17.1867C42.6358 17.3275 42.5226 17.4949 42.4451 17.6794C42.3675 17.8639 42.327 18.0619 42.326 18.262V33.206C42.3231 33.741 42.2149 34.2702 42.0075 34.7634C41.8001 35.2566 41.4976 35.7041 41.1172 36.0803C40.7369 36.4566 40.2861 36.7543 39.7907 36.9563C39.2953 37.1584 38.765 37.2609 38.23 37.258C37.695 37.2609 37.1647 37.1584 36.6693 36.9563C36.1739 36.7543 35.7231 36.4566 35.3428 36.0803C34.9624 35.7041 34.6599 35.2566 34.4525 34.7634C34.2451 34.2702 34.1369 33.741 34.134 33.206V8.20601C34.1174 7.79977 33.9439 7.41581 33.65 7.13492C33.356 6.85403 32.9646 6.69812 32.558 6.70001C32.1514 6.69758 31.7597 6.85298 31.4654 7.1335C31.1711 7.41402 30.9971 7.79778 30.98 8.20401L30.978 40.012C30.9717 41.0922 30.5366 42.1256 29.7685 42.885C29.0004 43.6445 27.9622 44.0679 26.882 44.062C26.347 44.0649 25.8167 43.9624 25.3213 43.7603C24.8259 43.5583 24.3751 43.2606 23.9948 42.8843C23.6144 42.5081 23.3119 42.0606 23.1045 41.5674C22.8971 41.0742 22.7889 40.545 22.786 40.01V36.142C22.786 35.43 23.37 34.852 24.09 34.852C24.81 34.852 25.394 35.43 25.394 36.142V40.01C25.394 40.536 25.678 41.022 26.138 41.286C26.598 41.548 27.166 41.548 27.626 41.286C27.8517 41.158 28.0395 40.9725 28.1702 40.7484C28.3009 40.5243 28.3698 40.2695 28.37 40.01V8.20201C28.37 5.91601 30.244 4.06201 32.556 4.06201ZM21.208 4.06201C23.52 4.06201 25.394 5.91601 25.394 8.20201V31.248C25.3932 31.4184 25.3588 31.5869 25.2929 31.744C25.2269 31.901 25.1306 32.0436 25.0095 32.1634C24.8883 32.2832 24.7448 32.378 24.587 32.4422C24.4293 32.5065 24.2604 32.5391 24.09 32.538C23.9196 32.5391 23.7507 32.5065 23.593 32.4422C23.4352 32.378 23.2916 32.2832 23.1705 32.1634C23.0494 32.0436 22.9531 31.901 22.8871 31.744C22.8212 31.5869 22.7868 31.4184 22.786 31.248V8.20201C22.7834 7.78597 22.6157 7.38798 22.3198 7.09548C22.0239 6.80298 21.624 6.63988 21.208 6.64201C20.792 6.63988 20.3921 6.80298 20.0962 7.09548C19.8003 7.38798 19.6326 7.78597 19.63 8.20201V36.228C19.6237 37.32 19.184 38.3648 18.4077 39.1329C17.6315 39.9009 16.582 40.3293 15.49 40.324C14.3976 40.3299 13.3477 39.9017 12.571 39.1336C11.7942 38.3655 11.3543 37.3204 11.348 36.228V18.262C11.347 18.0619 11.3065 17.8639 11.2289 17.6794C11.1514 17.4949 11.0382 17.3275 10.896 17.1867C10.7537 17.0459 10.5851 16.9346 10.3998 16.859C10.2145 16.7833 10.0161 16.745 9.816 16.746C9.61586 16.745 9.41748 16.7833 9.23218 16.859C9.04688 16.9346 8.87828 17.0459 8.73602 17.1867C8.59376 17.3275 8.48062 17.4949 8.40306 17.6794C8.32551 17.8639 8.28505 18.0619 8.284 18.262V25.862C8.28112 26.4031 8.1717 26.9382 7.96198 27.437C7.75226 27.9358 7.44636 28.3883 7.06174 28.7689C6.67712 29.1494 6.22131 29.4505 5.72034 29.6548C5.21937 29.8592 4.68305 29.9629 4.142 29.96C3.60095 29.9629 3.06463 29.8592 2.56366 29.6548C2.06269 29.4505 1.60688 29.1494 1.22226 28.7689C0.837637 28.3883 0.531736 27.9358 0.32202 27.437C0.112304 26.9382 0.00288138 26.4031 0 25.862L0 23.106C0 22.392 0.584 21.814 1.304 21.814C2.024 21.814 2.61 22.394 2.61 23.106V25.862C2.61 26.698 3.296 27.376 4.142 27.376C4.988 27.376 5.674 26.698 5.674 25.862V18.26C5.68035 17.168 6.11997 16.1232 6.89626 15.3552C7.67254 14.5871 8.72199 14.1587 9.814 14.164C10.9064 14.1582 11.9563 14.5864 12.733 15.3545C13.5098 16.1225 13.9497 17.1677 13.956 18.26V36.228C13.956 37.066 14.642 37.744 15.49 37.744C16.336 37.744 17.022 37.066 17.022 36.228V8.20201C17.022 5.91601 18.896 4.06201 21.208 4.06201Z" fill="url(#paint0_linear_7_1424)"/>
</g>
<defs>
<linearGradient id="paint0_linear_7_1424" x1="0" y1="24.0848" x2="48.0874" y2="24.0848" gradientUnits="userSpaceOnUse">
<stop stop-color="#E2167E" style="stop-color:#E2167E;stop-color:color(display-p3 0.8863 0.0863 0.4941);stop-opacity:1;"/>
<stop offset="1" stop-color="#FE603C" style="stop-color:#FE603C;stop-color:color(display-p3 0.9961 0.3765 0.2353);stop-opacity:1;"/>
</linearGradient>
<clipPath id="clip0_7_1424">
<rect width="48" height="48" fill="white" style="fill:white;fill-opacity:1;"/>
</clipPath>
</defs>
</svg>
