<svg width="48" height="48" viewBox="0 0 48 48" fill="none" xmlns="http://www.w3.org/2000/svg">
<g clip-path="url(#clip0_3_2018)">
<path d="M6.85596 6.79999H13.714V13.656H6.85596V6.79999ZM34.284 6.79999H41.144V13.656H34.284V6.79999Z" fill="#FFD700" style="fill:#FFD700;fill:color(display-p3 1.0000 0.8431 0.0000);fill-opacity:1;"/>
<path d="M6.85596 13.656H20.57V20.514H6.85796L6.85596 13.656ZM27.428 13.656H41.142V20.514H27.428V13.656Z" fill="#FFAF00" style="fill:#FFAF00;fill:color(display-p3 1.0000 0.6863 0.0000);fill-opacity:1;"/>
<path d="M6.85596 20.516H41.144V27.372H6.85596V20.516Z" fill="#FF8205" style="fill:#FF8205;fill:color(display-p3 1.0000 0.5098 0.0196);fill-opacity:1;"/>
<path d="M6.85596 27.372H13.714V34.228H6.85596V27.372ZM20.572 27.372H27.43V34.228H20.572V27.372ZM34.284 27.372H41.144V34.228H34.284V27.372Z" fill="#FA500F" style="fill:#FA500F;fill:color(display-p3 0.9804 0.3137 0.0588);fill-opacity:1;"/>
<path d="M0 34.228H20.572V41.086H0V34.228ZM27.428 34.228H48V41.086H27.428V34.228Z" fill="#E10500" style="fill:#E10500;fill:color(display-p3 0.8824 0.0196 0.0000);fill-opacity:1;"/>
</g>
<defs>
<clipPath id="clip0_3_2018">
<rect width="48" height="48" fill="white" style="fill:white;fill-opacity:1;"/>
</clipPath>
</defs>
</svg>
