<svg width="48" height="48" viewBox="0 0 48 48" fill="none" xmlns="http://www.w3.org/2000/svg">
<g clip-path="url(#clip0_5_132)">
<path fill-rule="evenodd" clip-rule="evenodd" d="M3.01635 33.4223L21.2994 38.3136C21.2748 39.6136 21.3132 40.914 21.4144 42.2102L32.8301 45.2635C29.4443 46.661 25.7735 47.2294 22.1236 46.9214L21.7786 46.8907L21.6943 46.883L21.5333 46.8658L21.3531 46.8466C21.2527 46.8345 21.1524 46.8218 21.0522 46.8083L20.8471 46.7815L20.6363 46.7508C20.4314 46.721 20.2269 46.6884 20.0229 46.653L19.9424 46.6377L19.7987 46.6128L19.5936 46.5745L19.4594 46.5457L19.2812 46.5093L19.1374 46.4786L18.9554 46.4403L18.7694 46.3962L18.5893 46.354L18.4589 46.3215L18.2903 46.2793L18.1178 46.2333L17.9357 46.1854L17.7785 46.1413L17.5696 46.0838L17.4508 46.0455L17.2898 45.9975L17.1115 45.9439L16.9103 45.8787L16.7991 45.8423L16.6458 45.7925L16.4733 45.733L16.3468 45.687C16.3186 45.6776 16.2905 45.668 16.2624 45.6583L16.1321 45.6104L15.9385 45.5395L15.8293 45.4973L15.6759 45.4398L15.5092 45.3727L15.3405 45.3056L15.1891 45.2443L15.007 45.1676L14.8863 45.114L14.7655 45.0622C14.7393 45.0508 14.7131 45.0393 14.6869 45.0277L14.5604 44.9702L14.363 44.8801L14.2634 44.8341L14.0794 44.746L13.9605 44.6885L13.7995 44.6118L13.6347 44.5275L13.4564 44.4374L13.3568 44.3856L13.1594 44.2802L13.0501 44.2227L12.9389 44.1614C12.9095 44.1449 12.8801 44.1283 12.8508 44.1115L12.6706 44.01L12.5556 43.9448L12.4579 43.8873L12.3199 43.8087L12.1627 43.7129L11.9844 43.6055L11.8848 43.5442L11.7238 43.4426L11.6069 43.3679L11.4554 43.272L11.3213 43.182L11.2197 43.1149C11.1851 43.092 11.1506 43.069 11.1162 43.0459L11.0319 42.9884L10.9475 42.9309C10.9219 42.9131 10.8963 42.8952 10.8709 42.8772L10.7616 42.8005L10.6159 42.697L10.4837 42.6012L10.3419 42.4977L10.2345 42.4172L10.0889 42.308L9.94319 42.1949L9.77835 42.0665L9.6921 41.9994L9.56944 41.8997L9.4276 41.7847L9.25702 41.6448L9.16885 41.57L9.08069 41.4953C9.05313 41.4718 9.02565 41.4481 8.99827 41.4244L8.91202 41.3477L8.7951 41.2461L8.66094 41.1273L8.5306 41.0123L8.41177 40.9011L8.28335 40.7823L8.18177 40.6865L8.0131 40.5255C7.94953 40.4638 7.88628 40.4018 7.82335 40.3395L7.76777 40.2859L7.68919 40.2054L7.55694 40.0712L7.4611 39.9735L7.36527 39.8719C7.25577 39.7596 7.14842 39.6452 7.04327 39.5288L6.88994 39.3601L6.7711 39.226L6.63502 39.0726L6.55452 38.9787L6.45294 38.8599L6.34177 38.7295L6.2536 38.6222C6.23629 38.6012 6.21904 38.5801 6.20185 38.559L6.1156 38.4535L5.9891 38.2964L5.91052 38.1967L5.81469 38.074L5.77635 38.0261C4.67967 36.6046 3.75336 35.0595 3.01635 33.4223ZM1.06135 22.3171L22.8213 28.1381C22.457 29.4069 22.1569 30.6934 21.9224 31.9925L42.6549 37.5393C41.6249 38.9496 40.4386 40.2388 39.1187 41.3822L2.25927 31.519L2.2286 31.4309L2.16152 31.2315C2.12892 31.134 2.09697 31.0363 2.06569 30.9383L2.05227 30.8942C1.90474 30.4252 1.77242 29.9515 1.65552 29.474L1.59802 29.2325L1.56352 29.0791L1.52327 28.8932L1.48877 28.738L1.45427 28.5655L1.42169 28.4045L1.38719 28.2243C1.33735 27.9541 1.29135 27.6819 1.2511 27.4078L1.21852 27.1816L1.19744 27.0225L1.17252 26.827C1.15969 26.7243 1.14755 26.6214 1.1361 26.5185L1.12652 26.4284C0.983319 25.0626 0.961511 23.6868 1.06135 22.3171ZM4.1146 12.4463L27.0149 18.572C26.3096 19.7315 25.6637 20.9314 25.0791 22.1657L46.7279 27.9579C46.4557 29.5295 46.0225 31.0475 45.4475 32.4908L23.31 26.5683L1.23769 20.665L1.26644 20.4733L1.28177 20.3794L1.30094 20.251L1.32969 20.0842L1.36419 19.8964C1.41402 19.6127 1.47152 19.331 1.53285 19.0492L1.58652 18.8115L1.62485 18.6486L1.67085 18.4627C1.71302 18.2902 1.7571 18.1177 1.80502 17.949L1.85869 17.7535L1.90277 17.5945L1.96027 17.4028L2.00819 17.2456L2.06569 17.0616L2.11552 16.9045L2.17494 16.7224C2.67127 15.2336 3.31998 13.8 4.11077 12.4444L4.1146 12.4463ZM12.6284 4.01296L34.258 9.79746C33.1166 10.8334 32.0364 11.9348 31.0227 13.096L46.0168 17.1076C46.5285 18.7406 46.8639 20.4503 47 22.2155L5.03652 10.9915L5.12277 10.867L5.17452 10.7903L5.25119 10.6849L5.33935 10.5603L5.44477 10.4146L5.54827 10.2766L5.67094 10.1118L5.76677 9.98721L5.87602 9.8473L5.98144 9.71313L6.09644 9.5713L6.20185 9.43905L6.32644 9.29146L6.42994 9.16496L6.55644 9.01738L6.65802 8.90238L6.79602 8.74521L6.8976 8.63021L7.02602 8.48838L7.12952 8.37721L7.26944 8.22771L7.3806 8.11271L7.50135 7.9843L7.82335 7.65846L8.01502 7.47063L8.1281 7.3633L8.27377 7.22721C9.59472 5.98929 11.0563 4.91051 12.6284 4.01296ZM24.0326 0.999964H24.2185L24.3757 1.00188L24.5079 1.0038L24.6114 1.00763L24.7418 1.01146L24.8299 1.01338L24.9756 1.01913L25.0657 1.02296L25.1807 1.02871L25.2842 1.03255L25.4509 1.04213L25.6522 1.05555L25.9282 1.07663L26.0969 1.09005L26.1812 1.09771L26.3288 1.11305L26.4859 1.12838L26.576 1.13796L26.7715 1.16096L26.8674 1.17246L27.0744 1.1993L27.2296 1.21846L27.3101 1.22996L27.4347 1.24913L27.8314 1.31046L27.9656 1.33346L28.0902 1.35455L28.3585 1.40438L28.5349 1.43888L28.7457 1.48105L28.8339 1.50021L28.9776 1.53088L29.0562 1.55005L29.175 1.57496L29.2555 1.59413L29.3801 1.62288L29.474 1.64588L29.6101 1.67846L29.7941 1.72446L30.0088 1.78196L30.2254 1.83946L30.4419 1.9008L30.5378 1.92955L30.6719 1.96788L30.8214 2.01388L30.9614 2.05796L31.0572 2.08863L31.153 2.1193L31.2987 2.16721L31.4884 2.23046L31.6839 2.29946L31.7759 2.33205L31.8986 2.37613L32.0769 2.4413L32.2877 2.51988L32.51 2.60613L32.7017 2.6828L32.7918 2.72113L32.9068 2.76713L32.9854 2.80163L33.1061 2.85146L33.1828 2.88596L33.292 2.93388L33.5029 3.02588L33.6945 3.11405L33.8364 3.18113L33.9801 3.25013L34.0951 3.3038L34.2714 3.39196L34.4459 3.47821L34.6414 3.57788L34.7429 3.63155L34.8369 3.68138L34.925 3.72738L35.04 3.79063L35.1186 3.8328L35.2183 3.88838L35.3869 3.98421L35.5901 4.09921L35.7569 4.19696L35.8661 4.26213L35.9677 4.32346L36.1517 4.43655L36.3204 4.54196L36.5082 4.6608L36.5772 4.7068L36.6999 4.78538L36.8609 4.89271L36.9375 4.94446L37.0564 5.02496L37.1752 5.10738L37.2193 5.13996C37.3228 5.21088 37.4263 5.28371 37.5279 5.35846L37.6869 5.47346L37.8115 5.56546L37.9188 5.64788L38.0837 5.77246L38.2409 5.89513L38.3175 5.95263L38.4134 6.03121L38.5782 6.16346L38.7296 6.28805L38.8925 6.42413C40.2572 7.57413 41.4858 8.88321 42.5514 10.3169L14.8422 2.90513L14.961 2.85338L15.0856 2.79971L15.2409 2.73455L15.4057 2.66746C15.6223 2.58121 15.8408 2.49496 16.0593 2.41638L16.2433 2.3493L16.4215 2.28605L16.5825 2.22855L16.7665 2.16913C16.9333 2.11163 17.1039 2.05796 17.2725 2.00621L17.4469 1.95446L17.6118 1.90655L17.8073 1.84905L17.9702 1.80496L18.1619 1.75513L18.3267 1.70913L18.4992 1.66505L18.6736 1.62288L18.8557 1.58071L19.0282 1.54238L19.216 1.50213L19.3904 1.4638L19.5725 1.4293L19.7489 1.3948L19.9405 1.3603L20.1149 1.32963L20.3028 1.29705L20.4791 1.27021L20.665 1.24146L20.8414 1.21655L21.0369 1.19163L21.2113 1.16863L21.4125 1.14563L21.585 1.12646L21.7863 1.1073C21.9645 1.08813 22.1428 1.0728 22.3229 1.0613L22.5261 1.04596L22.6986 1.03638L22.9094 1.02488L23.0877 1.01721L23.2794 1.00955L23.4653 1.00571L23.655 1.00188L24.0326 0.998047V0.999964Z" fill="black" style="fill:black;fill-opacity:1;"/>
</g>
<defs>
<clipPath id="clip0_5_132">
<rect width="46" height="46" fill="white" style="fill:white;fill-opacity:1;" transform="translate(1 1)"/>
</clipPath>
</defs>
</svg>
