<svg width="48" height="48" viewBox="0 0 48 48" fill="none" xmlns="http://www.w3.org/2000/svg">
<g clip-path="url(#clip0_12_325)">
<path fill-rule="evenodd" clip-rule="evenodd" d="M48 16.8C48 19.45 45.796 21.6 43.076 21.6C40.784 21.6 38.856 20.07 38.308 18H31.436C30.232 18 29.206 18.848 29.008 20.006L28.806 21.19C28.6169 22.2847 28.0509 23.2787 27.206 24C28.03 24.708 28.614 25.688 28.806 26.81L29.006 27.994C29.1094 28.5616 29.4102 29.0744 29.8553 29.4415C30.3004 29.8087 30.8611 30.0065 31.438 30H33.388C33.934 27.93 35.862 26.4 38.156 26.4C40.876 26.4 43.078 28.55 43.078 31.2C43.078 33.85 40.872 36 38.156 36C35.862 36 33.936 34.47 33.388 32.4H31.438C29.03 32.4 26.978 30.704 26.582 28.39L26.38 27.206C26.2767 26.639 25.9765 26.1268 25.5322 25.7598C25.0879 25.3927 24.5283 25.1944 23.952 25.2H21.94C21.324 27.168 19.448 28.6 17.228 28.6C15.008 28.6 13.132 27.168 12.518 25.2H9.634C9.018 27.168 7.142 28.6 4.924 28.6C2.204 28.6 0 26.45 0 23.8C0 21.15 2.204 19 4.924 19C7.29 19 9.268 20.63 9.74 22.8H12.414C12.886 20.63 14.864 19 17.23 19C19.598 19 21.574 20.63 22.046 22.8H23.95C25.152 22.8 26.18 21.952 26.376 20.794L26.58 19.61C26.976 17.296 29.03 15.6 31.436 15.6H38.308C38.856 13.53 40.784 12 43.076 12C45.796 12 48 14.15 48 16.8ZM45.54 16.8C45.54 18.126 44.436 19.2 43.076 19.2C41.716 19.2 40.616 18.126 40.616 16.8C40.616 15.474 41.716 14.4 43.076 14.4C44.436 14.4 45.538 15.474 45.538 16.8H45.54ZM4.922 26.2C6.282 26.2 7.382 25.126 7.382 23.8C7.382 22.474 6.282 21.4 4.922 21.4C3.562 21.4 2.46 22.474 2.46 23.8C2.46 25.126 3.562 26.2 4.922 26.2ZM17.228 26.2C18.588 26.2 19.69 25.126 19.69 23.8C19.69 22.474 18.59 21.4 17.23 21.4C15.87 21.4 14.768 22.474 14.768 23.8C14.768 25.126 15.868 26.2 17.228 26.2ZM38.152 33.6C39.512 33.6 40.612 32.526 40.612 31.2C40.612 29.874 39.512 28.8 38.152 28.8C36.792 28.8 35.692 29.874 35.692 31.2C35.692 32.526 36.792 33.6 38.152 33.6Z" fill="#EA4B71" style="fill:#EA4B71;fill:color(display-p3 0.9176 0.2941 0.4431);fill-opacity:1;"/>
</g>
<defs>
<clipPath id="clip0_12_325">
<rect width="48" height="48" fill="white" style="fill:white;fill-opacity:1;"/>
</clipPath>
</defs>
</svg>
