<svg width="48" height="48" viewBox="0 0 48 48" fill="none" xmlns="http://www.w3.org/2000/svg">
<g clip-path="url(#clip0_61_2117)">
<path fill-rule="evenodd" clip-rule="evenodd" d="M16.684 26.32H6.91005C5.88405 26.32 5.36605 25.042 6.09405 24.296L9.31005 20.99C9.90089 20.3754 10.6098 19.8864 11.3942 19.5523C12.1786 19.2183 13.0225 19.0461 13.875 19.0461C14.7276 19.0461 15.5715 19.2183 16.3559 19.5523C17.1403 19.8864 17.8492 20.3754 18.44 20.99L19.466 22.044L19.478 22.014L19.554 22.048C21.024 18.188 21.126 16.43 21.12 12.034V11.484C21.1 7.92004 21.08 3.61404 25.05 3.04404C30.256 2.29404 34.058 11.482 34.68 19.642C35.8353 19.2146 37.0901 19.1334 38.2908 19.4083C39.4915 19.6833 40.5859 20.3025 41.44 21.19L44.658 24.496C45.388 25.246 44.87 26.52 43.844 26.52H38.54C38.684 27.048 38.76 27.604 38.76 28.176V39.504C38.76 41.332 36.772 42.088 35.556 40.656C35.098 40.116 33.422 38.156 31.246 35.616C25.406 43.982 10.714 48.54 6.56605 41.628C6.53272 41.6289 6.49937 41.6289 6.46605 41.628H4.98005C4.45439 41.628 3.95026 41.4192 3.57856 41.0475C3.20686 40.6758 2.99805 40.1717 2.99805 39.646C2.99805 39.1204 3.20686 38.6162 3.57856 38.2445C3.95026 37.8729 4.45439 37.664 4.98005 37.664H5.47205C5.50005 34.29 7.93205 31.368 11.164 30.098C13.2667 29.2735 15.1542 27.9816 16.684 26.32ZM31.77 22.03C31.77 21.776 31.768 21.518 31.76 21.254C31.6756 18.585 31.2508 15.9376 30.496 13.376C29.736 10.812 28.722 8.71604 27.646 7.39204C26.556 6.05004 25.834 5.96204 25.476 6.01204C25.03 6.07604 24.892 6.20804 24.832 6.27004C24.732 6.37404 24.562 6.62204 24.414 7.17004C24.11 8.30404 24.114 9.74203 24.12 11.542V12.03C24.124 14.298 24.102 16.086 23.83 17.87C23.6051 19.2877 23.2454 20.6807 22.756 22.03H31.77ZM24.834 28.142C21.562 34.474 14.872 37.562 8.59805 37.882C8.29994 37.8972 8.02006 38.0301 7.81995 38.2516C7.61985 38.473 7.51593 38.7649 7.53105 39.063C7.54616 39.3611 7.67908 39.641 7.90056 39.8411C8.12204 40.0412 8.41394 40.1452 8.71205 40.13C15.3 39.792 22.554 36.632 26.402 29.968L24.834 28.142Z" fill="white" style="fill:white;fill-opacity:1;"/>
</g>
<defs>
<clipPath id="clip0_61_2117">
<rect width="48" height="48" fill="white" style="fill:white;fill-opacity:1;"/>
</clipPath>
</defs>
</svg>
