<svg width="48" height="48" viewBox="0 0 48 48" fill="none" xmlns="http://www.w3.org/2000/svg">
<g clip-path="url(#clip0_61_2104)">
<path d="M3.00005 39.6481C3.00005 38.5521 3.88805 37.6641 4.98205 37.6641H6.47005C6.99597 37.6641 7.50036 37.873 7.87224 38.2449C8.24412 38.6168 8.45305 39.1211 8.45305 39.6471C8.45305 40.173 8.24412 40.6774 7.87224 41.0493C7.50036 41.4211 6.99597 41.6301 6.47005 41.6301H4.98005C4.45439 41.6301 3.95026 41.4212 3.57856 41.0495C3.20686 40.6778 2.99805 40.1737 2.99805 39.6481H3.00005Z" fill="#F3AD61" style="fill:#F3AD61;fill:color(display-p3 0.9529 0.6784 0.3804);fill-opacity:1;"/>
<path d="M29.6741 27.0002H43.8261C44.8701 27.0002 45.3941 25.6862 44.6521 24.9122L41.3841 21.5042C40.7889 20.8717 40.0705 20.3677 39.2732 20.0232C38.476 19.6787 37.6166 19.501 36.7481 19.501C35.8796 19.501 35.0202 19.6787 34.2229 20.0232C33.4257 20.3677 32.7073 20.8717 32.1121 21.5042L28.8461 24.9122C28.1061 25.6822 28.6321 27.0002 29.6741 27.0002ZM7.17409 27.0002H21.3261C22.3681 27.0002 22.8941 25.6822 22.1541 24.9122L18.8841 21.5042C18.2889 20.8717 17.5705 20.3677 16.7732 20.0232C15.976 19.6787 15.1166 19.501 14.2481 19.501C13.3796 19.501 12.5202 19.6787 11.7229 20.0232C10.9257 20.3677 10.2073 20.8717 9.61209 21.5042L6.34609 24.9122C5.60609 25.6822 6.13209 27.0002 7.17409 27.0002Z" fill="#F9C23C" style="fill:#F9C23C;fill:color(display-p3 0.9765 0.7608 0.2353);fill-opacity:1;"/>
<path d="M25.0501 3.04183C32.4301 1.98183 36.9901 20.8878 33.6681 28.5298C30.3441 36.1698 23.1721 37.8438 15.5621 40.8338C14.7476 41.1555 13.8798 41.3211 13.0041 41.3218C10.1181 41.3218 8.55009 43.6958 7.45609 40.7578C6.04209 36.9578 7.89609 32.6958 11.5941 31.2438C15.6221 29.6638 17.7621 26.6278 19.3741 22.5158C21.0141 18.3238 21.1281 16.6038 21.1201 12.0338C21.1141 8.37983 20.8741 3.64383 25.0501 3.04183Z" fill="#FEEFC2" style="fill:#FEEFC2;fill:color(display-p3 0.9961 0.9373 0.7608);fill-opacity:1;"/>
<path d="M33.668 28.5277L19.478 22.0137C17.848 25.7597 14.898 28.6297 11.166 30.0997C6.84602 31.7957 3.95602 36.4417 6.32202 41.1797C11.05 50.6337 33.668 41.0797 33.668 28.5297V28.5277Z" fill="#FCD53F" style="fill:#FCD53F;fill:color(display-p3 0.9882 0.8353 0.2471);fill-opacity:1;"/>
<path fill-rule="evenodd" clip-rule="evenodd" d="M27.36 24.7237C27.952 24.9117 28.28 25.5437 28.09 26.1377C25.118 35.4377 16.454 39.7337 8.71199 40.1317C8.56438 40.1391 8.41674 40.1175 8.27751 40.0679C8.13828 40.0183 8.01017 39.9418 7.9005 39.8428C7.67902 39.6426 7.5461 39.3628 7.53099 39.0647C7.5235 38.917 7.54516 38.7694 7.59473 38.6302C7.6443 38.4909 7.72081 38.3628 7.81989 38.2532C8.01999 38.0317 8.29988 37.8988 8.59798 37.8837C15.704 37.5197 23.342 33.6077 25.946 25.4517C25.991 25.311 26.0632 25.1805 26.1586 25.0678C26.2541 24.955 26.3708 24.8622 26.5021 24.7946C26.6334 24.727 26.7768 24.6859 26.924 24.6737C27.0712 24.6616 27.2193 24.6785 27.36 24.7237Z" fill="#F9C23C" style="fill:#F9C23C;fill:color(display-p3 0.9765 0.7608 0.2353);fill-opacity:1;"/>
<path d="M34.86 39.7003L19.564 22.0303H33.07C36.26 22.1903 38.762 24.8963 38.762 28.1763V39.5043C38.762 41.4983 36.964 42.1083 34.86 39.7003Z" fill="#FFF478" style="fill:#FFF478;fill:color(display-p3 1.0000 0.9569 0.4706);fill-opacity:1;"/>
</g>
<defs>
<clipPath id="clip0_61_2104">
<rect width="48" height="48" fill="white" style="fill:white;fill-opacity:1;"/>
</clipPath>
</defs>
</svg>
