<svg width="48" height="48" viewBox="0 0 48 48" fill="none" xmlns="http://www.w3.org/2000/svg">
<g clip-path="url(#clip0_2_1770)">
<path fill-rule="evenodd" clip-rule="evenodd" d="M43.9459 4.02025L43.9713 25.1619L43.9996 38.4128C44.0056 40.0985 43.9667 41.845 43.9967 43.5203C40.1268 39.5247 36.3715 35.3975 32.4859 31.4099C31.8737 30.5844 30.9516 29.7916 30.2545 29.0154C30.1801 28.9326 30.0868 28.8496 30.0084 28.7673L23.4722 21.8162C22.5383 20.8175 21.5824 19.8413 20.6519 18.8396C20.1272 18.2746 20.14 18.0047 20.4849 17.3523C22.1888 16.4786 23.9769 15.3255 25.6519 14.365L38.8804 6.80346C40.2058 6.05704 41.5214 5.20902 42.8619 4.4851C43.1662 4.32077 43.5259 4.12162 43.8463 4.00951C43.9008 3.99247 43.8757 3.99961 43.9459 4.02025ZM4.10017 4.61498C4.2598 4.66523 4.30747 4.72107 4.38337 4.864C4.67658 5.41632 4.90267 5.99966 5.18122 6.55932L7.95661 12.0915L15.4517 27.0056L18.1558 32.4275C18.4221 32.9684 18.6631 33.6197 18.9517 34.1355C19.5221 35.0098 19.8497 36.0425 20.355 36.9353C21.0275 38.1233 21.5269 39.3607 22.191 40.5505C22.4587 41.0302 22.7206 41.6123 22.9439 42.114C23.1389 42.5521 23.2933 43.0074 22.8668 43.3484C22.221 43.5926 20.0923 43.5036 19.2691 43.5037H14.1207L8.48493 43.5027C7.50678 43.5027 6.53177 43.5105 5.55134 43.4958C4.65403 43.5108 4.03272 43.0359 4.01618 42.0896C3.99144 40.6737 4.00363 39.236 4.00349 37.8152L4.00251 29.4206L4.01032 6.05932C4.01332 5.74919 3.9921 4.84957 4.10017 4.61498ZM18.522 18.5954C18.7726 18.5727 19.1544 18.7483 19.3287 18.9216C20.6152 20.2011 21.8261 21.5605 23.0689 22.8826L27.2281 27.323C28.2029 28.3651 29.1365 29.3125 30.0728 30.4011C29.5836 31.5472 29.0916 32.5237 28.5045 33.6169C28.019 34.5208 27.6648 35.4968 27.108 36.3874C26.8442 36.8496 26.6272 37.5573 26.3472 37.99C25.6608 39.0505 25.2401 40.4848 24.5357 41.488C24.4455 41.6571 24.2325 42.1563 24.1158 42.2302C23.9834 42.1146 22.4866 38.9924 22.3228 38.6648L13.7095 21.3288C13.9998 21.0291 18.1008 18.6806 18.522 18.5954Z" fill="black" style="fill:black;fill-opacity:1;"/>
</g>
<defs>
<clipPath id="clip0_2_1770">
<rect width="48" height="48" fill="white" style="fill:white;fill-opacity:1;"/>
</clipPath>
</defs>
</svg>
