<svg width="48" height="48" viewBox="0 0 48 48" fill="none" xmlns="http://www.w3.org/2000/svg">
<g clip-path="url(#clip0_12_220)">
<path fill-rule="evenodd" clip-rule="evenodd" d="M30.514 0.110207L3.894 2.07021C1.748 2.25621 1 3.66021 1 5.33421V34.4522C1 35.7602 1.466 36.8782 2.588 38.3722L8.846 46.4922C9.872 47.7982 10.806 48.0802 12.77 47.9822L43.684 46.1182C46.298 45.9322 47.046 44.7182 47.046 42.6642V9.90821C47.046 8.84821 46.626 8.54021 45.388 7.63821L45.176 7.48221L36.68 1.51021C34.626 0.0182074 33.78 -0.169793 30.514 0.110207ZM13.472 9.37021C10.946 9.54221 10.374 9.58021 8.94 8.41621L5.294 5.52021C4.922 5.14621 5.11 4.68021 6.044 4.58821L31.636 2.72221C33.784 2.53421 34.904 3.28221 35.744 3.93421L40.134 7.10821C40.32 7.20221 40.786 7.76021 40.228 7.76021L13.796 9.34821L13.472 9.37021ZM10.526 42.3862V14.5742C10.526 13.3622 10.9 12.8022 12.022 12.7082L42.374 10.9362C43.404 10.8422 43.87 11.4962 43.87 12.7082V40.3282C43.87 41.5462 43.684 42.5722 42.002 42.6642L12.956 44.3442C11.272 44.4382 10.526 43.8802 10.526 42.3842V42.3862ZM39.202 16.0662C39.388 16.9102 39.202 17.7502 38.358 17.8462L36.96 18.1242V38.6522C35.744 39.3062 34.624 39.6782 33.69 39.6782C32.196 39.6782 31.822 39.2142 30.7 37.8142L21.548 23.4442V37.3482L24.444 38.0022C24.444 38.0022 24.444 39.6822 22.106 39.6822L15.664 40.0542C15.476 39.6802 15.664 38.7462 16.318 38.5602L17.998 38.0962V19.7062L15.664 19.5202C15.478 18.6802 15.944 17.4682 17.252 17.3742L24.164 16.9102L33.69 31.4682V18.5882L31.262 18.3082C31.074 17.2822 31.822 16.5342 32.756 16.4422L39.202 16.0682V16.0662Z" fill="white" style="fill:white;fill-opacity:1;"/>
</g>
<defs>
<clipPath id="clip0_12_220">
<rect width="48" height="48" fill="white" style="fill:white;fill-opacity:1;"/>
</clipPath>
</defs>
</svg>
