<svg width="48" height="48" viewBox="0 0 48 48" fill="none" xmlns="http://www.w3.org/2000/svg">
<g clip-path="url(#clip0_2_1873)">
<g clip-path="url(#clip1_2_1873)">
<path d="M19.2864 28.0235C20.5164 27.6575 22.4964 27.0935 24.7764 26.9555C23.4084 23.5055 23.0784 20.4855 23.3444 17.7975C23.6504 14.6935 24.7444 12.1035 25.8124 9.8975C26.0404 9.4275 26.2584 8.9895 26.4684 8.5695C26.7664 7.9755 27.0464 7.4155 27.3084 6.8495C27.7424 5.9095 28.0644 5.0795 28.2284 4.3095C28.3884 3.5495 28.3884 2.8715 28.2004 2.2215C28.0104 1.5715 27.6064 0.871501 26.8384 0.101501C26.3256 -0.0321786 25.7875 -0.0363712 25.2726 0.0893002C24.7577 0.214972 24.2821 0.466571 23.8884 0.821501L13.9884 9.7275C13.4368 10.2244 13.0749 10.8974 12.9644 11.6315L12.1104 17.2915C13.4504 18.4755 16.7644 21.9255 18.7804 26.7115C18.9604 27.1375 19.1284 27.5755 19.2864 28.0235ZM11.7104 19.8735C11.6624 20.0735 11.5964 20.2675 11.5124 20.4535L6.28044 32.1155C6.01792 32.701 5.93723 33.3518 6.04885 33.9837C6.16046 34.6156 6.45922 35.1994 6.90644 35.6595L15.1404 44.1395C19.3444 37.9355 18.7304 32.0995 16.8104 27.5395C15.3544 24.0795 13.1464 21.3735 11.7104 19.8735Z" fill="white" style="fill:white;fill-opacity:1;"/>
<path d="M17.04 45.1391C17.186 45.1591 17.332 45.1751 17.48 45.1791C19.042 45.2251 21.67 45.3611 23.8 45.7551C25.54 46.0751 28.986 47.0391 31.822 47.8671C33.986 48.4991 36.216 46.7711 36.53 44.5391C36.76 42.9111 37.19 41.0691 37.98 39.3791L37.962 39.3871C36.622 35.6471 34.916 33.2331 33.128 31.6931C31.5635 30.328 29.632 29.453 27.574 29.1771C24.492 28.7451 21.67 29.5551 19.892 30.0771C20.956 34.5131 20.628 39.7331 17.042 45.1371L17.04 45.1391Z" fill="white" style="fill:white;fill-opacity:1;"/>
<path d="M39.3518 37.0759C40.6399 35.1395 41.879 33.1709 43.0678 31.1719C43.2284 30.8933 43.3025 30.5732 43.2808 30.2524C43.2591 29.9315 43.1425 29.6243 42.9458 29.3699C41.9138 28.0019 39.9378 25.2199 38.8618 22.6459C37.7538 19.9999 37.5898 15.8899 37.5818 13.8899C37.5833 13.1288 37.3306 12.389 36.8638 11.7879L30.4698 3.65991C30.4458 4.02647 30.395 4.39078 30.3178 4.74991C30.1038 5.75591 29.7038 6.75791 29.2458 7.74591C28.9758 8.32591 28.6658 8.94791 28.3538 9.57591C28.1438 9.99591 27.9338 10.4159 27.7338 10.8279C26.6998 12.9639 25.7378 15.2819 25.4698 18.0079C25.2198 20.5319 25.5618 23.4679 27.0978 26.9759C27.3538 26.9959 27.6118 27.0259 27.8698 27.0619C30.3344 27.3943 32.6477 28.4414 34.5238 30.0739C36.3558 31.6539 38.0098 33.9179 39.3518 37.0759Z" fill="white" style="fill:white;fill-opacity:1;"/>
</g>
</g>
<defs>
<clipPath id="clip0_2_1873">
<rect width="48" height="48" fill="white" style="fill:white;fill-opacity:1;"/>
</clipPath>
<clipPath id="clip1_2_1873">
<rect width="48" height="48" fill="white" style="fill:white;fill-opacity:1;"/>
</clipPath>
</defs>
</svg>
