<svg width="48" height="48" viewBox="0 0 48 48" fill="none" xmlns="http://www.w3.org/2000/svg">
<g clip-path="url(#clip0_2_1881)">
<path d="M17.959 6.75C27.3256 6.75018 34.9189 14.4743 34.9189 24C34.9189 33.5257 27.3256 41.2498 17.959 41.25C8.59415 41.25 1 33.5258 1 24C1 14.4742 8.59415 6.75 17.959 6.75ZM47 6.75V41.25H40.4951V6.75H47ZM17.959 13.8398C12.4428 13.8398 7.96875 18.388 7.96875 24C7.96875 29.612 12.4428 34.1602 17.959 34.1602C23.4769 34.16 27.9502 29.6119 27.9502 24C27.9502 18.3881 23.4788 13.84 17.959 13.8398Z" fill="white" style="fill:white;fill-opacity:1;"/>
</g>
<defs>
<clipPath id="clip0_2_1881">
<rect width="48" height="48" fill="white" style="fill:white;fill-opacity:1;"/>
</clipPath>
</defs>
</svg>
