<svg width="48" height="48" viewBox="0 0 48 48" fill="none" xmlns="http://www.w3.org/2000/svg">
<g clip-path="url(#clip0_2_1745)">
<path d="M23.9998 3.13672C11.3398 3.13672 5.00977 13.6867 5.00977 22.1267C5.00977 30.5667 11.3398 39.0067 17.6698 41.1147V45.3347H21.8898V41.1147C21.8898 41.1147 23.9998 41.9587 26.1098 41.1147V45.3347H30.3298V41.1147C36.6598 39.0047 42.9898 30.5667 42.9898 22.1267C42.9898 13.6867 36.6598 3.13672 23.9998 3.13672Z" fill="url(#paint0_linear_2_1745)"/>
<path d="M7.12012 17.905C0.792125 15.795 -1.31988 20.015 0.792125 24.235C2.90212 28.455 7.12013 26.345 9.23213 22.125C10.4961 19.171 9.23212 17.905 7.12012 17.905Z" fill="url(#paint1_linear_2_1745)"/>
<path d="M40.8799 17.905C47.2079 15.795 49.3199 20.015 47.2079 24.235C45.0979 28.455 40.8799 26.345 38.7679 22.125C37.5039 19.171 38.7679 17.905 40.8799 17.905Z" fill="url(#paint2_linear_2_1745)"/>
<path d="M11.0137 1.7491C11.9657 1.1791 13.0857 1.2831 14.2437 1.8231C15.3977 2.3631 16.6897 3.3711 18.1177 4.7991C18.2362 4.91765 18.3028 5.07844 18.3028 5.2461C18.3028 5.41376 18.2362 5.57455 18.1177 5.6931C17.9991 5.81165 17.8383 5.87825 17.6707 5.87825C17.503 5.87825 17.3422 5.81165 17.2237 5.6931C15.8377 4.3071 14.6657 3.4171 13.7097 2.9711C12.7597 2.5271 12.1197 2.5611 11.6657 2.8331C11.5227 2.90616 11.3573 2.92225 11.2029 2.87812C11.0485 2.83398 10.9166 2.73292 10.8339 2.59532C10.7511 2.45772 10.7236 2.29384 10.757 2.13678C10.7904 1.97971 10.8821 1.84116 11.0137 1.7491ZM33.7537 1.8251C34.9137 1.2851 36.0337 1.1791 36.9857 1.7491C37.1172 1.84116 37.2089 1.97971 37.2423 2.13678C37.2757 2.29384 37.2482 2.45772 37.1654 2.59532C37.0827 2.73292 36.9508 2.83398 36.7964 2.87812C36.642 2.92225 36.4766 2.90616 36.3337 2.8331C35.8797 2.5611 35.2397 2.5271 34.2897 2.9711C33.3337 3.4171 32.1617 4.3071 30.7777 5.6931C30.719 5.75193 30.6492 5.79862 30.5725 5.83051C30.4957 5.8624 30.4135 5.87887 30.3304 5.87896C30.2473 5.87905 30.1649 5.86277 30.0881 5.83106C30.0113 5.79934 29.9415 5.7528 29.8827 5.6941C29.8238 5.6354 29.7771 5.56568 29.7452 5.48894C29.7134 5.41219 29.6969 5.32991 29.6968 5.24681C29.6967 5.1637 29.713 5.08138 29.7447 5.00457C29.7764 4.92775 29.823 4.85793 29.8817 4.7991C31.3097 3.3711 32.6017 2.3631 33.7537 1.8251Z" fill="#FF4D4D" style="fill:#FF4D4D;fill:color(display-p3 1.0000 0.3020 0.3020);fill-opacity:1;"/>
<path d="M17.6697 16.2183C18.3412 16.2183 18.9852 15.9515 19.4601 15.4767C19.9349 15.0018 20.2017 14.3578 20.2017 13.6863C20.2017 13.0148 19.9349 12.3707 19.4601 11.8959C18.9852 11.4211 18.3412 11.1543 17.6697 11.1543C16.9982 11.1543 16.3541 11.4211 15.8793 11.8959C15.4045 12.3707 15.1377 13.0148 15.1377 13.6863C15.1377 14.3578 15.4045 15.0018 15.8793 15.4767C16.3541 15.9515 16.9982 16.2183 17.6697 16.2183ZM30.3297 16.2183C31.0012 16.2183 31.6452 15.9515 32.1201 15.4767C32.5949 15.0018 32.8617 14.3578 32.8617 13.6863C32.8617 13.0148 32.5949 12.3707 32.1201 11.8959C31.6452 11.4211 31.0012 11.1543 30.3297 11.1543C29.6582 11.1543 29.0141 11.4211 28.5393 11.8959C28.0645 12.3707 27.7977 13.0148 27.7977 13.6863C27.7977 14.3578 28.0645 15.0018 28.5393 15.4767C29.0141 15.9515 29.6582 16.2183 30.3297 16.2183Z" fill="#050810" style="fill:#050810;fill:color(display-p3 0.0196 0.0314 0.0627);fill-opacity:1;"/>
<path d="M18.0921 14.319C18.3722 14.319 18.6408 14.2078 18.8388 14.0097C19.0369 13.8117 19.1481 13.5431 19.1481 13.263C19.1481 12.983 19.0369 12.7144 18.8388 12.5163C18.6408 12.3183 18.3722 12.207 18.0921 12.207C17.8123 12.207 17.544 12.3182 17.3461 12.516C17.1483 12.7139 17.0371 12.9822 17.0371 13.262C17.0371 13.5418 17.1483 13.8102 17.3461 14.008C17.544 14.2059 17.8123 14.319 18.0921 14.319ZM30.7521 14.319C31.0319 14.319 31.3003 14.2079 31.4981 14.01C31.696 13.8122 31.8071 13.5438 31.8071 13.264C31.8071 12.9842 31.696 12.7159 31.4981 12.518C31.3003 12.3202 31.0319 12.209 30.7521 12.209C30.4726 12.209 30.2045 12.3201 30.0068 12.5177C29.8092 12.7154 29.6981 12.9835 29.6981 13.263C29.6981 13.5426 29.8092 13.8107 30.0068 14.0083C30.2045 14.206 30.4726 14.319 30.7521 14.319Z" fill="#00E5CC" style="fill:#00E5CC;fill:color(display-p3 0.0000 0.8980 0.8000);fill-opacity:1;"/>
</g>
<defs>
<linearGradient id="paint0_linear_2_1745" x1="-1.31824" y1="-1.08328" x2="54.0458" y2="43.7107" gradientUnits="userSpaceOnUse">
<stop stop-color="#FF4D4D" style="stop-color:#FF4D4D;stop-color:color(display-p3 1.0000 0.3020 0.3020);stop-opacity:1;"/>
<stop offset="1" stop-color="#991B1B" style="stop-color:#991B1B;stop-color:color(display-p3 0.6000 0.1059 0.1059);stop-opacity:1;"/>
</linearGradient>
<linearGradient id="paint1_linear_2_1745" x1="0.000125018" y1="17.343" x2="8.62212" y2="27.897" gradientUnits="userSpaceOnUse">
<stop stop-color="#FF4D4D" style="stop-color:#FF4D4D;stop-color:color(display-p3 1.0000 0.3020 0.3020);stop-opacity:1;"/>
<stop offset="1" stop-color="#991B1B" style="stop-color:#991B1B;stop-color:color(display-p3 0.6000 0.1059 0.1059);stop-opacity:1;"/>
</linearGradient>
<linearGradient id="paint2_linear_2_1745" x1="38.7699" y1="17.905" x2="48.7979" y2="26.923" gradientUnits="userSpaceOnUse">
<stop stop-color="#FF4D4D" style="stop-color:#FF4D4D;stop-color:color(display-p3 1.0000 0.3020 0.3020);stop-opacity:1;"/>
<stop offset="1" stop-color="#991B1B" style="stop-color:#991B1B;stop-color:color(display-p3 0.6000 0.1059 0.1059);stop-opacity:1;"/>
</linearGradient>
<clipPath id="clip0_2_1745">
<rect width="48" height="48" fill="white" style="fill:white;fill-opacity:1;"/>
</clipPath>
</defs>
</svg>
