<svg width="48" height="48" viewBox="0 0 48 48" fill="none" xmlns="http://www.w3.org/2000/svg">
<g clip-path="url(#clip0_3_2106)">
<g clip-path="url(#clip1_3_2106)">
<path fill-rule="evenodd" clip-rule="evenodd" d="M33.608 3.914L48.048 12.124V12.298L33.46 20.42L33.494 16.186L31.852 16.126C29.734 16.07 28.63 16.13 27.316 16.346C25.188 16.696 23.24 17.5 21.022 19.05L16.69 22.06C16.122 22.45 15.7 22.732 15.33 22.97L14.3 23.614L13.506 24.082L14.276 24.542L15.336 25.218C16.288 25.846 17.676 26.81 20.738 28.95C22.958 30.5 24.904 31.304 27.032 31.654L27.632 31.744C29.02 31.926 30.382 31.932 33.282 31.81L33.326 27.492L47.766 35.702V35.876L33.178 44L33.206 40.276L31.936 40.32C29.164 40.404 27.662 40.324 25.66 39.996C22.272 39.436 19.14 38.144 15.898 35.878L11.582 32.878C11.0855 32.5357 10.5821 32.2036 10.072 31.882L9.138 31.322C8.63358 31.0314 8.1269 30.7447 7.618 30.462C5.816 29.46 1.126 28.232 0 28.232V19.776L0.28 19.784C1.408 19.77 6.1 18.54 7.898 17.536L9.93 16.376L10.806 15.828C11.662 15.268 12.95 14.376 16.178 12.122C19.42 9.856 22.55 8.562 25.94 8.004C28.244 7.624 29.888 7.578 33.568 7.728L33.608 3.914Z" fill="white" style="fill:white;fill-opacity:1;"/>
</g>
</g>
<defs>
<clipPath id="clip0_3_2106">
<rect width="48" height="48" fill="white" style="fill:white;fill-opacity:1;"/>
</clipPath>
<clipPath id="clip1_3_2106">
<rect width="48" height="48" fill="white" style="fill:white;fill-opacity:1;"/>
</clipPath>
</defs>
</svg>
