<svg width="48" height="48" viewBox="0 0 48 48" fill="none" xmlns="http://www.w3.org/2000/svg">
<g clip-path="url(#clip0_2_1890)">
<g clip-path="url(#clip1_2_1890)">
<path fill-rule="evenodd" clip-rule="evenodd" d="M18.0921 12.208C18.3719 12.208 18.6403 12.3192 18.8381 12.517C19.036 12.7149 19.1471 12.9832 19.1471 13.263C19.1471 13.5428 19.036 13.8112 18.8381 14.009C18.6403 14.2069 18.3719 14.318 18.0921 14.318C17.8123 14.318 17.544 14.2069 17.3461 14.009C17.1483 13.8112 17.0371 13.5428 17.0371 13.263C17.0371 12.9832 17.1483 12.7149 17.3461 12.517C17.544 12.3192 17.8123 12.208 18.0921 12.208Z" fill="white" style="fill:white;fill-opacity:1;"/>
<path fill-rule="evenodd" clip-rule="evenodd" d="M30.752 12.208C31.0321 12.208 31.3007 12.3193 31.4988 12.5173C31.6968 12.7153 31.808 12.9839 31.808 13.264C31.808 13.5441 31.6968 13.8127 31.4988 14.0107C31.3007 14.2088 31.0321 14.32 30.752 14.32C30.472 14.32 30.2034 14.2088 30.0053 14.0107C29.8073 13.8127 29.696 13.5441 29.696 13.264C29.696 12.9839 29.8073 12.7153 30.0053 12.5173C30.2034 12.3193 30.472 12.208 30.752 12.208Z" fill="white" style="fill:white;fill-opacity:1;"/>
<path fill-rule="evenodd" clip-rule="evenodd" d="M33.7539 1.8239C34.9139 1.2839 36.0339 1.1779 36.9859 1.7499C37.1174 1.84197 37.2092 1.98052 37.2425 2.13758C37.2759 2.29465 37.2484 2.45852 37.1657 2.59612C37.0829 2.73372 36.951 2.83479 36.7966 2.87892C36.6422 2.92306 36.4769 2.90697 36.3339 2.8339C35.8799 2.5619 35.2399 2.5279 34.2899 2.9699C33.5859 3.2999 32.7599 3.8699 31.8219 4.7019C37.1879 7.0419 40.6219 11.7019 42.1179 16.5439C41.642 16.6399 41.1719 16.7627 40.7099 16.9119C39.5539 16.9439 38.3619 17.3199 37.7059 18.3819C37.0299 19.4819 37.1699 20.9339 37.8499 22.5199L37.8599 22.5439L37.8739 22.5719C38.9199 24.6619 40.5099 26.3919 42.2739 27.1399C40.4499 33.6879 35.3939 39.4279 30.3299 41.1159V45.3339H26.1099V41.1139C24.0239 41.9479 21.9379 41.1339 21.8899 41.1139V45.3339H17.6699V41.1139C12.6079 39.4279 7.54788 33.6879 5.72388 27.1399C7.48788 26.3939 9.07988 24.6639 10.1239 22.5719L10.1379 22.5439L10.1499 22.5199C10.8299 20.9339 10.9699 19.4839 10.2919 18.3819C9.63788 17.3199 8.44588 16.9439 7.28588 16.9119C6.82385 16.7633 6.35376 16.6411 5.87788 16.5459C7.37588 11.7039 10.8099 7.0439 16.1759 4.7019C15.2359 3.8699 14.4159 3.2999 13.7079 2.9699C12.7599 2.5279 12.1199 2.5619 11.6659 2.8339C11.5215 2.91988 11.3489 2.94521 11.1859 2.90437C11.0229 2.86352 10.8827 2.75981 10.7959 2.6159C10.7106 2.47199 10.6857 2.30022 10.7265 2.13801C10.7674 1.9758 10.8706 1.8363 11.0139 1.7499C11.9659 1.1779 13.0859 1.2839 14.2439 1.8239C15.2239 2.2819 16.3059 3.0799 17.4859 4.1879C19.5833 3.47624 21.7851 3.12066 23.9999 3.1359C26.3979 3.1359 28.5679 3.5159 30.5119 4.1879C31.6919 3.0799 32.7719 2.2819 33.7519 1.8239H33.7539ZM17.6699 11.1539C16.9983 11.1539 16.3543 11.4207 15.8795 11.8955C15.4046 12.3704 15.1379 13.0144 15.1379 13.6859C15.1379 14.3574 15.4046 15.0015 15.8795 15.4763C16.3543 15.9511 16.9983 16.2179 17.6699 16.2179C18.3414 16.2179 18.9854 15.9511 19.4603 15.4763C19.9351 15.0015 20.2019 14.3574 20.2019 13.6859C20.2019 13.0144 19.9351 12.3704 19.4603 11.8955C18.9854 11.4207 18.3414 11.1539 17.6699 11.1539ZM30.3299 11.1539C29.9912 11.1444 29.6542 11.2029 29.3385 11.3259C29.0229 11.4489 28.7351 11.634 28.4922 11.8701C28.2494 12.1063 28.0563 12.3887 27.9245 12.7008C27.7926 13.0128 27.7247 13.3481 27.7247 13.6869C27.7247 14.0257 27.7926 14.361 27.9245 14.673C28.0563 14.9851 28.2494 15.2676 28.4922 15.5037C28.7351 15.7399 29.0229 15.9249 29.3385 16.0479C29.6542 16.1709 29.9912 16.2294 30.3299 16.2199C30.9893 16.2014 31.6156 15.9264 32.0755 15.4534C32.5354 14.9804 32.7927 14.3466 32.7927 13.6869C32.7927 13.0272 32.5354 12.3934 32.0755 11.9204C31.6156 11.4474 30.9893 11.1724 30.3299 11.1539Z" fill="white" style="fill:white;fill-opacity:1;"/>
<path fill-rule="evenodd" clip-rule="evenodd" d="M0.789996 24.236C-1.142 20.372 0.463996 16.51 5.61 17.506V17.504L5.71 17.524C5.878 17.56 6.05 17.6 6.23 17.644C6.296 17.662 6.364 17.678 6.43 17.698C6.598 17.742 6.766 17.794 6.94 17.85L7.12 17.904C8.176 17.904 9.02 18.22 9.44 18.906C9.864 19.592 9.864 20.646 9.23 22.126C9.06 22.466 8.874 22.792 8.678 23.104L8.658 23.138C8.29921 23.7059 7.88375 24.2359 7.418 24.72L7.38 24.76C5.196 26.994 2.388 27.432 0.789996 24.236Z" fill="white" style="fill:white;fill-opacity:1;"/>
<path fill-rule="evenodd" clip-rule="evenodd" d="M42.386 17.5058C47.534 16.5058 49.142 20.3718 47.208 24.2358C46.048 26.5538 44.256 26.9578 42.524 26.1558L42.502 26.1458C42.4251 26.1105 42.349 26.0731 42.274 26.0338L42.236 26.0138C42.1583 25.971 42.0816 25.9263 42.006 25.8798L41.96 25.8518C41.89 25.8078 41.818 25.7638 41.748 25.7158L41.648 25.6458C40.548 24.8698 39.524 23.6318 38.768 22.1258C38.216 20.8318 38.146 19.8618 38.42 19.1818C38.772 18.3038 39.692 17.9038 40.88 17.9038C40.944 17.8818 41.012 17.8638 41.078 17.8438C41.238 17.7918 41.398 17.7438 41.554 17.6998L41.788 17.6398C41.9867 17.5896 42.1848 17.5449 42.386 17.5058Z" fill="white" style="fill:white;fill-opacity:1;"/>
</g>
</g>
<defs>
<clipPath id="clip0_2_1890">
<rect width="48" height="48" fill="white" style="fill:white;fill-opacity:1;"/>
</clipPath>
<clipPath id="clip1_2_1890">
<rect width="48" height="48" fill="white" style="fill:white;fill-opacity:1;"/>
</clipPath>
</defs>
</svg>
