<svg width="48" height="48" viewBox="0 0 48 48" fill="none" xmlns="http://www.w3.org/2000/svg">
<g clip-path="url(#clip0_6_1456)">
<path d="M25.208 2.68033C25.994 4.06033 26.776 5.44433 27.556 6.83033C27.5875 6.88576 27.6332 6.93182 27.6884 6.9638C27.7436 6.99577 27.8062 7.01252 27.87 7.01233H38.974C39.322 7.01233 39.618 7.23233 39.866 7.66633L42.774 12.8063C43.154 13.4803 43.254 13.7623 42.822 14.4803C42.302 15.3403 41.796 16.2083 41.302 17.0803L40.568 18.3963C40.356 18.7883 40.122 18.9563 40.488 19.4203L45.792 28.6943C46.136 29.2963 46.014 29.6823 45.706 30.2343C44.832 31.8043 43.942 33.3623 43.036 34.9143C42.718 35.4583 42.332 35.6643 41.676 35.6543C40.122 35.6223 38.572 35.6343 37.022 35.6863C36.9888 35.688 36.9565 35.6981 36.9282 35.7156C36.8999 35.7331 36.8764 35.7574 36.86 35.7863C35.0717 38.9549 33.2683 42.1149 31.45 45.2663C31.112 45.8523 30.69 45.9923 30 45.9943C28.006 46.0003 25.996 46.0023 23.966 45.9983C23.777 45.9978 23.5915 45.9474 23.4282 45.8523C23.2649 45.7571 23.1296 45.6205 23.036 45.4563L20.366 40.8103C20.3505 40.7799 20.3266 40.7546 20.2972 40.7372C20.2678 40.7199 20.2341 40.7113 20.2 40.7123H9.964C9.394 40.7723 8.858 40.7103 8.354 40.5283L5.148 34.9883C5.05318 34.8243 5.00293 34.6383 5.00223 34.4489C5.00153 34.2594 5.0504 34.0731 5.144 33.9083L7.558 29.6683C7.59239 29.6084 7.61048 29.5405 7.61048 29.4713C7.61048 29.4022 7.59239 29.3343 7.558 29.2743C6.30054 27.0973 5.05053 24.9159 3.808 22.7303L2.228 19.9403C1.908 19.3203 1.882 18.9483 2.418 18.0103C3.348 16.3843 4.272 14.7603 5.192 13.1383C5.456 12.6703 5.8 12.4703 6.36 12.4683C8.08599 12.4611 9.812 12.4604 11.538 12.4663C11.5816 12.466 11.6243 12.4542 11.6619 12.432C11.6995 12.4099 11.7306 12.3783 11.752 12.3403L17.364 2.55033C17.449 2.4014 17.5718 2.2775 17.72 2.19113C17.8682 2.10476 18.0365 2.05895 18.208 2.05833C19.256 2.05633 20.314 2.05833 21.374 2.04633L23.408 2.00033C24.09 1.99433 24.856 2.06433 25.208 2.68033ZM18.344 3.48633C18.3229 3.48632 18.3022 3.49186 18.284 3.50239C18.2657 3.51292 18.2505 3.52808 18.24 3.54633L12.508 13.5763C12.4805 13.6236 12.4411 13.6629 12.3937 13.6902C12.3464 13.7176 12.2927 13.7321 12.238 13.7323H6.506C6.394 13.7323 6.366 13.7823 6.424 13.8803L18.044 34.1923C18.094 34.2763 18.07 34.3163 17.976 34.3183L12.386 34.3483C12.3043 34.3456 12.2234 34.3659 12.1527 34.4069C12.082 34.448 12.0242 34.508 11.986 34.5803L9.346 39.2003C9.258 39.3563 9.304 39.4363 9.482 39.4363L20.914 39.4523C21.006 39.4523 21.074 39.4923 21.122 39.5743L23.928 44.4823C24.02 44.6443 24.112 44.6463 24.206 44.4823L34.218 26.9623L35.784 24.1983C35.7936 24.1813 35.8075 24.167 35.8244 24.1571C35.8412 24.1472 35.8604 24.142 35.88 24.142C35.8996 24.142 35.9188 24.1472 35.9356 24.1571C35.9525 24.167 35.9664 24.1813 35.976 24.1983L38.824 29.2583C38.8454 29.2962 38.8765 29.3277 38.9141 29.3495C38.9517 29.3713 38.9945 29.3826 39.038 29.3823L44.564 29.3423C44.5782 29.3425 44.5921 29.3388 44.6044 29.3318C44.6167 29.3248 44.6269 29.3146 44.634 29.3023C44.6408 29.2901 44.6444 29.2763 44.6444 29.2623C44.6444 29.2483 44.6408 29.2346 44.634 29.2223L38.834 19.0503C38.8131 19.0163 38.8021 18.9772 38.8021 18.9373C38.8021 18.8974 38.8131 18.8583 38.834 18.8243L39.42 17.8103L41.66 13.8563C41.708 13.7743 41.684 13.7323 41.59 13.7323H18.4C18.282 13.7323 18.254 13.6803 18.314 13.5783L21.182 8.56833C21.2035 8.53419 21.2149 8.49467 21.2149 8.45433C21.2149 8.41399 21.2035 8.37447 21.182 8.34033L18.45 3.54833C18.4396 3.52941 18.4242 3.51366 18.4055 3.50274C18.3869 3.49183 18.3656 3.48616 18.344 3.48633ZM30.924 19.5263C31.016 19.5263 31.04 19.5663 30.992 19.6463L29.328 22.5763L24.102 31.7463C24.0922 31.7642 24.0777 31.779 24.0601 31.7892C24.0424 31.7994 24.0224 31.8047 24.002 31.8043C23.9817 31.8043 23.9618 31.7989 23.9443 31.7887C23.9267 31.7785 23.9121 31.7639 23.902 31.7463L16.996 19.6823C16.956 19.6143 16.976 19.5783 17.052 19.5743L17.484 19.5503L30.928 19.5263H30.924Z" fill="white" style="fill:white;fill-opacity:1;"/>
</g>
<defs>
<clipPath id="clip0_6_1456">
<rect width="48" height="48" fill="white" style="fill:white;fill-opacity:1;"/>
</clipPath>
</defs>
</svg>
