<svg width="48" height="48" viewBox="0 0 48 48" fill="none" xmlns="http://www.w3.org/2000/svg">
<g clip-path="url(#clip0_12_276)">
<path fill-rule="evenodd" clip-rule="evenodd" d="M39.334 16.55C39.334 7.41 31.034 0 20.794 0C17.246 0 14.368 7.41 14.368 16.55C14.368 18.836 14.548 21.016 14.874 22.998H8.58L2 46H20.8V33.106C31.034 33.106 39.332 25.692 39.332 16.556L39.334 16.552V16.55ZM20.794 3.03C22.654 3.03 24.158 9.086 24.158 16.55C24.158 24.016 22.654 30.07 20.796 30.07C18.936 30.07 17.434 24.016 17.434 16.55C17.434 9.086 18.938 3.03 20.794 3.03Z" fill="white" style="fill:white;fill-opacity:1;"/>
<path fill-rule="evenodd" clip-rule="evenodd" d="M39.696 33.104H20.816L28.056 46H46.932L39.696 33.104Z" fill="white" style="fill:white;fill-opacity:1;"/>
</g>
<defs>
<clipPath id="clip0_12_276">
<rect width="48" height="48" fill="white" style="fill:white;fill-opacity:1;"/>
</clipPath>
</defs>
</svg>
