<svg width="48" height="48" viewBox="0 0 48 48" fill="none" xmlns="http://www.w3.org/2000/svg">
<g clip-path="url(#clip0_2_1988)">
<g clip-path="url(#clip1_2_1988)">
<path d="M18.9713 29.0249C20.1614 29.0254 21.1273 29.9905 21.1277 31.1812V37.6911C21.1275 38.882 20.1615 39.8469 18.9713 39.8474C17.7809 39.8468 16.8151 38.882 16.815 37.6911V31.1812C16.8153 29.9904 17.781 29.0255 18.9713 29.0249Z" fill="white" style="fill:white;fill-opacity:1;"/>
<path d="M28.9586 29.0249C30.1492 29.0254 31.1146 29.9906 31.1149 31.1812V37.6911C31.1147 38.8819 30.1493 39.8469 28.9586 39.8474C27.7679 39.8469 26.8024 38.8818 26.8022 37.6911V31.1812C26.8025 29.9906 27.768 29.0254 28.9586 29.0249Z" fill="white" style="fill:white;fill-opacity:1;"/>
<path fill-rule="evenodd" clip-rule="evenodd" d="M20.0154 -0.00390625C21.642 -0.00390625 23.0269 1.10618 23.3884 2.68811L23.9944 5.34607L24.6005 2.68811C24.9617 1.10661 26.3454 -0.00304123 27.9712 -0.00390625H29.4988C31.1246 -0.00390625 32.5145 1.10498 32.8763 2.68811L34.6218 10.3533C34.7365 10.858 34.737 11.3918 34.6218 11.8922L33.1827 18.1842L33.185 18.1819C33.185 18.1819 33.1905 18.1956 33.2077 18.2092C33.8585 18.7124 34.3974 19.3256 34.8079 20.0387L39.6381 28.3984C40.3587 29.6479 40.7139 31.0431 40.714 32.4364C40.714 33.8292 40.3589 35.224 39.6381 36.4676L35.3118 43.9649C33.8716 46.4501 31.1957 47.9958 28.3207 47.9961H19.6682C16.9732 47.9956 14.4522 46.6383 12.9608 44.4211L12.6771 43.9649L8.35081 36.4676C6.91647 33.9825 6.91671 30.8891 8.35081 28.3984L13.1787 20.0387C13.5898 19.3253 14.1301 18.7127 14.7812 18.2092L14.7994 18.1887L13.3671 11.8922C13.2518 11.392 13.2518 10.8554 13.3671 10.351L15.1126 2.68811L15.1921 2.39757C15.6485 0.971157 16.966 -0.00354229 18.4901 -0.00390625H20.0154ZM16.7469 11.1182L16.7492 11.1228L18.1814 17.4261L18.2291 17.6735C18.4072 18.8294 17.9751 20.005 17.0987 20.7877L16.9035 20.9489C16.609 21.1747 16.365 21.4548 16.1794 21.7728L11.3561 30.1326C10.5328 31.55 10.5336 33.3183 11.3515 34.7358L15.6823 42.2307C16.4999 43.6473 18.0264 44.5296 19.6682 44.5301H28.3207C29.9627 44.5298 31.4889 43.6497 32.3065 42.233L36.6328 34.7335C37.4563 33.3166 37.4565 31.55 36.6328 30.1326L31.8095 21.7728C31.6704 21.5346 31.4997 21.3167 31.2987 21.1282L31.0854 20.9489C30.0128 20.1206 29.5032 18.7414 29.8075 17.4261L31.2397 11.125V11.1205L29.4965 3.46212H27.9803L26.2348 11.1001C26.2322 11.1185 26.2337 11.1331 26.2348 11.1409L27.3651 16.1028C27.6043 17.1368 27.3583 18.2109 26.7001 19.0354C26.0421 19.8592 25.0501 20.3359 23.9944 20.336C22.9393 20.3357 21.9471 19.8589 21.2888 19.0354C20.6318 18.2114 20.3835 17.1383 20.6215 16.105L21.7519 11.1387V11.091L20.0086 3.46212H18.4924L16.7469 11.1182ZM23.9944 14.2029C23.8228 14.2032 23.6673 14.2914 23.5791 14.4299L23.5155 14.5843L23.0457 16.6475C22.9439 17.0544 23.1255 17.3606 23.2341 17.4942L23.2363 17.4964C23.3399 17.6218 23.5842 17.8548 23.9944 17.8551C24.4051 17.855 24.6486 17.6222 24.7526 17.4964L24.7548 17.4919C24.7782 17.463 24.8051 17.4255 24.832 17.3807C24.8856 17.2914 24.9389 17.1724 24.9614 17.0289C24.9727 16.9568 24.9762 16.8785 24.9682 16.7951L24.9432 16.6475L24.4734 14.5843C24.4221 14.361 24.2236 14.2031 23.9944 14.2029Z" fill="white" style="fill:white;fill-opacity:1;"/>
</g>
</g>
<defs>
<clipPath id="clip0_2_1988">
<rect width="48" height="48" fill="white" style="fill:white;fill-opacity:1;"/>
</clipPath>
<clipPath id="clip1_2_1988">
<rect width="48" height="48" fill="white" style="fill:white;fill-opacity:1;"/>
</clipPath>
</defs>
</svg>
