<svg width="48" height="48" viewBox="0 0 48 48" fill="none" xmlns="http://www.w3.org/2000/svg">
<g clip-path="url(#clip0_12_1777)">
<path fill-rule="evenodd" clip-rule="evenodd" d="M41.1316 3.84264C40.6373 3.38123 40.0111 2.95277 39.4178 2.65615C33.2876 -0.441905 21.4557 6.67703 14.5015 12.1481C14.139 12.4117 13.6776 12.7743 13.2491 13.1038C9.426 13.4664 6.32794 13.8948 4.97666 14.3233C1.48311 15.4109 0.856909 15.9053 0 16.5644C4.15271 14.6529 13.6446 13.5982 23.598 13.4664C28.4757 13.4005 32.2 13.4664 36.089 14.0926C40.6702 14.8177 44.2956 16.0042 45.4162 18.3442C46.9322 20.9808 45.1855 26.1882 40.7691 32.648C37.1437 37.9872 32.6614 42.1728 28.3439 44.7106C31.8045 42.9638 35.5288 40.4261 38.3961 36.8995C40.1099 34.8232 41.7578 32.648 43.1091 30.5057C42.8784 31.0001 42.6147 31.4944 42.3511 32.0218C39.9781 36.2074 37.1107 39.9976 33.782 42.799C33.6502 42.8979 41.1316 37.1302 43.7683 31.1978C44.1967 30.2091 44.6252 29.1544 45.0207 28.0668C44.724 29.2203 44.3945 30.3079 43.966 31.2967C42.0545 35.779 38.2643 40.3601 37.7699 40.8215C39.4837 39.3384 42.5488 36.3063 44.757 31.4615C44.8229 31.2967 44.8888 31.1648 44.9548 31.0001C43.9331 34.2299 42.2192 37.0973 40.7361 39.1407C42.3181 37.1302 44.79 34.197 45.9765 30.8023C45.2184 33.2742 43.7353 36.0756 43.0432 37.5257C43.3728 36.9655 44.9877 35.5153 46.2401 32.1536C45.6798 34.5595 44.79 36.4711 44.79 36.4711C44.79 36.4711 46.6027 33.8674 47.2289 30.5386C49.2393 22.0684 47.3607 9.37959 41.0987 3.8756L41.1316 3.84264ZM43.4057 9.77508C43.4057 9.77508 43.6364 10.0058 43.7683 10.1376C41.5601 8.88522 37.8029 8.42381 32.5625 8.98409C29.2997 9.34663 25.7073 10.0058 22.1148 10.8957C23.7627 10.4013 25.4106 9.97283 27.1245 9.47846C36.155 7.10548 41.1316 7.69873 43.4387 9.77508H43.4057ZM41.9885 7.23731C40.7691 6.74294 39.286 6.51224 37.3744 6.51224C34.4741 6.51224 30.7498 7.13844 26.0368 8.62155C24.5867 9.08296 23.1036 9.57733 21.5546 10.1047C26.7619 7.7976 30.8487 6.31449 35.0673 5.82012C37.8358 5.49054 40.1099 5.82012 41.4942 6.84182C41.659 6.97365 41.8237 7.07252 41.9885 7.20436V7.23731ZM44.0978 12.5106C44.0978 12.5106 44.2626 12.7084 44.3615 12.8072C43.1091 11.9833 41.0657 11.2912 37.2096 10.9286C33.5513 10.599 29.0031 10.8957 24.3889 11.4559C23.8287 11.5219 23.2354 11.6207 22.6751 11.6867C31.7056 9.74213 40.9009 9.08297 44.0978 12.4776V12.5106ZM39.3519 4.23813C39.6156 4.33701 39.8463 4.46884 40.1099 4.63363C39.3189 4.40292 38.3961 4.27109 37.4074 4.20518C33.0899 4.00743 26.2346 6.5452 19.6759 9.87396C22.6092 7.99535 24.5208 6.70999 27.454 5.49054C31.9693 3.61193 36.4845 2.91981 39.3519 4.20518V4.23813ZM33.1887 12.5765C30.3543 12.3788 27.0256 12.3788 23.6968 12.4776C28.2121 11.9174 29.6293 11.9503 34.2434 12.0162C38.0995 12.0821 40.2088 12.6095 42.0215 13.3675C43.5046 13.9937 44.3615 14.8177 44.9877 15.6087C45.1195 15.7734 45.2184 15.9382 45.3173 16.136C43.175 14.1255 38.6598 12.9391 33.1887 12.6095V12.5765Z" fill="white" style="fill:white;fill-opacity:1;"/>
<path fill-rule="evenodd" clip-rule="evenodd" d="M29.0361 40.9536C29.0361 40.9536 29.0361 40.9536 29.0031 40.9536C23.6309 40.5251 16.3143 36.3065 10.6784 31.6924C16.479 35.6803 24.2571 39.7341 29.7282 40.4592C29.9918 40.2944 31.1124 39.5694 31.3431 39.4046C25.5425 38.7784 17.7314 35.3507 11.766 31.4617C17.7974 34.7575 26.0698 38.0862 31.9693 38.7454C32.2 38.5477 33.2876 37.6578 33.5183 37.46C27.8825 36.9657 20.6977 34.6256 14.7982 31.8901C20.7636 34.2631 28.3769 36.5043 34.0457 36.8338C34.2764 36.6031 34.4741 36.4054 34.6389 36.2406L35.5288 35.3507C34.573 35.3178 33.5183 35.2189 32.4637 35.0541C24.2571 33.9335 12.7218 30.7366 7.877 27.9352C6.92122 27.3749 6.39389 26.9794 5.53698 26.1554C5.43811 26.0895 5.37219 25.9906 5.27332 25.8918C3.82316 24.4416 2.5378 22.4971 1.94455 20.7503C1.94455 20.6844 1.94455 20.6185 1.9116 20.5526C1.81272 20.1241 1.74681 19.6297 1.64793 19.1354C1.58202 19.1354 0.823982 20.4537 2.04343 24.0132C4.44936 31.0003 14.8641 43.3266 21.2909 43.9528C23.7628 44.1835 25.971 43.0629 28.8053 41.1184C28.9042 41.0525 29.0031 41.0195 29.0361 40.9865V40.9536ZM26.5642 42.206C21.258 42.206 13.9413 36.8338 8.63504 31.231C14.139 36.1747 21.8842 41.3491 27.2563 42.0083C27.1245 42.0742 26.9927 42.1401 26.8938 42.206C26.7949 42.206 26.6301 42.206 26.5642 42.206ZM21.9501 43.1618C16.9734 42.6674 10.8762 36.5702 6.72347 30.5718C11.5024 36.2736 18.5554 42.4037 23.9276 43.1288C23.2684 43.2277 22.6422 43.2277 21.9501 43.1288V43.1618ZM27.5529 41.8435C27.8166 41.6787 28.1791 41.4809 28.5087 41.2832C28.1791 41.4809 27.8496 41.6787 27.5529 41.8435Z" fill="white" style="fill:white;fill-opacity:1;"/>
</g>
<defs>
<clipPath id="clip0_12_1777">
<rect width="48" height="48" fill="white" style="fill:white;fill-opacity:1;"/>
</clipPath>
</defs>
</svg>
