<svg width="48" height="48" viewBox="0 0 48 48" fill="none" xmlns="http://www.w3.org/2000/svg">
<g clip-path="url(#clip0_7_1461)">
<g clip-path="url(#clip1_7_1461)">
<path d="M38.7475 11.5854C38.8325 11.6602 38.9176 11.7349 39.0053 11.812C39.1007 11.8945 39.1961 11.977 39.2943 12.062C39.853 13.0552 39.4333 14.5559 39.2865 15.6323C39.2637 15.8039 39.2409 15.9754 39.2182 16.147C39.022 17.6137 38.7979 19.0759 38.5678 20.5376C38.2346 22.6665 37.9346 24.7986 37.6686 26.9368C37.649 27.0927 37.6294 27.2485 37.6093 27.4091C37.5922 27.5474 37.5751 27.6856 37.5574 27.828C37.5146 28.123 37.4538 28.3989 37.3803 28.687C37.3657 28.9419 37.3584 29.1973 37.3568 29.4526C37.3551 29.5844 37.3533 29.7162 37.3515 29.852C37.3457 30.206 37.3457 30.206 37.6303 30.437C39.0825 30.6397 40.6992 30.2597 42.0497 29.7299C42.5017 29.5633 42.6839 29.5335 43.1303 29.687C42.984 30.9501 42.0986 32.0283 41.1303 32.812C40.3773 33.3355 39.6037 33.7814 38.7631 34.1479C37.9016 34.5241 37.3763 34.9164 37.0053 35.812C36.9556 36.2479 36.9556 36.2479 36.974 36.6948C36.976 36.8432 36.9779 36.9916 36.9799 37.1445C37.0019 37.5072 37.0557 37.8327 37.1303 38.187C37.2359 39.3296 37.0298 40.1916 36.3334 41.1088C35.8555 41.5868 35.431 41.8267 34.7553 41.8666C34.2227 41.8432 33.908 41.6678 33.5053 41.312C33.0584 40.6251 33.0289 39.9113 32.9506 39.1166C32.6916 36.8441 32.0016 34.7108 30.5053 32.937C30.4305 32.8313 30.3557 32.7256 30.2787 32.6166C29.8661 32.1569 29.3752 31.8039 28.8803 31.437C28.9896 30.8276 28.9896 30.8276 29.1303 30.687C29.2988 30.6764 29.4678 30.6734 29.6366 30.6738C31.502 30.6562 31.502 30.6562 33.1303 29.812C33.5397 29.2724 33.7321 28.8029 33.8851 28.1456C33.9056 28.0587 33.926 27.9718 33.9471 27.8823C34.1711 26.9173 34.3641 25.9459 34.5531 24.9736C34.591 24.7807 34.6289 24.5879 34.6669 24.3951C34.7655 23.8937 34.8634 23.3922 34.9613 22.8907C35.0409 22.483 35.121 22.0753 35.2011 21.6677C35.2978 21.176 35.3942 20.6842 35.4906 20.1923C35.5086 20.1008 35.5265 20.0092 35.545 19.9148C35.7473 18.8818 35.9458 17.8483 36.1303 16.812C36.0823 16.903 36.0344 16.994 35.9849 17.0878C33.8845 21.0697 31.5751 24.9509 28.8803 28.562C28.7795 28.6985 28.6787 28.835 28.578 28.9716C27.6135 30.2707 26.6371 31.563 25.5385 32.7524C25.3824 32.923 25.2273 33.0945 25.0769 33.2701C24.4695 33.979 23.8213 34.6442 23.1615 35.3039C22.9754 35.4903 22.7904 35.6776 22.6054 35.8649C21.8214 36.6535 21.0045 37.3728 20.1303 38.062C19.9933 38.1735 19.8564 38.2851 19.7196 38.3969C18.045 39.7206 16.199 40.8073 14.2553 41.687C14.1704 41.7256 14.0854 41.7643 13.9979 41.8041C11.4338 42.9459 8.79843 43.3482 6.00527 43.187C5.91403 43.1819 5.82279 43.1769 5.72878 43.1718C4.26057 43.0738 2.97413 42.5561 1.96572 41.4638C1.60705 40.992 1.35941 40.4814 1.13027 39.937C1.08926 39.8419 1.04825 39.7468 1.006 39.6488C0.599501 38.5597 0.581792 37.3598 0.583396 36.2104C0.583562 35.9924 0.583562 35.9924 0.583731 35.77C0.608526 33.9193 0.870058 31.9374 1.50527 30.187C1.58777 30.1457 1.67027 30.1045 1.75527 30.062C1.80828 30.1662 1.8613 30.2705 1.91592 30.3779C2.33153 31.1753 2.75026 31.8946 3.33242 32.5864C3.50527 32.812 3.50527 32.812 3.63027 33.187C3.71277 33.187 3.79527 33.187 3.88027 33.187C3.88027 33.2695 3.88027 33.352 3.88027 33.437C3.95101 33.4695 4.02175 33.5021 4.09463 33.5356C4.40619 33.7007 4.66921 33.8965 4.95058 34.1088C5.88331 34.7682 6.86842 35.1148 8.00527 35.187C8.09405 35.1934 8.18284 35.1999 8.27431 35.2065C10.2084 35.2837 11.916 34.6245 13.6303 33.812C13.7139 33.7725 13.7976 33.733 13.8837 33.6923C16.5114 32.4271 18.8194 30.4875 20.9303 28.4992C21.1551 28.2887 21.3818 28.0806 21.6088 27.8725C22.6746 26.8984 22.6746 26.8984 23.6478 25.8339C23.9103 25.5268 24.1851 25.2337 24.4618 24.9394C25.2211 24.1319 25.9399 23.3049 26.6303 22.437C26.7452 22.2959 26.8603 22.1549 26.9755 22.0141C28.708 19.8871 30.3248 17.654 31.6516 15.2498C32.6746 13.4104 33.8944 12.3687 35.9022 11.6748C36.8185 11.4193 37.8409 11.2189 38.7475 11.5854Z" fill="black" style="fill:black;fill-opacity:1;"/>
<path d="M38.4131 0.62709C39.452 1.19774 40.1298 2.05862 40.5 3.18715C40.6361 4.572 40.4919 5.72689 39.6172 6.8434C38.8652 7.64411 37.8937 8.11512 36.8071 8.21693C35.657 8.24921 34.8068 7.97252 33.9062 7.24965C33.0177 6.3911 32.5562 5.42952 32.5312 4.18715C32.5517 3.10575 32.8971 2.22901 33.6123 1.41811C35.0076 0.113785 36.671 -0.184821 38.4131 0.62709Z" fill="black" style="fill:black;fill-opacity:1;"/>
</g>
</g>
<defs>
<clipPath id="clip0_7_1461">
<rect width="48" height="48" fill="white" style="fill:white;fill-opacity:1;"/>
</clipPath>
<clipPath id="clip1_7_1461">
<rect width="48" height="48" fill="white" style="fill:white;fill-opacity:1;" transform="translate(0 0.0620117)"/>
</clipPath>
</defs>
</svg>
