<svg width="48" height="48" viewBox="0 0 48 48" fill="none" xmlns="http://www.w3.org/2000/svg">
<g clip-path="url(#clip0_2_1878)">
<path d="M16.16 4C19.567 4 22.38 6.63 22.805 10.034V10.667H16.553C16.4027 10.668 16.2576 10.7218 16.143 10.819L13.53 13.036C13.3295 12.94 13.1102 12.8898 12.888 12.889C12.055 12.889 11.379 13.585 11.379 14.444C11.379 15.304 12.055 16 12.889 16C13.722 16 14.398 15.304 14.398 14.444C14.398 14.3133 14.3827 14.187 14.352 14.065L16.785 12H22.805V23.333H10.587C10.4684 23.0701 10.277 22.8467 10.0355 22.6892C9.79395 22.5316 9.51235 22.4466 9.22399 22.444C8.38999 22.444 7.71399 23.141 7.71399 24C7.71399 24.859 8.38999 25.556 9.22399 25.556C9.82599 25.556 10.345 25.192 10.587 24.666H22.805V36H16.785L14.352 33.935C14.3827 33.813 14.398 33.6863 14.398 33.555C14.398 32.696 13.722 32 12.888 32C12.055 32 11.379 32.696 11.379 33.556C11.379 34.415 12.055 35.111 12.889 35.111C13.118 35.111 13.335 35.058 13.53 34.964L16.142 37.181C16.2568 37.2785 16.4024 37.3323 16.553 37.333H22.805V37.967C22.333 41.377 19.481 44 16.051 44C12.89 44 10.231 41.772 9.46499 38.752C7.17099 37.719 5.56799 35.355 5.56799 32.603C5.56799 31.955 5.65699 31.327 5.82299 30.734C3.77299 29.632 2.36299 27.431 2.32599 24.885V24.667C2.32599 21.883 3.97999 19.497 6.33199 18.5C5.8862 17.6556 5.62895 16.7245 5.57799 15.771L5.57199 15.639C5.56351 15.5002 5.55918 15.3611 5.55899 15.222C5.55899 12.464 7.26899 10.118 9.65599 9.249C10.382 6.234 13.018 4 16.16 4Z" fill="white" style="fill:white;fill-opacity:1;"/>
<path fill-rule="evenodd" clip-rule="evenodd" d="M38.127 9.326C37.428 6.272 34.774 4 31.607 4C28.199 4 25.385 6.63 24.961 10.034V37.967C25.433 41.377 28.284 44 31.715 44C34.876 44 37.535 41.772 38.301 38.752C40.595 37.719 42.198 35.355 42.198 32.603C42.198 31.955 42.109 31.327 41.943 30.734C44.021 29.617 45.441 27.371 45.441 24.782C45.441 22.452 44.291 20.401 42.547 19.2C42.5375 19.3328 42.4903 19.4601 42.411 19.567C41.113 21.292 39.645 22.377 38.029 22.82C37.8211 23.4018 37.7293 24.0188 37.759 24.636C37.782 25.105 37.872 25.579 38.04 26.059C38.0997 26.2244 38.0927 26.4065 38.0204 26.5669C37.9482 26.7272 37.8164 26.8531 37.653 26.918C37.5722 26.9476 37.4863 26.9606 37.4003 26.9563C37.3144 26.9521 37.2302 26.9306 37.1527 26.8932C37.0752 26.8558 37.006 26.8033 36.9492 26.7386C36.8924 26.674 36.8491 26.5986 36.822 26.517C36.6154 25.9325 36.4948 25.3211 36.464 24.702C36.4368 24.1456 36.4859 23.5881 36.61 23.045C34.978 23.122 33.215 22.606 31.339 21.498C31.1886 21.4063 31.0794 21.26 31.0343 21.0896C30.9892 20.9193 31.0117 20.7381 31.097 20.584C31.1374 20.5082 31.1926 20.4413 31.2595 20.3873C31.3264 20.3334 31.4035 20.2936 31.4862 20.2702C31.5688 20.2469 31.6554 20.2405 31.7406 20.2514C31.8258 20.2624 31.9079 20.2905 31.982 20.334L32.097 20.401C35.883 22.587 38.911 21.87 41.397 18.57C41.907 17.632 42.198 16.55 42.198 15.397C42.198 12.617 40.504 10.247 38.127 9.326ZM28.186 31.914C28.122 31.7502 28.1239 31.5679 28.1914 31.4055C28.2589 31.2431 28.3867 31.1132 28.548 31.043C28.7026 30.9803 28.8755 30.9805 29.03 31.0434C29.1845 31.1064 29.3082 31.2271 29.375 31.38L29.39 31.416L29.418 31.476C29.475 31.593 29.56 31.733 29.673 31.88C29.86 32.122 30.089 32.333 30.361 32.494C31.029 32.889 31.899 32.959 33.046 32.564C33.987 31.934 35.158 31.634 36.546 31.676C36.903 31.686 37.186 31.996 37.175 32.366C37.1724 32.5405 37.1007 32.7069 36.9757 32.8287C36.8507 32.9505 36.6825 33.0179 36.508 33.016C33.956 32.94 32.451 34.194 31.841 36.926C31.8236 37.0103 31.7895 37.0904 31.7409 37.1614C31.6923 37.2325 31.63 37.2932 31.5577 37.34C31.4854 37.3868 31.4045 37.4188 31.3198 37.4341C31.235 37.4493 31.1481 37.4476 31.064 37.429C30.894 37.3855 30.7478 37.277 30.6569 37.1268C30.566 36.9767 30.5377 36.7968 30.578 36.626C30.7913 35.6693 31.1087 34.8493 31.53 34.166C30.8305 34.1558 30.1483 33.9469 29.5629 33.5638C28.9776 33.1806 28.5132 32.639 28.224 32.002L28.218 31.989L28.186 31.914ZM31.142 10.257C31.0554 10.2605 30.9703 10.281 30.8916 10.3173C30.8129 10.3537 30.7422 10.4052 30.6834 10.4689C30.6246 10.5326 30.579 10.6073 30.549 10.6886C30.5191 10.7699 30.5055 10.8564 30.509 10.943C30.5377 12.1463 30.786 13.176 31.254 14.032C30.148 14.112 29.069 14.715 28.086 15.925C27.9751 16.0625 27.9215 16.2375 27.9364 16.4136C27.9513 16.5896 28.0335 16.7531 28.166 16.87C28.441 17.108 28.85 17.07 29.08 16.787C29.881 15.799 30.677 15.381 31.46 15.363C31.774 15.356 32.075 15.415 32.356 15.523C32.526 15.589 32.669 15.665 32.776 15.734L32.83 15.771L32.863 15.795C32.8783 15.805 32.8933 15.8143 32.908 15.823C33.6433 16.311 34.5413 16.6517 35.602 16.845C35.6871 16.8594 35.7743 16.8567 35.8583 16.837C35.9424 16.8173 36.0217 16.7811 36.0916 16.7305C36.1615 16.6798 36.2206 16.6158 36.2655 16.542C36.3104 16.4683 36.3401 16.3864 36.353 16.301C36.3845 16.1284 36.3471 15.9503 36.2487 15.8051C36.1504 15.6598 35.9989 15.5589 35.827 15.524C34.9297 15.362 34.1857 15.0837 33.595 14.689L33.538 14.647L33.472 14.602C32.386 13.817 31.844 12.6 31.805 10.912C31.8037 10.7373 31.7331 10.5703 31.6089 10.4475C31.4846 10.3247 31.3167 10.2562 31.142 10.257Z" fill="white" style="fill:white;fill-opacity:1;"/>
</g>
<defs>
<clipPath id="clip0_2_1878">
<rect width="48" height="48" fill="white" style="fill:white;fill-opacity:1;"/>
</clipPath>
</defs>
</svg>
