<svg width="48" height="48" viewBox="0 0 48 48" fill="none" xmlns="http://www.w3.org/2000/svg">
<g clip-path="url(#clip0_12_1645)">
<path d="M45.9176 12H25.0463C23.892 12 22.9605 12.9206 22.9605 14.0539V20.2188C22.9605 21.3554 22.0256 22.2726 20.8747 22.2726H2.08578C0.931515 22.2726 0 23.1932 0 24.3265V32.5485C0 33.6851 0.93489 34.6024 2.08578 34.6024H22.9571C24.1114 34.6024 25.0429 33.6818 25.0429 32.5485V26.3836C25.0429 25.247 25.9778 24.3298 27.1287 24.3298H45.9142C47.0685 24.3298 48 23.4092 48 22.2759V14.0539C48 12.9173 47.0651 12 45.9142 12H45.9176Z" fill="#6E29F5" style="fill:#6E29F5;fill:color(display-p3 0.4314 0.1608 0.9608);fill-opacity:1;"/>
</g>
<defs>
<clipPath id="clip0_12_1645">
<rect width="48" height="48" fill="white" style="fill:white;fill-opacity:1;"/>
</clipPath>
</defs>
</svg>
