<svg width="48" height="48" viewBox="0 0 48 48" fill="none" xmlns="http://www.w3.org/2000/svg">
<g clip-path="url(#clip0_7_1479)">
<path d="M36.9904 31.0518C36.9093 30.918 36.8235 30.7841 36.7328 30.6501L35.684 29.3733C34.3109 28.7277 34.0725 28.7133 33.1762 28.5891C31.412 28.3452 29.567 28.3594 28.1368 28.3834C27.7792 29.0768 27.3023 31.0232 24.5133 32.6969C20.1509 35.3177 8.2174 34.9016 7.38306 34.9972C7.62621 35.2603 12.7038 46.0969 12.7038 46.0969C17.1759 46.7042 27.7077 45.0974 33.7531 39.6217C35.293 38.2252 36.5756 36.7762 37.2335 34.7534C37.6197 33.5626 37.6482 32.1806 36.9856 31.047L36.9904 31.0518Z" fill="#EFCF14" style="fill:#EFCF14;fill:color(display-p3 0.9373 0.8118 0.0784);fill-opacity:1;"/>
<path d="M36.2488 30.0611C35.5814 29.1956 33.9699 28.6694 33.2261 28.6026C32.3012 28.5164 31.319 28.7365 30.3895 28.8081C30.0937 28.8321 26.9948 29.2482 25.8457 29.0138C24.7588 28.7939 22.804 28.4352 21.3785 26.9383L20.9065 26.4554C20.6348 26.1683 20.4297 25.9292 20.3487 25.7571C20.2677 25.5849 19.3952 24.485 19.0996 23.3708C18.8135 22.3187 18.7944 21.3096 18.9041 20.8792C19.2712 20.884 20.22 20.8744 20.9447 20.8218C23.0853 20.6784 24.7826 20.6402 26.0556 20.7884C27.1713 20.9174 28.0628 21.4674 28.4632 21.8787C30.0653 23.5381 34.2083 27.823 35.4814 29.1238C35.5862 29.2338 36.0867 29.8554 36.2536 30.0563L36.2488 30.0611Z" fill="#AA7F05" style="fill:#AA7F05;fill:color(display-p3 0.6667 0.4980 0.0196);fill-opacity:1;"/>
<path d="M39.6381 10.1097C39.1328 10.1527 38.7418 10.191 38.3461 10.2292C36.8253 10.3775 35.2996 10.4779 33.7882 10.6883C31.5999 10.9896 29.4449 11.4917 27.3519 12.2091C25.44 12.8642 23.6187 13.6964 22.0263 14.9779C20.4292 16.2645 19.2849 18.0195 19.037 20.1045C18.8654 21.5249 19.0084 22.7587 19.447 24.1025C19.6807 24.8152 20.5579 26.3981 22.0931 27.584C22.0931 27.584 22.0502 27.5984 20.8773 26.7089C19.4804 25.652 13.168 18.6699 13.168 18.6699C11.9713 17.1492 11.4707 15.8054 11.3372 15.0832C10.9987 13.2899 10.9606 11.8074 11.69 9.92794C12.4195 8.04852 13.5065 6.85295 14.8939 5.82475C16.3957 4.71049 18.4172 4.2466 20.2242 3.77794C21.9596 3.32842 23.695 2.87888 25.4591 2.57761C27.1374 2.29066 29.4783 2.08023 31.1755 1.90808C31.8955 2.55368 36.4867 6.93424 38.6655 9.12929C38.9659 9.43059 39.2662 9.73186 39.6381 10.1097Z" fill="#EFCF14" style="fill:#EFCF14;fill:color(display-p3 0.9373 0.8118 0.0784);fill-opacity:1;"/>
</g>
<defs>
<clipPath id="clip0_7_1479">
<rect width="48" height="48" fill="white" style="fill:white;fill-opacity:1;"/>
</clipPath>
</defs>
</svg>
