<svg width="48" height="48" viewBox="0 0 48 48" fill="none" xmlns="http://www.w3.org/2000/svg">
<g clip-path="url(#clip0_5_103)">
<g clip-path="url(#clip1_5_103)">
<path d="M23.9993 0.000549316C10.7468 0.000549316 0.000488281 10.7469 0.000488281 23.9994C0.000488281 37.2519 10.7468 47.9983 23.9993 47.9983C37.2519 47.9983 47.9982 37.2519 47.9982 23.9994C47.9982 10.7469 37.2575 0.000549316 23.9993 0.000549316ZM17.5493 39.2296H8.77488V30.4552H17.5493V39.2296ZM28.3865 39.2296H19.6122V30.4552H28.3865V39.2296ZM28.3865 28.3866H19.6122V19.6122H28.3865V28.3866ZM28.3865 17.5493H19.6122V8.77494H28.3865V17.5493ZM39.2295 17.5493H30.4551V8.77494H39.2295V17.5493Z" fill="white" style="fill:white;fill-opacity:1;"/>
</g>
</g>
<defs>
<clipPath id="clip0_5_103">
<rect width="48" height="48" fill="white" style="fill:white;fill-opacity:1;"/>
</clipPath>
<clipPath id="clip1_5_103">
<rect width="48" height="48" fill="white" style="fill:white;fill-opacity:1;"/>
</clipPath>
</defs>
</svg>
