<svg width="48" height="48" viewBox="0 0 48 48" fill="none" xmlns="http://www.w3.org/2000/svg">
<g clip-path="url(#clip0_5_89)">
<g clip-path="url(#clip1_5_89)">
<path d="M23.9993 0.000549316C10.7468 0.000549316 0.000488281 10.7469 0.000488281 23.9994C0.000488281 37.2519 10.7468 47.9983 23.9993 47.9983C37.2519 47.9983 47.9982 37.2519 47.9982 23.9994C47.9982 10.7469 37.2575 0.000549316 23.9993 0.000549316ZM17.5493 39.2296H8.77488V30.4552H17.5493V39.2296ZM28.3865 39.2296H19.6122V30.4552H28.3865V39.2296ZM28.3865 28.3866H19.6122V19.6122H28.3865V28.3866ZM28.3865 17.5493H19.6122V8.77494H28.3865V17.5493ZM39.2295 17.5493H30.4551V8.77494H39.2295V17.5493Z" fill="#00F5E6" style="fill:#00F5E6;fill:color(display-p3 0.0000 0.9608 0.9020);fill-opacity:1;"/>
<path d="M26.8465 0.171044C13.685 -1.39743 1.74521 7.99639 0.171046 21.158C-1.39743 34.3195 7.99639 46.2593 21.1523 47.8335C34.3139 49.402 46.2536 40.0081 47.8278 26.8522C49.402 13.685 40.0081 1.74521 26.8465 0.171044ZM17.5493 39.2296H8.77495V30.4552H17.5493V39.2296ZM28.3866 39.2296H19.6122V30.4552H28.3866V39.2296ZM28.3866 28.3866H19.6122V19.6122H28.3866V28.3866ZM28.3866 17.5493H19.6122V8.77494H28.3866V17.5493ZM39.2296 17.5493H30.4552V8.77494H39.2296V17.5493Z" fill="url(#paint0_radial_5_89)"/>
<path d="M26.8465 0.171044C13.685 -1.39743 1.74521 7.99639 0.171046 21.158C-1.39743 34.3195 7.99639 46.2593 21.1523 47.8335C34.3139 49.402 46.2536 40.0081 47.8278 26.8522C49.402 13.685 40.0081 1.74521 26.8465 0.171044ZM17.5493 39.2296H8.77495V30.4552H17.5493V39.2296ZM28.3866 39.2296H19.6122V30.4552H28.3866V39.2296ZM28.3866 28.3866H19.6122V19.6122H28.3866V28.3866ZM28.3866 17.5493H19.6122V8.77494H28.3866V17.5493ZM39.2296 17.5493H30.4552V8.77494H39.2296V17.5493Z" fill="url(#paint1_linear_5_89)"/>
</g>
</g>
<defs>
<radialGradient id="paint0_radial_5_89" cx="0" cy="0" r="1" gradientUnits="userSpaceOnUse" gradientTransform="translate(14.3955 58.3186) rotate(-75.81) scale(29.318 38.6998)">
<stop offset="0.4" stop-color="#3AA0F8" style="stop-color:#3AA0F8;stop-color:color(display-p3 0.2275 0.6275 0.9725);stop-opacity:1;"/>
<stop offset="0.43" stop-color="#39A0F7" stop-opacity="0.92" style="stop-color:#39A0F7;stop-color:color(display-p3 0.2235 0.6275 0.9686);stop-opacity:0.92;"/>
<stop offset="0.52" stop-color="#38A1F6" stop-opacity="0.68" style="stop-color:#38A1F6;stop-color:color(display-p3 0.2196 0.6314 0.9647);stop-opacity:0.68;"/>
<stop offset="0.61" stop-color="#37A2F5" stop-opacity="0.47" style="stop-color:#37A2F5;stop-color:color(display-p3 0.2157 0.6353 0.9608);stop-opacity:0.47;"/>
<stop offset="0.69" stop-color="#37A3F5" stop-opacity="0.3" style="stop-color:#37A3F5;stop-color:color(display-p3 0.2157 0.6392 0.9608);stop-opacity:0.3;"/>
<stop offset="0.78" stop-color="#36A4F4" stop-opacity="0.17" style="stop-color:#36A4F4;stop-color:color(display-p3 0.2118 0.6431 0.9569);stop-opacity:0.17;"/>
<stop offset="0.86" stop-color="#36A4F4" stop-opacity="0.08" style="stop-color:#36A4F4;stop-color:color(display-p3 0.2118 0.6431 0.9569);stop-opacity:0.08;"/>
<stop offset="0.94" stop-color="#36A4F4" stop-opacity="0.02" style="stop-color:#36A4F4;stop-color:color(display-p3 0.2118 0.6431 0.9569);stop-opacity:0.02;"/>
<stop offset="1" stop-color="#36A5F4" stop-opacity="0" style="stop-color:none;stop-opacity:0;"/>
</radialGradient>
<linearGradient id="paint1_linear_5_89" x1="14.2362" y1="2.07481" x2="33.7626" y2="45.9297" gradientUnits="userSpaceOnUse">
<stop stop-color="#B2FF8B" style="stop-color:#B2FF8B;stop-color:color(display-p3 0.6980 1.0000 0.5451);stop-opacity:1;"/>
<stop offset="0.3" stop-color="#B2FF8B" stop-opacity="0" style="stop-color:none;stop-opacity:0;"/>
</linearGradient>
<clipPath id="clip0_5_89">
<rect width="48" height="48" fill="white" style="fill:white;fill-opacity:1;"/>
</clipPath>
<clipPath id="clip1_5_89">
<rect width="48" height="48" fill="white" style="fill:white;fill-opacity:1;"/>
</clipPath>
</defs>
</svg>
