<svg width="48" height="48" viewBox="0 0 48 48" fill="none" xmlns="http://www.w3.org/2000/svg">
<g clip-path="url(#clip0_12_1600)">
<path d="M24.0041 25.8334C31.9968 25.8334 39.3598 28.5272 45.2379 33.0539L37.7899 45.9535C34.1837 42.5738 29.3383 40.5 24.0059 40.5C18.6724 40.5003 13.8248 42.5739 10.2183 45.9553L2.76862 33.0539C8.64682 28.5265 16.0109 25.8335 24.0041 25.8334Z" fill="#1B71FF" style="fill:#1B71FF;fill:color(display-p3 0.1059 0.4431 1.0000);fill-opacity:1;"/>
<path d="M24.0041 22.1201C31.9968 22.1201 39.3598 19.4263 45.2379 14.8995L37.7899 1.99996C34.1837 5.37967 29.3383 7.45341 24.0059 7.45341C18.6723 7.45309 13.8248 5.37955 10.2183 1.99817L2.76862 14.8995C8.64683 19.427 16.0109 22.1199 24.0041 22.1201Z" fill="#1B71FF" style="fill:#1B71FF;fill:color(display-p3 0.1059 0.4431 1.0000);fill-opacity:1;"/>
</g>
<defs>
<clipPath id="clip0_12_1600">
<rect width="44" height="44" fill="white" style="fill:white;fill-opacity:1;" transform="translate(2 2)"/>
</clipPath>
</defs>
</svg>
