<svg width="48" height="48" viewBox="0 0 48 48" fill="none" xmlns="http://www.w3.org/2000/svg">
<g clip-path="url(#clip0_7_1385)">
<path d="M6.98438 14.244L19.0374 20.7341C22.137 22.4032 25.8679 22.4032 28.9676 20.7341L41.0207 14.244" stroke="url(#paint0_linear_7_1385)" stroke-width="3.49091"/>
<path d="M19.081 5.45787C22.2154 3.72765 26.0163 3.71844 29.159 5.43344L39.3396 10.9891C41.722 12.2892 43.2042 14.7867 43.2042 17.5008V30.7097C43.2042 33.3775 41.7717 35.8399 39.4526 37.1585L29.3195 42.9198C26.0938 44.7539 22.1384 44.7441 18.9219 42.8941L8.96034 37.1648C6.65915 35.8413 5.2406 33.389 5.2406 30.7343V17.4765C5.2406 14.7753 6.70891 12.2876 9.07374 10.9821L19.081 5.45787Z" stroke="url(#paint1_linear_7_1385)" stroke-width="3.49091"/>
<path d="M30.0689 34.0456L23.5935 29.4415C17.7712 25.3018 9.64052 27.1744 6.21558 33.4438C8.43239 36.4472 11.3884 38.8262 14.7964 40.3494L15.8742 40.8311C21.0723 43.1546 26.984 43.3019 32.2914 41.2403C35.5137 39.9887 38.3832 37.9722 40.6527 35.3648L42.3247 33.4438C38.869 36.4515 33.8026 36.7003 30.0689 34.0456Z" fill="url(#paint2_linear_7_1385)"/>
<path d="M24.2888 30.4778L11.8918 37.916C11.3142 37.4403 10.5521 38.2207 11.0415 38.7868L11.7813 39.6427C11.8539 39.7267 11.9453 39.7924 12.0481 39.8345L16.3126 41.5809C20.8277 43.43 25.8812 43.4708 30.4256 41.6948C32.0259 41.0694 33.534 40.2297 34.9086 39.1988L41.5645 34.2069C39.4924 33.9211 37.5329 33.0917 35.8852 31.8031L35.0389 31.1413C31.9382 28.7164 27.6641 28.4526 24.2888 30.4778Z" fill="url(#paint3_linear_7_1385)"/>
</g>
<defs>
<linearGradient id="paint0_linear_7_1385" x1="7.8" y1="15.662" x2="40.8" y2="16.862" gradientUnits="userSpaceOnUse">
<stop stop-color="white" stop-opacity="0" style="stop-color:none;stop-opacity:0;"/>
<stop offset="0.218153" stop-color="white" style="stop-color:white;stop-opacity:1;"/>
<stop offset="0.702815" stop-color="white" style="stop-color:white;stop-opacity:1;"/>
<stop offset="1" stop-color="white" stop-opacity="0" style="stop-color:none;stop-opacity:0;"/>
</linearGradient>
<linearGradient id="paint1_linear_7_1385" x1="24.2224" y1="2.67993" x2="24.2224" y2="45.8799" gradientUnits="userSpaceOnUse">
<stop stop-color="white" stop-opacity="0.9" style="stop-color:white;stop-opacity:0.9;"/>
<stop offset="1" stop-color="white" style="stop-color:white;stop-opacity:1;"/>
</linearGradient>
<linearGradient id="paint2_linear_7_1385" x1="42.3247" y1="33.062" x2="6.21558" y2="33.062" gradientUnits="userSpaceOnUse">
<stop stop-color="white" stop-opacity="0.4" style="stop-color:white;stop-opacity:0.4;"/>
<stop offset="1" stop-color="white" stop-opacity="0.8" style="stop-color:white;stop-opacity:0.8;"/>
</linearGradient>
<linearGradient id="paint3_linear_7_1385" x1="8.72813" y1="35.8432" x2="41.6736" y2="35.8432" gradientUnits="userSpaceOnUse">
<stop stop-color="white" stop-opacity="0.4" style="stop-color:white;stop-opacity:0.4;"/>
<stop offset="1" stop-color="white" stop-opacity="0.8" style="stop-color:white;stop-opacity:0.8;"/>
</linearGradient>
<clipPath id="clip0_7_1385">
<rect width="48" height="48" fill="white" style="fill:white;fill-opacity:1;"/>
</clipPath>
</defs>
</svg>
