<svg width="48" height="48" viewBox="0 0 48 48" fill="none" xmlns="http://www.w3.org/2000/svg">
<g clip-path="url(#clip0_5_83)">
<g clip-path="url(#clip1_5_83)">
<path d="M38.88 20.3062L33.008 43.4782C32.9941 43.5417 32.9947 43.6074 33.0099 43.6706C33.025 43.7338 33.0543 43.7927 33.0955 43.8429C33.1367 43.8932 33.1887 43.9334 33.2477 43.9606C33.3066 43.9879 33.371 44.0014 33.436 44.0002H45.176C45.2409 44.0014 45.3053 43.9879 45.3643 43.9606C45.4232 43.9334 45.4753 43.8932 45.5165 43.8429C45.5577 43.7927 45.5869 43.7338 45.6021 43.6706C45.6172 43.6074 45.6179 43.5417 45.604 43.4782L39.704 20.3062C39.6787 20.2164 39.6248 20.1373 39.5504 20.081C39.476 20.0246 39.3853 19.9941 39.292 19.9941C39.1987 19.9941 39.1079 20.0246 39.0336 20.081C38.9592 20.1373 38.9052 20.2164 38.88 20.3062ZM6.55997 25.5562L2.00997 43.4762C1.99526 43.54 1.99538 43.6063 2.01032 43.6701C2.02526 43.7338 2.05463 43.7933 2.09616 43.8439C2.1377 43.8945 2.19029 43.9349 2.2499 43.962C2.3095 43.9891 2.37453 44.0022 2.43997 44.0002H11.504C11.6026 44.0036 11.6992 43.9725 11.7774 43.9122C11.8555 43.852 11.9102 43.7664 11.932 43.6702C11.9468 43.6064 11.9468 43.54 11.932 43.4762L7.37997 25.5562C7.35355 25.468 7.29939 25.3907 7.22553 25.3357C7.15167 25.2807 7.06205 25.251 6.96997 25.251C6.8779 25.251 6.78828 25.2807 6.71442 25.3357C6.64056 25.3907 6.5864 25.468 6.55997 25.5562Z" fill="white" style="fill:white;fill-opacity:1;"/>
<path d="M14.58 10.7178L6.29602 43.4758C6.28248 43.5375 6.28268 43.6014 6.29661 43.6629C6.31053 43.7245 6.33784 43.7822 6.37659 43.8321C6.41534 43.8819 6.46459 43.9226 6.52083 43.9512C6.57707 43.9799 6.63893 43.9958 6.70202 43.9978H23.282C23.3472 43.9997 23.4121 43.9867 23.4715 43.9597C23.5309 43.9327 23.5834 43.8925 23.6249 43.8421C23.6664 43.7918 23.6958 43.7326 23.7109 43.6691C23.726 43.6056 23.7264 43.5395 23.712 43.4758L15.4 10.7158C15.3736 10.6276 15.3194 10.5503 15.2456 10.4953C15.1717 10.4403 15.0821 10.4106 14.99 10.4106C14.8979 10.4106 14.8083 10.4403 14.7345 10.4953C14.6606 10.5503 14.6064 10.6276 14.58 10.7158V10.7178Z" fill="white" style="fill:white;fill-opacity:1;"/>
<path d="M28.88 0.299812C28.8536 0.211609 28.7995 0.134278 28.7256 0.0792999C28.6517 0.0243221 28.5621 -0.00537109 28.47 -0.00537109C28.378 -0.00537109 28.2883 0.0243221 28.2145 0.0792999C28.1406 0.134278 28.0865 0.211609 28.06 0.299812L16.732 43.4778C16.7177 43.5413 16.7181 43.6072 16.7331 43.6706C16.7481 43.7339 16.7773 43.793 16.8186 43.8433C16.8599 43.8936 16.9121 43.9339 16.9712 43.961C17.0304 43.9881 17.095 44.0014 17.16 43.9998H39.8C39.8651 44.0013 39.9297 43.988 39.9889 43.961C40.0481 43.9339 40.1005 43.8939 40.142 43.8438C40.1836 43.7936 40.2132 43.7344 40.2284 43.671C40.2437 43.6076 40.2442 43.5415 40.23 43.4778L28.88 0.299812Z" fill="white" style="fill:white;fill-opacity:1;"/>
<path d="M20.556 15.4819L13.37 43.4719C13.3547 43.5358 13.3542 43.6024 13.3687 43.6665C13.3832 43.7307 13.4123 43.7906 13.4537 43.8416C13.4951 43.8927 13.5477 43.9335 13.6074 43.961C13.6671 43.9884 13.7323 44.0018 13.798 43.9999H28.138C28.2036 44.0014 28.2687 43.9878 28.3282 43.9602C28.3877 43.9326 28.4401 43.8918 28.4814 43.8408C28.5227 43.7899 28.5518 43.7301 28.5665 43.6662C28.5812 43.6023 28.581 43.5358 28.566 43.4719L21.376 15.4819C21.3496 15.3937 21.2955 15.3164 21.2216 15.2614C21.1477 15.2065 21.0581 15.1768 20.966 15.1768C20.874 15.1768 20.7843 15.2065 20.7105 15.2614C20.6366 15.3164 20.5825 15.3937 20.556 15.4819Z" fill="white" style="fill:white;fill-opacity:1;"/>
</g>
</g>
<defs>
<clipPath id="clip0_5_83">
<rect width="48" height="48" fill="white" style="fill:white;fill-opacity:1;"/>
</clipPath>
<clipPath id="clip1_5_83">
<rect width="48" height="48" fill="white" style="fill:white;fill-opacity:1;"/>
</clipPath>
</defs>
</svg>
