<svg width="48" height="48" viewBox="0 0 48 48" fill="none" xmlns="http://www.w3.org/2000/svg">
<g clip-path="url(#clip0_3_2135)">
<path d="M22.64 2.35198C23.056 2.12082 23.5241 1.99951 24 1.99951C24.4759 1.99951 24.944 2.12082 25.36 2.35198L42.64 12.038C43.482 12.506 44 13.378 44 14.32V33.68C44 34.624 43.482 35.496 42.64 35.966L25.36 45.646C24.944 45.8771 24.4759 45.9985 24 45.9985C23.5241 45.9985 23.056 45.8771 22.64 45.646L5.36 35.966C4.94989 35.741 4.60748 35.4104 4.36832 35.0084C4.12916 34.6064 4.00199 34.1477 4 33.68V14.318C4 13.376 4.518 12.504 5.36 12.034L22.64 2.35398V2.35198ZM37.48 30.03V16.454L24.004 24L24 39.102L36.118 32.314C36.5278 32.0892 36.87 31.7589 37.1092 31.3573C37.3483 30.9557 37.4777 30.4974 37.48 30.03ZM25.36 9.66598C24.9444 9.43353 24.4762 9.31148 24 9.31148C23.5238 9.31148 23.0556 9.43353 22.64 9.66598L11.888 15.692C11.046 16.162 10.528 17.032 10.528 17.976V30.03C10.528 30.97 11.046 31.84 11.888 32.314L17.478 35.446V22.18C17.4804 22.7368 17.6331 23.2827 17.92 23.76C17.6189 23.257 17.4689 22.6779 17.488 22.092L17.496 21.904L17.536 21.604L17.572 21.436L17.606 21.312L17.684 21.078L17.808 20.794L17.878 20.664L18.04 20.404L18.228 20.16L18.396 19.978L18.556 19.828L18.806 19.628L18.948 19.532L19.216 19.38L30.956 12.8L25.364 9.66798L25.36 9.66598Z" fill="url(#paint0_linear_3_2135)"/>
<path d="M24.0001 22.176C24.0001 20.426 22.5401 19.008 20.7381 19.008C20.1357 19.0079 19.5446 19.1718 19.0281 19.482C18.9741 19.514 18.9181 19.548 18.8681 19.582C18.7841 19.6413 18.7021 19.7033 18.6221 19.768C18.5781 19.808 18.5321 19.844 18.4901 19.886L18.3941 19.976L18.2681 20.11C18.2401 20.142 18.2121 20.172 18.1881 20.206C18.1226 20.2872 18.0599 20.3706 18.0001 20.456L17.9161 20.594C17.8657 20.6786 17.819 20.7653 17.7761 20.854L17.7041 21.016C17.6878 21.0554 17.6731 21.0954 17.6601 21.136C17.6401 21.196 17.6201 21.252 17.6041 21.31L17.5701 21.434C17.5403 21.5386 17.5202 21.6457 17.5101 21.754C17.5061 21.804 17.4961 21.854 17.4941 21.902C17.4342 22.5509 17.5835 23.202 17.9201 23.76C18.5241 24.776 19.6201 25.344 20.7481 25.344C21.3021 25.344 21.8641 25.208 22.3761 24.92L24.0061 24.006V22.178L24.0001 22.176Z" fill="#012F8D" style="fill:#012F8D;fill:color(display-p3 0.0039 0.1843 0.5529);fill-opacity:1;"/>
</g>
<defs>
<linearGradient id="paint0_linear_3_2135" x1="7.662" y1="35.0766" x2="41.8449" y2="15.9255" gradientUnits="userSpaceOnUse">
<stop stop-color="#0A51C3" style="stop-color:#0A51C3;stop-color:color(display-p3 0.0392 0.3176 0.7647);stop-opacity:1;"/>
<stop offset="1" stop-color="#23A4FB" style="stop-color:#23A4FB;stop-color:color(display-p3 0.1373 0.6431 0.9843);stop-opacity:1;"/>
</linearGradient>
<clipPath id="clip0_3_2135">
<rect width="48" height="48" fill="white" style="fill:white;fill-opacity:1;"/>
</clipPath>
</defs>
</svg>
