<svg width="48" height="48" viewBox="0 0 48 48" fill="none" xmlns="http://www.w3.org/2000/svg">
<g clip-path="url(#clip0_5_49)">
<g clip-path="url(#clip1_5_49)">
<path fill-rule="evenodd" clip-rule="evenodd" d="M47.56 10.008H47.104C46.5293 10.0098 45.9605 10.1249 45.4303 10.3467C44.9 10.5684 44.4187 10.8925 44.0138 11.3004C43.6089 11.7083 43.2883 12.192 43.0704 12.7238C42.8526 13.2557 42.7416 13.8253 42.744 14.4V24.224C42.744 26.184 41.136 27.774 39.224 27.774C38.6457 27.769 38.0769 27.6261 37.5649 27.3573C37.0529 27.0884 36.6124 26.7013 36.28 26.228L26.336 11.9C25.9318 11.3136 25.3911 10.8343 24.7604 10.5033C24.1298 10.1724 23.4282 9.99962 22.716 10C20.448 10 18.408 11.944 18.408 14.346V24.226C18.408 26.186 16.814 27.776 14.888 27.776C13.748 27.776 12.616 27.198 11.944 26.23L0.816 10.196C0.564 9.836 0 10.014 0 10.456V19.024C0 19.456 0.132 19.876 0.376 20.232L11.326 36.01C11.974 36.942 12.926 37.634 14.028 37.886C16.782 38.518 19.318 36.378 19.318 33.652V23.78C19.318 21.82 20.892 20.23 22.838 20.23H22.842C24.014 20.23 25.112 20.806 25.786 21.776L35.73 36.102C36.1283 36.6943 36.6678 37.178 37.2998 37.5097C37.9317 37.8414 38.6363 38.0106 39.35 38.002C41.666 38.002 43.652 36.056 43.652 33.656V23.778C43.652 21.818 45.226 20.228 47.172 20.228H47.56C47.804 20.228 48 20.028 48 19.784V10.45C48.0003 10.392 47.9891 10.3344 47.9671 10.2807C47.9452 10.227 47.9128 10.1781 47.872 10.1369C47.8311 10.0956 47.7825 10.0629 47.729 10.0404C47.6755 10.018 47.618 10.0063 47.56 10.006V10.008Z" fill="black" style="fill:black;fill-opacity:1;"/>
</g>
</g>
<defs>
<clipPath id="clip0_5_49">
<rect width="48" height="48" fill="white" style="fill:white;fill-opacity:1;"/>
</clipPath>
<clipPath id="clip1_5_49">
<rect width="48" height="48" fill="white" style="fill:white;fill-opacity:1;"/>
</clipPath>
</defs>
</svg>
