<svg width="48" height="48" viewBox="0 0 48 48" fill="none" xmlns="http://www.w3.org/2000/svg">
<g clip-path="url(#clip0_10_2589)">
<path fill-rule="evenodd" clip-rule="evenodd" d="M21.7572 1.00642C21.7464 1.01585 21.2888 1.03614 20.7404 1.05152C17.2335 1.14991 13.5621 1.71876 11.2559 2.52104C8.97501 3.31455 7.18369 4.42393 5.6703 5.98038C4.73121 6.94609 4.04097 7.91331 3.42018 9.13336C2.419 11.1008 1.91309 13.0704 1.44339 16.8297C1.10726 19.5195 0.993096 21.4661 1.00032 24.3833C1.00901 27.8787 1.29744 31.0789 1.9087 34.4622C2.37326 37.0335 3.26994 39.0869 4.7547 40.9795C5.2275 41.5822 5.26956 41.6301 5.79559 42.1659C7.67613 44.0816 9.92234 45.3608 12.5634 46.02C13.9071 46.3554 15.9702 46.6584 17.8596 46.798C19.6759 46.9322 22.1673 47 25.2832 47C31.5502 47 35.4866 46.3532 38.6234 44.8078C40.0057 44.1268 41.0876 43.3498 42.1958 42.242C43.8005 40.6379 44.7988 38.9939 45.5609 36.6995C46.411 34.142 46.7735 31.8854 46.871 28.5478C46.8874 27.9996 46.9065 27.5401 46.914 27.5268C46.9402 27.4796 47 24.4283 47 23.1207C47 20.1786 46.8666 17.9967 46.5555 15.845C46.1539 13.0672 45.6398 11.2178 44.7852 9.47547C44.0517 7.97989 43.2538 6.87662 42.0898 5.74805C41.0411 4.73139 39.8973 3.93762 38.4905 3.25026C36.097 2.08076 33.4972 1.45467 30.2248 1.25965C28.8415 1.17725 28.7103 1.17051 27.6099 1.12564C27.0127 1.10127 26.3147 1.07057 26.0587 1.05745C25.469 1.02715 21.7833 0.983469 21.7572 1.00642Z" fill="white" style="fill:white;fill-opacity:1;"/>
<path fill-rule="evenodd" clip-rule="evenodd" d="M21.7572 1.00642C21.7464 1.01585 21.2888 1.03614 20.7404 1.05152C17.2335 1.14991 13.5621 1.71876 11.2559 2.52104C8.97501 3.31455 7.18369 4.42393 5.6703 5.98038C4.73121 6.94609 4.04097 7.91331 3.42018 9.13336C2.419 11.1008 1.91309 13.0704 1.44339 16.8297C1.10726 19.5195 0.993096 21.4661 1.00032 24.3833C1.00901 27.8787 1.29744 31.0789 1.9087 34.4622C2.37326 37.0335 3.26994 39.0869 4.7547 40.9795C5.2275 41.5822 5.26956 41.6301 5.79559 42.1659C7.67613 44.0816 9.92234 45.3608 12.5634 46.02C13.9071 46.3554 15.9702 46.6584 17.8596 46.798C19.6759 46.9322 22.1673 47 25.2832 47C31.5502 47 35.4866 46.3532 38.6234 44.8078C40.0057 44.1268 41.0876 43.3498 42.1958 42.242C43.8006 40.6379 44.7988 38.9939 45.5609 36.6995C46.411 34.142 46.7735 31.8854 46.871 28.5478C46.8874 27.9996 46.9065 27.5401 46.914 27.5269C46.9402 27.4796 47 24.4283 47 23.1207C47 20.1786 46.8666 17.9967 46.5555 15.845C46.1539 13.0672 45.6398 11.2178 44.7852 9.47547C44.0517 7.97989 43.2538 6.87662 42.0898 5.74805C41.0411 4.73139 39.8973 3.93762 38.4905 3.25026C36.097 2.08076 33.4972 1.45467 30.2248 1.25965C28.8415 1.17725 28.7103 1.17051 27.6099 1.12564C27.0127 1.10127 26.3147 1.07057 26.0587 1.05745C25.469 1.02715 21.7833 0.983469 21.7572 1.00642ZM25.8878 15.458C27.0313 15.6468 28.0152 16.1767 28.8401 17.0479C29.3961 17.635 29.7569 18.2354 30.0004 18.9784C30.2296 19.6777 30.2248 19.513 30.2248 26.6929C30.2248 33.3178 30.224 33.3776 30.1362 33.4654C30.0501 33.5514 29.9885 33.554 28.0359 33.554C26.1852 33.554 26.0168 33.5478 25.9308 33.4765L25.8375 33.399L25.8248 27.4624C25.813 21.8878 25.8073 21.5096 25.7322 21.26C25.4377 20.2819 24.6679 19.5216 23.7098 19.2625C23.4446 19.1908 23.0691 19.1841 18.9897 19.1788C16.5521 19.1757 14.5057 19.1901 14.442 19.2109C14.3783 19.2316 14.3035 19.2984 14.2758 19.3593C14.2388 19.4404 14.2254 21.3205 14.2254 26.4234C14.2254 33.3178 14.2246 33.3776 14.1367 33.4654C14.0507 33.5514 13.989 33.554 12.0414 33.554C10.2969 33.554 10.0218 33.545 9.93622 33.485L9.83769 33.4161V24.4916C9.83769 15.618 9.83818 15.5666 9.9266 15.4782C10.0149 15.39 10.0657 15.3894 17.7601 15.3921C24.2538 15.3943 25.5666 15.4049 25.8878 15.458ZM38.0493 15.4986L38.1581 15.6074V33.3205L38.0662 33.4373L37.9744 33.554H33.9098L33.818 33.4373L33.7261 33.3205V15.6074L33.8349 15.4986L33.9436 15.3899H37.9405L38.0493 15.4986ZM22.2548 22.463C22.3325 22.5333 22.3359 22.7618 22.3359 27.9566C22.3359 33.3178 22.3349 33.3778 22.2472 33.4654C22.1611 33.5515 22.0995 33.554 20.0313 33.554C17.963 33.554 17.9014 33.5515 17.8153 33.4654C17.7276 33.3778 17.7266 33.3178 17.7266 27.9719C17.7266 22.626 17.7276 22.566 17.8153 22.4783C17.9015 22.3922 17.963 22.3897 20.0388 22.3897C21.9632 22.3897 22.1818 22.3969 22.2548 22.463Z" fill="#EA6606" style="fill:#EA6606;fill:color(display-p3 0.9176 0.4000 0.0235);fill-opacity:1;"/>
</g>
<defs>
<clipPath id="clip0_10_2589">
<rect width="48" height="48" fill="white" style="fill:white;fill-opacity:1;"/>
</clipPath>
</defs>
</svg>
