<svg width="48" height="48" viewBox="0 0 48 48" fill="none" xmlns="http://www.w3.org/2000/svg">
<g clip-path="url(#clip0_6_1652)">
<path fill-rule="evenodd" clip-rule="evenodd" d="M22.7251 0.518268C25.1611 0.424676 30.0912 0.746826 34.0351 4.28818C37.2706 7.19318 38.3852 12.5788 37.6313 16.7549C36.9401 20.5829 35.3115 23.7149 35.9494 26.615C36.5873 29.515 38.2107 30.9447 39.5918 31.5453C40.9257 32.125 42.2151 31.9512 41.9698 33.0531C41.7241 34.155 40.0558 34.5611 38.8376 34.5611C38.1696 34.5611 36.1496 34.387 35.2534 33.8069C34.1942 33.1215 33.9581 32.5072 33.555 32.0134C33.4866 31.9296 33.3658 31.9881 33.3818 32.0949C33.5656 33.3097 34.0721 35.3708 34.8937 36.6493C35.5586 37.6834 35.8334 38.4376 37.3565 39.7137C38.88 40.9894 39.5915 42.1495 38.1104 42.9711C36.7946 43.7007 33.9345 42.2077 32.2526 40.3611C30.7386 38.6991 29.6846 36.6489 29.2677 35.315C29.0449 34.6019 28.8217 33.3751 28.5987 32.3717C28.5694 32.2396 28.3888 32.2609 28.3849 32.396C28.3108 34.9499 27.9094 37.3888 27.3225 40.0035C26.8999 41.886 25.8724 44.1795 24.9444 45.5715C23.8129 47.2689 22.1331 47.7986 20.8845 47.3346C19.8858 46.9633 20.5945 45.7012 20.8845 44.6086C21.1744 43.5163 21.7546 41.231 22.1453 38.7275C22.499 36.4614 22.5926 34.2183 22.435 32.0928C22.4253 31.9631 22.2261 31.9433 22.1857 32.0668C21.8603 33.0637 21.2468 34.7162 20.7992 35.7212C19.8657 37.8172 19.1749 38.7371 17.2609 40.9412C15.5396 42.9232 10.5889 45.7262 9.95298 42.9711C9.779 42.2173 10.6906 41.887 11.5314 41.231C12.7951 40.2451 13.8512 38.4955 14.8524 36.3591C15.7515 34.4407 16.2085 32.5849 16.2784 31.4002C16.285 31.2859 16.1416 31.2428 16.0772 31.3373C15.661 31.9477 15.0482 32.7738 14.3732 33.4589C13.2457 34.6036 11.9951 35.7818 10.5448 36.3591C8.21301 37.2871 5.83515 36.6489 6.00899 34.9673C6.15429 33.5623 7.72277 33.8531 9.67528 31.7229C11.5893 29.6349 12.2271 28.0106 12.3431 26.2126C12.4358 24.7741 11.0286 21.3601 10.3133 19.8327C9.17255 17.3967 8.32964 10.4831 11.7633 6.02863C16.0552 0.460743 21.2169 0.576237 22.7251 0.518268ZM16.0298 10.255C14.4329 10.255 13.6344 11.4807 13.6344 12.9927C13.6344 14.5046 14.5216 15.7303 16.0298 15.7303C17.538 15.7303 18.4252 14.5046 18.4252 12.9927C18.4251 11.4808 17.6267 10.255 16.0298 10.255ZM29.0335 10.255C27.4366 10.255 26.6381 11.4807 26.6381 12.9927C26.6381 14.5046 27.5253 15.7303 29.0335 15.7303C30.5417 15.7303 31.4289 14.5046 31.4289 12.9927C31.4289 11.4808 30.6304 10.255 29.0335 10.255Z" fill="black" style="fill:black;fill-opacity:1;"/>
</g>
<defs>
<clipPath id="clip0_6_1652">
<rect width="48" height="48" fill="white" style="fill:white;fill-opacity:1;"/>
</clipPath>
</defs>
</svg>
