<svg width="40" height="40" viewBox="0 0 40 40" fill="none" xmlns="http://www.w3.org/2000/svg">
<rect width="40" height="40" rx="10" fill="#FF2842" style="fill:#FF2842;fill:color(display-p3 1.0000 0.1569 0.2588);fill-opacity:1;"/>
<path d="M12.2461 23.3083C12.2461 24.0641 11.6327 24.6765 10.877 24.6765C10.1213 24.6764 9.50879 24.064 9.50879 23.3083V23.0808H10.6494V15.3259H12.2461V23.3083ZM16.3506 22.6248C16.4646 22.7387 16.6929 22.8522 16.9209 22.8523H19.0879L18.1758 24.449H15.3242L16.3506 22.6248ZM24.4473 17.6072H23.3066V22.8523H25.0176L24.9033 24.449H19.0879L19.8857 22.8523H21.5967V17.6072H20.5703V15.8962H24.4473V17.6072ZM28.4385 15.8962H29.5791C30.3346 15.8963 30.947 16.5089 30.9473 17.2644V19.0896H32.8389C32.9278 19.0898 32.9999 19.1618 33 19.2507V22.738C33 23.6827 32.2338 24.449 31.2891 24.449H31.1758C30.2941 24.449 29.5791 23.734 29.5791 22.8523H31.2891V21.2556C31.2888 21.0039 31.0848 20.7996 30.833 20.7996H28.5527C28.4898 20.7996 28.4386 20.8509 28.4385 20.9138V24.449H26.7285V20.9138C26.7284 20.851 26.6771 20.7997 26.6143 20.7996H25.0176V19.0896H26.7285V17.6072H25.7021V15.8962H26.7285V15.3259H28.4385V15.8962ZM9.28027 17.6072C9.28024 19.3556 9.0525 23.0338 8.14062 23.7644L7 21.8259C7.19012 21.5213 7.59335 20.2517 7.68457 17.6072H9.28027ZM15.2109 20.572C15.211 21.2102 15.4387 21.6737 15.5527 21.8259L14.5264 23.7644C13.7055 23.2166 13.4238 19.4317 13.3857 17.6072H14.9824L15.2109 20.572ZM18.1719 17.7185C18.1209 17.8255 18.1989 17.949 18.3174 17.949C18.3712 17.9489 18.4213 17.9215 18.4512 17.8767L18.6318 17.6072H20.2285L18.8125 20.2351C18.7307 20.3871 18.8411 20.572 19.0137 20.572H20L19.0879 22.1687H17.25C16.7367 22.1687 16.4061 21.6241 16.6426 21.1687L17.6055 19.3171H16.7598C16.2546 19.3171 15.9238 18.7882 16.1445 18.3337L17.6055 15.3259H19.3154L18.1719 17.7185ZM28.5537 17.6082C28.491 17.6084 28.4405 17.6597 28.4404 17.7224V18.9763C28.4404 19.0392 28.4909 19.0904 28.5537 19.0906H29.2383C29.3013 19.0906 29.3525 19.0393 29.3525 18.9763V18.0642C29.3524 17.8125 29.1482 17.6083 28.8965 17.6082H28.5537ZM32.1982 15.781C32.639 15.781 32.9968 16.1382 32.9971 16.5789C32.9971 17.0197 32.6391 17.3777 32.1982 17.3777H31.4004V16.5789C31.4006 16.1383 31.7577 15.7812 32.1982 15.781Z" fill="white" style="fill:white;fill-opacity:1;"/>
</svg>
